<svg viewBox="0 0 950.5 400" xmlns="http://www.w3.org/2000/svg"><g><g><g><g><g><line x1="41.171875" y1="318.3190908312135" x2="36.171875" y2="318.3190908312135" style="visibility: inherit;" fill="rgb(0, 0, 0)" stroke="rgb(204, 204, 204)" stroke-width="1px"></line><line x1="41.171875" y1="268.78651294835055" x2="36.171875" y2="268.78651294835055" style="visibility: inherit;" fill="rgb(0, 0, 0)" stroke="rgb(204, 204, 204)" stroke-width="1px"></line><line x1="41.171875" y1="233.64258965071394" x2="36.171875" y2="233.64258965071394" style="visibility: inherit;" fill="rgb(0, 0, 0)" stroke="rgb(204, 204, 204)" stroke-width="1px"></line><line x1="41.171875" y1="206.38284494394824" x2="36.171875" y2="206.38284494394824" style="visibility: inherit;" fill="rgb(0, 0, 0)" stroke="rgb(204, 204, 204)" stroke-width="1px"></line><line x1="41.171875" y1="184.11001176785098" x2="36.171875" y2="184.11001176785098" style="visibility: inherit;" fill="rgb(0, 0, 0)" stroke="rgb(204, 204, 204)" stroke-width="1px"></line><line x1="41.171875" y1="165.2785996400211" x2="36.171875" y2="165.2785996400211" style="visibility: inherit;" fill="rgb(0, 0, 0)" stroke="rgb(204, 204, 204)" stroke-width="1px"></line><line x1="41.171875" y1="148.9660884702144" x2="36.171875" y2="148.9660884702144" style="visibility: inherit;" fill="rgb(0, 0, 0)" stroke="rgb(204, 204, 204)" stroke-width="1px"></line><line x1="41.171875" y1="134.57743388498804" x2="36.171875" y2="134.57743388498804" style="visibility: inherit;" fill="rgb(0, 0, 0)" stroke="rgb(204, 204, 204)" stroke-width="1px"></line><line x1="41.171875" y1="121.70634376344867" x2="36.171875" y2="121.70634376344867" style="visibility: inherit;" fill="rgb(0, 0, 0)" stroke="rgb(204, 204, 204)" stroke-width="1px"></line><line x1="41.171875" y1="37.02984258294909" x2="36.171875" y2="37.02984258294909" style="visibility: inherit;" fill="rgb(0, 0, 0)" stroke="rgb(204, 204, 204)" stroke-width="1px"></line></g><g transform="translate(31.171875, 0)"><text x="0" y="318.3190908312135" dx="0em" dy="0.3em" style="text-anchor: end; visibility: inherit; font-family: Roboto, sans-serif; font-size: 12px; font-weight: 200;" fill="rgb(50, 49, 63)" stroke="none" stroke-width="1px">0.2</text><text x="0" y="268.78651294835055" dx="0em" dy="0.3em" style="text-anchor: end; visibility: hidden; font-family: Roboto, sans-serif; font-size: 12px; font-weight: 200;" fill="rgb(50, 49, 63)" stroke="none" stroke-width="1px">0.3</text><text x="0" y="233.64258965071394" dx="0em" dy="0.3em" style="text-anchor: end; visibility: inherit; font-family: Roboto, sans-serif; font-size: 12px; font-weight: 200;" fill="rgb(50, 49, 63)" stroke="none" stroke-width="1px">0.4</text><text x="0" y="206.38284494394824" dx="0em" dy="0.3em" style="text-anchor: end; visibility: hidden; font-family: Roboto, sans-serif; font-size: 12px; font-weight: 200;" fill="rgb(50, 49, 63)" stroke="none" stroke-width="1px">0.5</text><text x="0" y="184.11001176785098" dx="0em" dy="0.3em" style="text-anchor: end; visibility: inherit; font-family: Roboto, sans-serif; font-size: 12px; font-weight: 200;" fill="rgb(50, 49, 63)" stroke="none" stroke-width="1px">0.6</text><text x="0" y="165.2785996400211" dx="0em" dy="0.3em" style="text-anchor: end; visibility: hidden; font-family: Roboto, sans-serif; font-size: 12px; font-weight: 200;" fill="rgb(50, 49, 63)" stroke="none" stroke-width="1px">0.7</text><text x="0" y="148.9660884702144" dx="0em" dy="0.3em" style="text-anchor: end; visibility: inherit; font-family: Roboto, sans-serif; font-size: 12px; font-weight: 200;" fill="rgb(50, 49, 63)" stroke="none" stroke-width="1px">0.8</text><text x="0" y="134.57743388498804" dx="0em" dy="0.3em" style="text-anchor: end; visibility: hidden; font-family: Roboto, sans-serif; font-size: 12px; font-weight: 200;" fill="rgb(50, 49, 63)" stroke="none" stroke-width="1px">0.9</text><text x="0" y="121.70634376344867" dx="0em" dy="0.3em" style="text-anchor: end; visibility: inherit; font-family: Roboto, sans-serif; font-size: 12px; font-weight: 200;" fill="rgb(50, 49, 63)" stroke="none" stroke-width="1px">1</text><text x="0" y="37.02984258294909" dx="0em" dy="0.3em" style="text-anchor: end; visibility: hidden; font-family: Roboto, sans-serif; font-size: 12px; font-weight: 200;" fill="rgb(50, 49, 63)" stroke="none" stroke-width="1px">2</text></g><line x1="41.171875" y1="0" x2="41.171875" y2="378" fill="rgb(0, 0, 0)" stroke="rgb(204, 204, 204)" stroke-width="1px"></line></g></g><g transform="translate(41, 0)" clip-path="url(#clip_0)"><clipPath id="clip_0"><rect width="909" height="378"></rect></clipPath><g><g><g><line x1="0" y1="0" x2="0" y2="378" fill="rgb(0, 0, 0)" stroke="rgb(60, 60, 60)" stroke-width="1px" opacity="0.25"></line><line x1="75.77734375" y1="0" x2="75.77734375" y2="378" fill="rgb(0, 0, 0)" stroke="rgb(60, 60, 60)" stroke-width="1px" opacity="0.25"></line><line x1="151.5546875" y1="0" x2="151.5546875" y2="378" fill="rgb(0, 0, 0)" stroke="rgb(60, 60, 60)" stroke-width="1px" opacity="0.25"></line><line x1="227.33203125" y1="0" x2="227.33203125" y2="378" fill="rgb(0, 0, 0)" stroke="rgb(60, 60, 60)" stroke-width="1px" opacity="0.25"></line><line x1="303.109375" y1="0" x2="303.109375" y2="378" fill="rgb(0, 0, 0)" stroke="rgb(60, 60, 60)" stroke-width="1px" opacity="0.25"></line><line x1="378.88671875" y1="0" x2="378.88671875" y2="378" fill="rgb(0, 0, 0)" stroke="rgb(60, 60, 60)" stroke-width="1px" opacity="0.25"></line><line x1="454.6640625" y1="0" x2="454.6640625" y2="378" fill="rgb(0, 0, 0)" stroke="rgb(60, 60, 60)" stroke-width="1px" opacity="0.25"></line><line x1="530.44140625" y1="0" x2="530.44140625" y2="378" fill="rgb(0, 0, 0)" stroke="rgb(60, 60, 60)" stroke-width="1px" opacity="0.25"></line><line x1="606.21875" y1="0" x2="606.21875" y2="378" fill="rgb(0, 0, 0)" stroke="rgb(60, 60, 60)" stroke-width="1px" opacity="0.25"></line><line x1="681.99609375" y1="0" x2="681.99609375" y2="378" fill="rgb(0, 0, 0)" stroke="rgb(60, 60, 60)" stroke-width="1px" opacity="0.25"></line><line x1="757.7734375" y1="0" x2="757.7734375" y2="378" fill="rgb(0, 0, 0)" stroke="rgb(60, 60, 60)" stroke-width="1px" opacity="0.25"></line><line x1="833.55078125" y1="0" x2="833.55078125" y2="378" fill="rgb(0, 0, 0)" stroke="rgb(60, 60, 60)" stroke-width="1px" opacity="0.25"></line><line x1="909.328125" y1="0" x2="909.328125" y2="378" fill="rgb(0, 0, 0)" stroke="rgb(60, 60, 60)" stroke-width="1px" opacity="0.25"></line></g><g><line x1="0" y1="318.3190908312135" x2="909.328125" y2="318.3190908312135" fill="rgb(0, 0, 0)" stroke="rgb(60, 60, 60)" stroke-width="1px" opacity="0.25"></line><line x1="0" y1="268.78651294835055" x2="909.328125" y2="268.78651294835055" fill="rgb(0, 0, 0)" stroke="rgb(60, 60, 60)" stroke-width="1px" opacity="0.25"></line><line x1="0" y1="233.64258965071394" x2="909.328125" y2="233.64258965071394" fill="rgb(0, 0, 0)" stroke="rgb(60, 60, 60)" stroke-width="1px" opacity="0.25"></line><line x1="0" y1="206.38284494394824" x2="909.328125" y2="206.38284494394824" fill="rgb(0, 0, 0)" stroke="rgb(60, 60, 60)" stroke-width="1px" opacity="0.25"></line><line x1="0" y1="184.11001176785098" x2="909.328125" y2="184.11001176785098" fill="rgb(0, 0, 0)" stroke="rgb(60, 60, 60)" stroke-width="1px" opacity="0.25"></line><line x1="0" y1="165.2785996400211" x2="909.328125" y2="165.2785996400211" fill="rgb(0, 0, 0)" stroke="rgb(60, 60, 60)" stroke-width="1px" opacity="0.25"></line><line x1="0" y1="148.9660884702144" x2="909.328125" y2="148.9660884702144" fill="rgb(0, 0, 0)" stroke="rgb(60, 60, 60)" stroke-width="1px" opacity="0.25"></line><line x1="0" y1="134.57743388498804" x2="909.328125" y2="134.57743388498804" fill="rgb(0, 0, 0)" stroke="rgb(60, 60, 60)" stroke-width="1px" opacity="0.25"></line><line x1="0" y1="121.70634376344867" x2="909.328125" y2="121.70634376344867" fill="rgb(0, 0, 0)" stroke="rgb(60, 60, 60)" stroke-width="1px" opacity="0.25"></line><line x1="0" y1="37.02984258294909" x2="909.328125" y2="37.02984258294909" fill="rgb(0, 0, 0)" stroke="rgb(60, 60, 60)" stroke-width="1px" opacity="0.25"></line></g></g></g><g><g><line x1="75.77734375" y1="0" x2="75.77734375" y2="378" fill="rgb(0, 0, 0)" stroke="rgb(153, 153, 153)" stroke-width="1.5px"></line></g></g><g><g><g><g><g><path stroke="rgb(255, 112, 67)" stroke-width="2px" d="M75.77734375,210.21017314880973L90.93281250000001,241.75907288746367L106.08828125000001,258.0337835555198L121.24374999999999,269.5595684788569L136.39921875,276.58084890471747L151.5546875,284.12888438133206L166.71015624999998,290.20635355873173L181.86562500000002,294.47295605256363L197.02109375,299.5901320506624L212.17656250000002,301.93308466867506L227.33203125,306.5923804857375L242.48749999999998,307.3157240139076L257.64296874999997,310.4049964478778L272.7984375,313.1545509646442L287.95390625,314.6519112205254L303.109375,315.860790086702L318.26484374999995,316.70586192060864L333.42031249999997,316.9950420054956L348.57578125000003,319.7256755232415L363.73125000000005,319.0340853364295L378.88671875,318.6993346926938L394.0421875,323.5869726551341L409.19765625,320.9400363238656L424.35312500000003,321.99675049463104L439.50859375,323.7312830512296L454.6640625,322.5248481447373L469.81953125000007,320.41570308257803L484.97499999999997,322.60115069265856L500.13046875000003,323.730074765075L515.2859374999999,322.72740849020676L530.44140625,323.11942410105246L545.596875,322.98835393091116L560.75234375,324L575.9078125,321.95358208003927L591.06328125,322.81691578577363L606.21875,323.25172488104596L621.3742187500001,322.63690121675586L636.5296874999999,321.3775740471708L651.68515625,321.671950652256L666.8406249999999,322.0367438902878L681.99609375,319.45197578655876L697.1515625000001,319.4165114536312L712.30703125,318.8140544745777L727.4625000000001,317.6180897599831L742.6179687499999,318.8361631310959L757.7734375,318.7954311050109L772.92890625,314.85949553682747L788.084375,314.9452417662321L803.23984375,314.90396312757065L818.3953125,315.1456541321566" style="fill: none;" fill="none"></path></g><g><path stroke="rgb(204, 51, 17)" stroke-width="2px" d="M75.77734375,196.71083661328805L90.93281250000001,225.47484645437626L106.08828125000001,241.85032744573584L121.24374999999999,249.8215198449017L136.39921875,255.77889196834593L151.5546875,260.18209960649295L166.71015624999998,261.88141757420135L181.86562500000002,265.0126580846827L197.02109375,267.6726739320385L212.17656250000002,269.29126764034015L227.33203125,274.30489072934625L242.48749999999998,273.5373145013468L257.64296874999997,277.02781611721605L272.7984375,279.0199361976113L287.95390625,278.32745601595167L303.109375,280.7853283409265L318.26484374999995,279.3768450595428L333.42031249999997,285.73134738178163L348.57578125000003,286.9232066878326L363.73125000000005,282.21584835438284L378.88671875,285.1982085207427L394.0421875,283.3458572946484L409.19765625,286.1198419177636L424.35312500000003,289.6415922380053L439.50859375,287.01341006242944L454.6640625,288.451426432443L469.81953125000007,285.0678690562421L484.97499999999997,286.8913521541254L500.13046875000003,286.79853856403463L515.2859374999999,284.5097546486885L530.44140625,289.04981584849247L545.596875,292.33283026514107L560.75234375,283.02790992115143L575.9078125,287.7299197077919L591.06328125,285.3503522297062L606.21875,290.8681394761076L621.3742187500001,287.2935986990757L636.5296874999999,289.11581597824863L651.68515625,290.3197124496388L666.8406249999999,291.46658360680965L681.99609375,294.2944281116656L697.1515625000001,288.4947987408137L712.30703125,288.2037495723731L727.4625000000001,291.5199784500753L742.6179687499999,289.78647598257174L757.7734375,288.19905494287883L772.92890625,288.1787563034368L788.084375,288.69599259194814L803.23984375,289.68773646744114L818.3953125,290.3121712155814" style="fill: none;" fill="none"></path></g><g><path stroke="rgb(255, 112, 67)" stroke-width="2px" d="M75.77734375,206.63340137250904L90.93281250000001,232.6637884823239L106.08828125000001,249.00261606972228L121.24374999999999,256.56537573197846L136.39921875,264.9973154360906L151.5546875,270.82438865993703L166.71015624999998,272.1950762163134L181.86562500000002,277.67139848154886L197.02109375,280.46081428789023L212.17656250000002,279.7009567768875L227.33203125,281.98090377348075L242.48749999999998,284.25927217125474L257.64296874999997,289.0047424644999L272.7984375,290.45543289134554L287.95390625,290.9050333142291L303.109375,293.0118029477915L318.26484374999995,290.6594055565988L333.42031249999997,293.93814557510416L348.57578125000003,289.83356886304045L363.73125000000005,291.3475504513534L378.88671875,292.01604886616974L394.0421875,295.3378692137509L409.19765625,294.1925835910638L424.35312500000003,296.1151653158068L439.50859375,300.31168087440153L454.6640625,298.12112314017946L469.81953125000007,293.5561714338801L484.97499999999997,297.79546228586696L500.13046875000003,300.3968674113835L515.2859374999999,301.657129623973L530.44140625,295.0051169424179L545.596875,298.12501144257465L560.75234375,301.81668776445406L575.9078125,305.5888540483583L591.06328125,298.4594051185414L606.21875,298.6573247063841L621.3742187500001,303.08472127473715L636.5296874999999,300.6695459552569L651.68515625,301.2619338999273L666.8406249999999,301.64603608828065L681.99609375,302.8347211440269L697.1515625000001,300.7692671458326L712.30703125,299.07027593400005L727.4625000000001,302.91233039842524L742.6179687499999,300.05408654586233L757.7734375,296.2547633854697L772.92890625,293.65997085482206L788.084375,296.1836763101516L803.23984375,298.968194798634L818.3953125,301.3698723206018" style="fill: none;" fill="none"></path></g><g><path stroke="rgb(0, 153, 136)" stroke-width="2px" d="M75.77734375,53.99999999999998L90.93281250000001,67.79942314068347L106.08828125000001,76.1016392904553L121.24374999999999,81.21001975081798L136.39921875,83.66134694754858L151.5546875,86.31391739931044L166.71015624999998,88.44616218439154L181.86562500000002,90.86400605739371L197.02109375,91.07408799643555L212.17656250000002,92.26453936105281L227.33203125,94.30274419334964L242.48749999999998,93.94142732643736L257.64296874999997,95.54703094589637L272.7984375,95.52876390609451L287.95390625,95.02536899517833L303.109375,97.03593771180947L318.26484374999995,97.29960220847123L333.42031249999997,98.38984903903426L348.57578125000003,97.91554723299835L363.73125000000005,98.32200455853105L378.88671875,100.50287749974312L394.0421875,100.5669222425078L409.19765625,100.178992771259L424.35312500000003,100.2071401198953L439.50859375,101.09648417213309L454.6640625,100.75287889753514L469.81953125000007,99.22234441735557L484.97499999999997,101.04015367132665L500.13046875000003,99.71426079412709L515.2859374999999,101.94768294543115L530.44140625,100.52314041722727L545.596875,101.01628868867297L560.75234375,100.99411232775488L575.9078125,100.30802316697421L591.06328125,100.23493970201662L606.21875,102.30182617141067L621.3742187500001,102.77149986593375L636.5296874999999,101.74304216213771L651.68515625,102.34631238366144L666.8406249999999,102.08139880781209L681.99609375,102.76197169653904L697.1515625000001,100.75762651954096L712.30703125,101.91028902736645L727.4625000000001,101.65495652421959L742.6179687499999,103.36980598029278L757.7734375,101.52857036193787L772.92890625,102.47155721302966L788.084375,103.99262131684449L803.23984375,104.11386657940284L818.3953125,100.92970815538364" style="fill: none;" fill="none"></path></g></g></g></g></g></g><g transform="translate(41, 378)" clip-path="url(#clip_1)"><clipPath id="clip_1"><rect width="909" height="22"></rect></clipPath><g><g><line x1="0" y1="0" x2="0" y2="5" style="visibility: inherit;" fill="rgb(0, 0, 0)" stroke="rgb(204, 204, 204)" stroke-width="1px"></line><line x1="75.77734375" y1="0" x2="75.77734375" y2="5" style="visibility: inherit;" fill="rgb(0, 0, 0)" stroke="rgb(204, 204, 204)" stroke-width="1px"></line><line x1="151.5546875" y1="0" x2="151.5546875" y2="5" style="visibility: inherit;" fill="rgb(0, 0, 0)" stroke="rgb(204, 204, 204)" stroke-width="1px"></line><line x1="227.33203125" y1="0" x2="227.33203125" y2="5" style="visibility: inherit;" fill="rgb(0, 0, 0)" stroke="rgb(204, 204, 204)" stroke-width="1px"></line><line x1="303.109375" y1="0" x2="303.109375" y2="5" style="visibility: inherit;" fill="rgb(0, 0, 0)" stroke="rgb(204, 204, 204)" stroke-width="1px"></line><line x1="378.88671875" y1="0" x2="378.88671875" y2="5" style="visibility: inherit;" fill="rgb(0, 0, 0)" stroke="rgb(204, 204, 204)" stroke-width="1px"></line><line x1="454.6640625" y1="0" x2="454.6640625" y2="5" style="visibility: inherit;" fill="rgb(0, 0, 0)" stroke="rgb(204, 204, 204)" stroke-width="1px"></line><line x1="530.44140625" y1="0" x2="530.44140625" y2="5" style="visibility: inherit;" fill="rgb(0, 0, 0)" stroke="rgb(204, 204, 204)" stroke-width="1px"></line><line x1="606.21875" y1="0" x2="606.21875" y2="5" style="visibility: inherit;" fill="rgb(0, 0, 0)" stroke="rgb(204, 204, 204)" stroke-width="1px"></line><line x1="681.99609375" y1="0" x2="681.99609375" y2="5" style="visibility: inherit;" fill="rgb(0, 0, 0)" stroke="rgb(204, 204, 204)" stroke-width="1px"></line><line x1="757.7734375" y1="0" x2="757.7734375" y2="5" style="visibility: inherit;" fill="rgb(0, 0, 0)" stroke="rgb(204, 204, 204)" stroke-width="1px"></line><line x1="833.55078125" y1="0" x2="833.55078125" y2="5" style="visibility: inherit;" fill="rgb(0, 0, 0)" stroke="rgb(204, 204, 204)" stroke-width="1px"></line><line x1="909.328125" y1="0" x2="909.328125" y2="5" style="visibility: inherit;" fill="rgb(0, 0, 0)" stroke="rgb(204, 204, 204)" stroke-width="1px"></line></g><g transform="translate(0, 8)"><text x="0" y="0" dx="0em" dy="0.95em" style="text-anchor: middle; visibility: hidden; font-family: Roboto, sans-serif; font-size: 12px; font-weight: 200;" fill="rgb(50, 49, 63)" stroke="none" stroke-width="1px">-5</text><text x="75.77734375" y="0" dx="0em" dy="0.95em" style="text-anchor: middle; visibility: inherit; font-family: Roboto, sans-serif; font-size: 12px; font-weight: 200;" fill="rgb(50, 49, 63)" stroke="none" stroke-width="1px">0</text><text x="151.5546875" y="0" dx="0em" dy="0.95em" style="text-anchor: middle; visibility: inherit; font-family: Roboto, sans-serif; font-size: 12px; font-weight: 200;" fill="rgb(50, 49, 63)" stroke="none" stroke-width="1px">5</text><text x="227.33203125" y="0" dx="0em" dy="0.95em" style="text-anchor: middle; visibility: inherit; font-family: Roboto, sans-serif; font-size: 12px; font-weight: 200;" fill="rgb(50, 49, 63)" stroke="none" stroke-width="1px">10</text><text x="303.109375" y="0" dx="0em" dy="0.95em" style="text-anchor: middle; visibility: inherit; font-family: Roboto, sans-serif; font-size: 12px; font-weight: 200;" fill="rgb(50, 49, 63)" stroke="none" stroke-width="1px">15</text><text x="378.88671875" y="0" dx="0em" dy="0.95em" style="text-anchor: middle; visibility: inherit; font-family: Roboto, sans-serif; font-size: 12px; font-weight: 200;" fill="rgb(50, 49, 63)" stroke="none" stroke-width="1px">20</text><text x="454.6640625" y="0" dx="0em" dy="0.95em" style="text-anchor: middle; visibility: inherit; font-family: Roboto, sans-serif; font-size: 12px; font-weight: 200;" fill="rgb(50, 49, 63)" stroke="none" stroke-width="1px">25</text><text x="530.44140625" y="0" dx="0em" dy="0.95em" style="text-anchor: middle; visibility: inherit; font-family: Roboto, sans-serif; font-size: 12px; font-weight: 200;" fill="rgb(50, 49, 63)" stroke="none" stroke-width="1px">30</text><text x="606.21875" y="0" dx="0em" dy="0.95em" style="text-anchor: middle; visibility: inherit; font-family: Roboto, sans-serif; font-size: 12px; font-weight: 200;" fill="rgb(50, 49, 63)" stroke="none" stroke-width="1px">35</text><text x="681.99609375" y="0" dx="0em" dy="0.95em" style="text-anchor: middle; visibility: inherit; font-family: Roboto, sans-serif; font-size: 12px; font-weight: 200;" fill="rgb(50, 49, 63)" stroke="none" stroke-width="1px">40</text><text x="757.7734375" y="0" dx="0em" dy="0.95em" style="text-anchor: middle; visibility: inherit; font-family: Roboto, sans-serif; font-size: 12px; font-weight: 200;" fill="rgb(50, 49, 63)" stroke="none" stroke-width="1px">45</text><text x="833.55078125" y="0" dx="0em" dy="0.95em" style="text-anchor: middle; visibility: inherit; font-family: Roboto, sans-serif; font-size: 12px; font-weight: 200;" fill="rgb(50, 49, 63)" stroke="none" stroke-width="1px">50</text><text x="909.328125" y="0" dx="0em" dy="0.95em" style="text-anchor: middle; visibility: hidden; font-family: Roboto, sans-serif; font-size: 12px; font-weight: 200;" fill="rgb(50, 49, 63)" stroke="none" stroke-width="1px">55</text></g><line x1="0" y1="0" x2="909.328125" y2="0" fill="rgb(0, 0, 0)" stroke="rgb(204, 204, 204)" stroke-width="1px"></line></g></g></g></g></svg>