<svg viewBox="0 0 950.5 400" xmlns="http://www.w3.org/2000/svg"><g><g><g><g><g><line x1="41.171875" y1="311.4639678844045" x2="36.171875" y2="311.4639678844045" style="visibility: inherit;" fill="rgb(0, 0, 0)" stroke="rgb(204, 204, 204)" stroke-width="1px"></line><line x1="41.171875" y1="263.2160187818223" x2="36.171875" y2="263.2160187818223" style="visibility: inherit;" fill="rgb(0, 0, 0)" stroke="rgb(204, 204, 204)" stroke-width="1px"></line><line x1="41.171875" y1="228.98355410898998" x2="36.171875" y2="228.98355410898998" style="visibility: inherit;" fill="rgb(0, 0, 0)" stroke="rgb(204, 204, 204)" stroke-width="1px"></line><line x1="41.171875" y1="202.4307916367494" x2="36.171875" y2="202.4307916367494" style="visibility: inherit;" fill="rgb(0, 0, 0)" stroke="rgb(204, 204, 204)" stroke-width="1px"></line><line x1="41.171875" y1="180.73560500640772" x2="36.171875" y2="180.73560500640772" style="visibility: inherit;" fill="rgb(0, 0, 0)" stroke="rgb(204, 204, 204)" stroke-width="1px"></line><line x1="41.171875" y1="162.39258607406117" x2="36.171875" y2="162.39258607406117" style="visibility: inherit;" fill="rgb(0, 0, 0)" stroke="rgb(204, 204, 204)" stroke-width="1px"></line><line x1="41.171875" y1="146.50314033357537" x2="36.171875" y2="146.50314033357537" style="visibility: inherit;" fill="rgb(0, 0, 0)" stroke="rgb(204, 204, 204)" stroke-width="1px"></line><line x1="41.171875" y1="132.48765590382556" x2="36.171875" y2="132.48765590382556" style="visibility: inherit;" fill="rgb(0, 0, 0)" stroke="rgb(204, 204, 204)" stroke-width="1px"></line><line x1="41.171875" y1="119.95037786133479" x2="36.171875" y2="119.95037786133479" style="visibility: inherit;" fill="rgb(0, 0, 0)" stroke="rgb(204, 204, 204)" stroke-width="1px"></line><line x1="41.171875" y1="37.46996408592022" x2="36.171875" y2="37.46996408592022" style="visibility: inherit;" fill="rgb(0, 0, 0)" stroke="rgb(204, 204, 204)" stroke-width="1px"></line></g><g transform="translate(31.171875, 0)"><text x="0" y="311.4639678844045" dx="0em" dy="0.3em" style="text-anchor: end; visibility: inherit; font-family: Roboto, sans-serif; font-size: 12px; font-weight: 200;" fill="rgb(50, 49, 63)" stroke="none" stroke-width="1px">0.2</text><text x="0" y="263.2160187818223" dx="0em" dy="0.3em" style="text-anchor: end; visibility: hidden; font-family: Roboto, sans-serif; font-size: 12px; font-weight: 200;" fill="rgb(50, 49, 63)" stroke="none" stroke-width="1px">0.3</text><text x="0" y="228.98355410898998" dx="0em" dy="0.3em" style="text-anchor: end; visibility: inherit; font-family: Roboto, sans-serif; font-size: 12px; font-weight: 200;" fill="rgb(50, 49, 63)" stroke="none" stroke-width="1px">0.4</text><text x="0" y="202.4307916367494" dx="0em" dy="0.3em" style="text-anchor: end; visibility: hidden; font-family: Roboto, sans-serif; font-size: 12px; font-weight: 200;" fill="rgb(50, 49, 63)" stroke="none" stroke-width="1px">0.5</text><text x="0" y="180.73560500640772" dx="0em" dy="0.3em" style="text-anchor: end; visibility: inherit; font-family: Roboto, sans-serif; font-size: 12px; font-weight: 200;" fill="rgb(50, 49, 63)" stroke="none" stroke-width="1px">0.6</text><text x="0" y="162.39258607406117" dx="0em" dy="0.3em" style="text-anchor: end; visibility: hidden; font-family: Roboto, sans-serif; font-size: 12px; font-weight: 200;" fill="rgb(50, 49, 63)" stroke="none" stroke-width="1px">0.7</text><text x="0" y="146.50314033357537" dx="0em" dy="0.3em" style="text-anchor: end; visibility: inherit; font-family: Roboto, sans-serif; font-size: 12px; font-weight: 200;" fill="rgb(50, 49, 63)" stroke="none" stroke-width="1px">0.8</text><text x="0" y="132.48765590382556" dx="0em" dy="0.3em" style="text-anchor: end; visibility: hidden; font-family: Roboto, sans-serif; font-size: 12px; font-weight: 200;" fill="rgb(50, 49, 63)" stroke="none" stroke-width="1px">0.9</text><text x="0" y="119.95037786133479" dx="0em" dy="0.3em" style="text-anchor: end; visibility: inherit; font-family: Roboto, sans-serif; font-size: 12px; font-weight: 200;" fill="rgb(50, 49, 63)" stroke="none" stroke-width="1px">1</text><text x="0" y="37.46996408592022" dx="0em" dy="0.3em" style="text-anchor: end; visibility: hidden; font-family: Roboto, sans-serif; font-size: 12px; font-weight: 200;" fill="rgb(50, 49, 63)" stroke="none" stroke-width="1px">2</text></g><line x1="41.171875" y1="0" x2="41.171875" y2="378" fill="rgb(0, 0, 0)" stroke="rgb(204, 204, 204)" stroke-width="1px"></line></g></g><g transform="translate(41, 0)" clip-path="url(#clip_0)"><clipPath id="clip_0"><rect width="909" height="378"></rect></clipPath><g><g><g><line x1="0" y1="0" x2="0" y2="378" fill="rgb(0, 0, 0)" stroke="rgb(60, 60, 60)" stroke-width="1px" opacity="0.25"></line><line x1="75.77734375" y1="0" x2="75.77734375" y2="378" fill="rgb(0, 0, 0)" stroke="rgb(60, 60, 60)" stroke-width="1px" opacity="0.25"></line><line x1="151.5546875" y1="0" x2="151.5546875" y2="378" fill="rgb(0, 0, 0)" stroke="rgb(60, 60, 60)" stroke-width="1px" opacity="0.25"></line><line x1="227.33203125" y1="0" x2="227.33203125" y2="378" fill="rgb(0, 0, 0)" stroke="rgb(60, 60, 60)" stroke-width="1px" opacity="0.25"></line><line x1="303.109375" y1="0" x2="303.109375" y2="378" fill="rgb(0, 0, 0)" stroke="rgb(60, 60, 60)" stroke-width="1px" opacity="0.25"></line><line x1="378.88671875" y1="0" x2="378.88671875" y2="378" fill="rgb(0, 0, 0)" stroke="rgb(60, 60, 60)" stroke-width="1px" opacity="0.25"></line><line x1="454.6640625" y1="0" x2="454.6640625" y2="378" fill="rgb(0, 0, 0)" stroke="rgb(60, 60, 60)" stroke-width="1px" opacity="0.25"></line><line x1="530.44140625" y1="0" x2="530.44140625" y2="378" fill="rgb(0, 0, 0)" stroke="rgb(60, 60, 60)" stroke-width="1px" opacity="0.25"></line><line x1="606.21875" y1="0" x2="606.21875" y2="378" fill="rgb(0, 0, 0)" stroke="rgb(60, 60, 60)" stroke-width="1px" opacity="0.25"></line><line x1="681.99609375" y1="0" x2="681.99609375" y2="378" fill="rgb(0, 0, 0)" stroke="rgb(60, 60, 60)" stroke-width="1px" opacity="0.25"></line><line x1="757.7734375" y1="0" x2="757.7734375" y2="378" fill="rgb(0, 0, 0)" stroke="rgb(60, 60, 60)" stroke-width="1px" opacity="0.25"></line><line x1="833.55078125" y1="0" x2="833.55078125" y2="378" fill="rgb(0, 0, 0)" stroke="rgb(60, 60, 60)" stroke-width="1px" opacity="0.25"></line><line x1="909.328125" y1="0" x2="909.328125" y2="378" fill="rgb(0, 0, 0)" stroke="rgb(60, 60, 60)" stroke-width="1px" opacity="0.25"></line></g><g><line x1="0" y1="311.4639678844045" x2="909.328125" y2="311.4639678844045" fill="rgb(0, 0, 0)" stroke="rgb(60, 60, 60)" stroke-width="1px" opacity="0.25"></line><line x1="0" y1="263.2160187818223" x2="909.328125" y2="263.2160187818223" fill="rgb(0, 0, 0)" stroke="rgb(60, 60, 60)" stroke-width="1px" opacity="0.25"></line><line x1="0" y1="228.98355410898998" x2="909.328125" y2="228.98355410898998" fill="rgb(0, 0, 0)" stroke="rgb(60, 60, 60)" stroke-width="1px" opacity="0.25"></line><line x1="0" y1="202.4307916367494" x2="909.328125" y2="202.4307916367494" fill="rgb(0, 0, 0)" stroke="rgb(60, 60, 60)" stroke-width="1px" opacity="0.25"></line><line x1="0" y1="180.73560500640772" x2="909.328125" y2="180.73560500640772" fill="rgb(0, 0, 0)" stroke="rgb(60, 60, 60)" stroke-width="1px" opacity="0.25"></line><line x1="0" y1="162.39258607406117" x2="909.328125" y2="162.39258607406117" fill="rgb(0, 0, 0)" stroke="rgb(60, 60, 60)" stroke-width="1px" opacity="0.25"></line><line x1="0" y1="146.50314033357537" x2="909.328125" y2="146.50314033357537" fill="rgb(0, 0, 0)" stroke="rgb(60, 60, 60)" stroke-width="1px" opacity="0.25"></line><line x1="0" y1="132.48765590382556" x2="909.328125" y2="132.48765590382556" fill="rgb(0, 0, 0)" stroke="rgb(60, 60, 60)" stroke-width="1px" opacity="0.25"></line><line x1="0" y1="119.95037786133479" x2="909.328125" y2="119.95037786133479" fill="rgb(0, 0, 0)" stroke="rgb(60, 60, 60)" stroke-width="1px" opacity="0.25"></line><line x1="0" y1="37.46996408592022" x2="909.328125" y2="37.46996408592022" fill="rgb(0, 0, 0)" stroke="rgb(60, 60, 60)" stroke-width="1px" opacity="0.25"></line></g></g></g><g><g><line x1="75.77734375" y1="0" x2="75.77734375" y2="378" fill="rgb(0, 0, 0)" stroke="rgb(153, 153, 153)" stroke-width="1.5px"></line></g></g><g><g><g><g><g><path stroke="rgb(255, 112, 67)" stroke-width="2px" d="M75.77734375,206.15885797853616L90.93281250000001,236.889536128031L106.08828125000001,252.7421617238268L121.24374999999999,263.9690250957184L136.39921875,270.8082084191262L151.5546875,278.1604853864468L166.71015624999998,284.0803352322821L181.86562500000002,288.2362832721795L197.02109375,293.2207451689354L212.17656250000002,295.50293324586056L227.33203125,300.04139009676635L242.48749999999998,300.7459736904845L257.64296874999997,303.75512575825474L272.7984375,306.4333705024197L287.95390625,307.89189667856243L303.109375,309.06942323783846L318.26484374999995,309.8925781103099L333.42031249999997,310.17425830168014L348.57578125000003,312.83407276345866L363.73125000000005,312.1604189873104L378.88671875,311.8343501107982L394.0421875,316.5952270472125L409.19765625,314.0169390830603L424.35312500000003,315.0462473425181L439.50859375,316.73579474918546L454.6640625,315.5606487654316L469.81953125000007,313.50620443891836L484.97499999999997,315.6349724046577L500.13046875000003,316.73461779996575L515.2859374999999,315.757955702727L530.44140625,316.13980437784L545.596875,316.0121335161941L560.75234375,316.9975425164415L575.9078125,315.00419850195533L591.06328125,315.8451416241025L606.21875,316.2686739334374L621.3742187500001,315.6697957379216L636.5296874999999,314.4431292533844L651.68515625,314.7298711930575L666.8406249999999,315.08520350835L681.99609375,312.56747143703296L697.1515625000001,312.53292687256277L712.30703125,311.9460946319592L727.4625000000001,310.7811472953861L742.6179687499999,311.9676298998578L757.7734375,311.92795425999833L772.92890625,308.0940972898677L788.084375,308.177619688436L803.23984375,308.1374116124124L818.3953125,308.37283435409546" style="fill: none;" fill="none"></path></g><g><path stroke="rgb(0, 119, 187)" stroke-width="2px" d="M75.77734375,211.83164207746609L90.93281250000001,240.7242914139152L106.08828125000001,256.2962190816918L121.24374999999999,270.84297633809075L136.39921875,276.958138837442L151.5546875,283.51606011381364L166.71015624999998,286.85239563961545L181.86562500000002,297.2452130295227L197.02109375,296.42111869990345L212.17656250000002,300.71761970157394L227.33203125,304.2554588099727L242.48749999999998,307.2472430030445L257.64296874999997,308.31374503755836L272.7984375,311.472264742617L287.95390625,310.13614044319314L303.109375,311.55207108077605L318.26484374999995,315.7206991152609L333.42031249999997,316.3324868554502L348.57578125000003,319.44122174205313L363.73125000000005,321.8983197484667L378.88671875,317.5755007324745L394.0421875,319.75032615880775L409.19765625,318.3085646401616L424.35312500000003,318.95975458572417L439.50859375,324L454.6640625,322.75518572979735L469.81953125000007,323.1201820567714L484.97499999999997,323.0146247113948L500.13046875000003,322.31425344964407L515.2859374999999,319.73177357981444L530.44140625,319.32978352978904L545.596875,322.5686439085019L560.75234375,318.6988790834678L575.9078125,319.2057985645483L591.06328125,322.4110064867329L606.21875,320.4981589786067L621.3742187500001,319.33837458353565L636.5296874999999,318.03514115260856L651.68515625,319.7912908399684L666.8406249999999,319.529147721113L681.99609375,317.35343356286467L697.1515625000001,314.08196623155163L712.30703125,314.8277153220962L727.4625000000001,316.2222876980447L742.6179687499999,317.78753909745467L757.7734375,316.45201460126106L772.92890625,314.55989967478087L788.084375,313.06209796105367L803.23984375,312.7225937175043L818.3953125,311.9391425727942" style="fill: none;" fill="none"></path></g><g><path stroke="rgb(187, 187, 187)" stroke-width="2px" d="M75.77734375,185.2501822268884L90.93281250000001,213.65174363393243L106.08828125000001,226.24271345968904L121.24374999999999,234.19327805134546L136.39921875,240.48498286812426L151.5546875,250.5472704855382L166.71015624999998,258.7277512055385L181.86562500000002,261.2886659401886L197.02109375,263.2315715059866L212.17656250000002,273.1687556190966L227.33203125,272.4137859459525L242.48749999999998,272.78090369086664L257.64296874999997,278.8355819195085L272.7984375,277.38829796258193L287.95390625,279.91099155366027L303.109375,285.4287058272189L318.26484374999995,286.5344817166356L333.42031249999997,288.1598127274937L348.57578125000003,288.0754007734577L363.73125000000005,292.5383016067828L378.88671875,290.1481846830583L394.0421875,289.7339687729626L409.19765625,290.6596235319959L424.35312500000003,291.8616519688078L439.50859375,289.19498189034323L454.6640625,296.0216279073216L469.81953125000007,295.85688126953454L484.97499999999997,295.2919788034623L500.13046875000003,296.7708305394648L515.2859374999999,298.0848388632966L530.44140625,296.7272629920306L545.596875,296.0181161420315L560.75234375,302.4609135207725L575.9078125,298.2012994320339L591.06328125,298.214901328786L606.21875,297.5433682517105L621.3742187500001,298.00833593973584L636.5296874999999,301.8274486112294L651.68515625,296.1390786563072L666.8406249999999,300.2183128454426L681.99609375,298.8012984744985L697.1515625000001,299.6578924114803L712.30703125,297.6049970870648L727.4625000000001,295.39857118147825L742.6179687499999,297.18840955421723L757.7734375,297.3165585957707L772.92890625,296.0378020533683L788.084375,297.87573074790373L803.23984375,296.96060309501604L818.3953125,294.80656568564" style="fill: none;" fill="none"></path></g><g><path stroke="rgb(204, 51, 17)" stroke-width="2px" d="M75.77734375,193.00962711022285L90.93281250000001,221.0276415588337L106.08828125000001,236.97842399680508L121.24374999999999,244.74288330016196L136.39921875,250.54575081246486L151.5546875,254.83476113847334L166.71015624999998,256.4900072475894L181.86562500000002,259.54003894864326L197.02109375,262.1310672112704L212.17656250000002,263.70768264688496L227.33203125,268.5912772821157L242.48749999999998,267.8436081648642L257.64296874999997,271.24358352458L272.7984375,273.1840379154749L287.95390625,272.50951722652L303.109375,274.9036445646221L318.26484374999995,273.53169033617985L333.42031249999997,279.72138846456437L348.57578125000003,280.88233686647834L363.73125000000005,276.29706400187985L378.88671875,279.20207657466347L394.0421875,277.39776612895935L409.19765625,280.0998073839878L424.35312500000003,283.5302210120621L439.50859375,280.9702008140548L454.6640625,282.3709221896547L469.81953125000007,279.07511746778727L484.97499999999997,280.8513084809857L500.13046875000003,280.7609020139264L515.2859374999999,278.5314777728628L530.44140625,282.95379235961354L545.596875,286.1516617063714L560.75234375,277.08806472940654L575.9078125,281.66812776190545L591.06328125,279.35027443231803L606.21875,284.7249577135482L621.3742187500001,281.2431227506437L636.5296874999999,283.0180807741751L651.68515625,284.19075415721153L666.8406249999999,285.3078811791334L681.99609375,288.06238545837687L697.1515625000001,282.4131696360057L712.30703125,282.1296688358156L727.4625000000001,285.359891225659L742.6179687499999,283.6713471926975L757.7734375,282.12509596166734L772.92890625,282.1053237680019L788.084375,282.6091455190345L803.23984375,283.57516848962854L818.3953125,284.1834085052684" style="fill: none;" fill="none"></path></g><g><path stroke="rgb(255, 112, 67)" stroke-width="2px" d="M75.77734375,202.6748498773908L90.93281250000001,228.03013817603141L106.08828125000001,243.9452178170893L121.24374999999999,251.31183709788868L136.39921875,259.52509421206753L151.5546875,265.2010421303453L166.71015624999998,266.5361808669558L181.86562500000002,271.87047456245585L197.02109375,274.58754679254577L212.17656250000002,273.84739620715186L227.33203125,276.0682127151954L242.48749999999998,278.2874915654239L257.64296874999997,282.90988795508406L272.7984375,284.32295468550086L287.95390625,284.7608947089554L303.109375,286.8130252136782L318.26484374999995,284.52163731402726L333.42031249999997,287.7153431192762L348.57578125000003,283.71721871800594L363.73125000000005,285.19193515186316L378.88671875,285.8430960417626L394.0421875,289.07876488655864L409.19765625,287.96318227823974L424.35312500000003,289.8359017926635L439.50859375,293.9235806039318L454.6640625,291.7898350452621L469.81953125000007,287.34327548799195L484.97499999999997,291.4726202142326L500.13046875000003,294.006557825716L515.2859374999999,295.23413510289146L530.44140625,288.75464255460554L545.596875,291.793622504427L560.75234375,295.3895550985767L575.9078125,299.0638901453552L591.06328125,292.1193436711392L606.21875,292.3121302089855L621.3742187500001,296.62470212462466L636.5296874999999,294.27216444399625L651.68515625,294.84918879090253L666.8406249999999,295.2233292783548L681.99609375,296.3811857542337L697.1515625000001,294.3692993627304L712.30703125,292.7143715350675L727.4625000000001,296.456782210468L742.6179687499999,293.672666991443L757.7734375,289.9718793825205L772.92890625,287.4443828680748L788.084375,289.9026359524711L803.23984375,292.6149378767765L818.3953125,294.95432782564507" style="fill: none;" fill="none"></path></g><g><path stroke="rgb(0, 153, 136)" stroke-width="2px" d="M75.77734375,53.99999999999998L90.93281250000001,67.44153471905288L106.08828125000001,75.52843266286871L121.24374999999999,80.50432713440358L136.39921875,82.89207909234382L151.5546875,85.47585505591825L166.71015624999998,87.5528000133991L181.86562500000002,89.90793703853987L197.02109375,90.11257049666982L212.17656250000002,91.27214747215012L227.33203125,93.25749140562864L242.48749999999998,92.90554530167434L257.64296874999997,94.46950754676034L272.7984375,94.45171426314202L287.95390625,93.961374913193L303.109375,95.91979947443161L318.26484374999995,96.17662582506449L333.42031249999997,97.23859707385863L348.57578125000003,96.77659629830846L363.73125000000005,97.17251214183774L378.88671875,99.29682408287245L394.0421875,99.3592078234584L409.19765625,98.98133931379867L424.35312500000003,99.00875666016792L439.50859375,99.87503554976104L454.6640625,99.54034168748349L469.81953125000007,98.04950166146901L484.97499999999997,99.82016598205433L500.13046875000003,98.52866017337456L515.2859374999999,100.70415845928108L530.44140625,99.31656148103002L545.596875,99.79691993838722L560.75234375,99.77531872200422L575.9078125,99.10702330262465L591.06328125,99.03583525935638L606.21875,101.049116970879L621.3742187500001,101.50660966511678L636.5296874999999,100.50482504037433L651.68515625,101.09244943198209L666.8406249999999,100.83440639706498L681.99609375,101.49732860905942L697.1515625000001,99.54496617978101L712.30703125,100.66773435351779L727.4625000000001,100.41902390591707L742.6179687499999,102.0893986938167L757.7734375,100.29591557225717L772.92890625,101.21444603322928L788.084375,102.6960612973525L803.23984375,102.8141620606658L818.3953125,99.71258487362849" style="fill: none;" fill="none"></path></g></g></g></g></g></g><g transform="translate(41, 378)" clip-path="url(#clip_1)"><clipPath id="clip_1"><rect width="909" height="22"></rect></clipPath><g><g><line x1="0" y1="0" x2="0" y2="5" style="visibility: inherit;" fill="rgb(0, 0, 0)" stroke="rgb(204, 204, 204)" stroke-width="1px"></line><line x1="75.77734375" y1="0" x2="75.77734375" y2="5" style="visibility: inherit;" fill="rgb(0, 0, 0)" stroke="rgb(204, 204, 204)" stroke-width="1px"></line><line x1="151.5546875" y1="0" x2="151.5546875" y2="5" style="visibility: inherit;" fill="rgb(0, 0, 0)" stroke="rgb(204, 204, 204)" stroke-width="1px"></line><line x1="227.33203125" y1="0" x2="227.33203125" y2="5" style="visibility: inherit;" fill="rgb(0, 0, 0)" stroke="rgb(204, 204, 204)" stroke-width="1px"></line><line x1="303.109375" y1="0" x2="303.109375" y2="5" style="visibility: inherit;" fill="rgb(0, 0, 0)" stroke="rgb(204, 204, 204)" stroke-width="1px"></line><line x1="378.88671875" y1="0" x2="378.88671875" y2="5" style="visibility: inherit;" fill="rgb(0, 0, 0)" stroke="rgb(204, 204, 204)" stroke-width="1px"></line><line x1="454.6640625" y1="0" x2="454.6640625" y2="5" style="visibility: inherit;" fill="rgb(0, 0, 0)" stroke="rgb(204, 204, 204)" stroke-width="1px"></line><line x1="530.44140625" y1="0" x2="530.44140625" y2="5" style="visibility: inherit;" fill="rgb(0, 0, 0)" stroke="rgb(204, 204, 204)" stroke-width="1px"></line><line x1="606.21875" y1="0" x2="606.21875" y2="5" style="visibility: inherit;" fill="rgb(0, 0, 0)" stroke="rgb(204, 204, 204)" stroke-width="1px"></line><line x1="681.99609375" y1="0" x2="681.99609375" y2="5" style="visibility: inherit;" fill="rgb(0, 0, 0)" stroke="rgb(204, 204, 204)" stroke-width="1px"></line><line x1="757.7734375" y1="0" x2="757.7734375" y2="5" style="visibility: inherit;" fill="rgb(0, 0, 0)" stroke="rgb(204, 204, 204)" stroke-width="1px"></line><line x1="833.55078125" y1="0" x2="833.55078125" y2="5" style="visibility: inherit;" fill="rgb(0, 0, 0)" stroke="rgb(204, 204, 204)" stroke-width="1px"></line><line x1="909.328125" y1="0" x2="909.328125" y2="5" style="visibility: inherit;" fill="rgb(0, 0, 0)" stroke="rgb(204, 204, 204)" stroke-width="1px"></line></g><g transform="translate(0, 8)"><text x="0" y="0" dx="0em" dy="0.95em" style="text-anchor: middle; visibility: hidden; font-family: Roboto, sans-serif; font-size: 12px; font-weight: 200;" fill="rgb(50, 49, 63)" stroke="none" stroke-width="1px">-5</text><text x="75.77734375" y="0" dx="0em" dy="0.95em" style="text-anchor: middle; visibility: inherit; font-family: Roboto, sans-serif; font-size: 12px; font-weight: 200;" fill="rgb(50, 49, 63)" stroke="none" stroke-width="1px">0</text><text x="151.5546875" y="0" dx="0em" dy="0.95em" style="text-anchor: middle; visibility: inherit; font-family: Roboto, sans-serif; font-size: 12px; font-weight: 200;" fill="rgb(50, 49, 63)" stroke="none" stroke-width="1px">5</text><text x="227.33203125" y="0" dx="0em" dy="0.95em" style="text-anchor: middle; visibility: inherit; font-family: Roboto, sans-serif; font-size: 12px; font-weight: 200;" fill="rgb(50, 49, 63)" stroke="none" stroke-width="1px">10</text><text x="303.109375" y="0" dx="0em" dy="0.95em" style="text-anchor: middle; visibility: inherit; font-family: Roboto, sans-serif; font-size: 12px; font-weight: 200;" fill="rgb(50, 49, 63)" stroke="none" stroke-width="1px">15</text><text x="378.88671875" y="0" dx="0em" dy="0.95em" style="text-anchor: middle; visibility: inherit; font-family: Roboto, sans-serif; font-size: 12px; font-weight: 200;" fill="rgb(50, 49, 63)" stroke="none" stroke-width="1px">20</text><text x="454.6640625" y="0" dx="0em" dy="0.95em" style="text-anchor: middle; visibility: inherit; font-family: Roboto, sans-serif; font-size: 12px; font-weight: 200;" fill="rgb(50, 49, 63)" stroke="none" stroke-width="1px">25</text><text x="530.44140625" y="0" dx="0em" dy="0.95em" style="text-anchor: middle; visibility: inherit; font-family: Roboto, sans-serif; font-size: 12px; font-weight: 200;" fill="rgb(50, 49, 63)" stroke="none" stroke-width="1px">30</text><text x="606.21875" y="0" dx="0em" dy="0.95em" style="text-anchor: middle; visibility: inherit; font-family: Roboto, sans-serif; font-size: 12px; font-weight: 200;" fill="rgb(50, 49, 63)" stroke="none" stroke-width="1px">35</text><text x="681.99609375" y="0" dx="0em" dy="0.95em" style="text-anchor: middle; visibility: inherit; font-family: Roboto, sans-serif; font-size: 12px; font-weight: 200;" fill="rgb(50, 49, 63)" stroke="none" stroke-width="1px">40</text><text x="757.7734375" y="0" dx="0em" dy="0.95em" style="text-anchor: middle; visibility: inherit; font-family: Roboto, sans-serif; font-size: 12px; font-weight: 200;" fill="rgb(50, 49, 63)" stroke="none" stroke-width="1px">45</text><text x="833.55078125" y="0" dx="0em" dy="0.95em" style="text-anchor: middle; visibility: inherit; font-family: Roboto, sans-serif; font-size: 12px; font-weight: 200;" fill="rgb(50, 49, 63)" stroke="none" stroke-width="1px">50</text><text x="909.328125" y="0" dx="0em" dy="0.95em" style="text-anchor: middle; visibility: hidden; font-family: Roboto, sans-serif; font-size: 12px; font-weight: 200;" fill="rgb(50, 49, 63)" stroke="none" stroke-width="1px">55</text></g><line x1="0" y1="0" x2="909.328125" y2="0" fill="rgb(0, 0, 0)" stroke="rgb(204, 204, 204)" stroke-width="1px"></line></g></g></g></g></svg>