<svg viewBox="0 0 950.5 400" xmlns="http://www.w3.org/2000/svg"><g><g><g><g><g><line x1="41.171875" y1="349.64987659097335" x2="36.171875" y2="349.64987659097335" style="visibility: inherit;" fill="rgb(0, 0, 0)" stroke="rgb(204, 204, 204)" stroke-width="1px"></line><line x1="41.171875" y1="268.0079628652223" x2="36.171875" y2="268.0079628652223" style="visibility: inherit;" fill="rgb(0, 0, 0)" stroke="rgb(204, 204, 204)" stroke-width="1px"></line><line x1="41.171875" y1="201.30166226880974" x2="36.171875" y2="201.30166226880974" style="visibility: inherit;" fill="rgb(0, 0, 0)" stroke="rgb(204, 204, 204)" stroke-width="1px"></line><line x1="41.171875" y1="144.9022887305547" x2="36.171875" y2="144.9022887305547" style="visibility: inherit;" fill="rgb(0, 0, 0)" stroke="rgb(204, 204, 204)" stroke-width="1px"></line><line x1="41.171875" y1="96.04692915540912" x2="36.171875" y2="96.04692915540912" style="visibility: inherit;" fill="rgb(0, 0, 0)" stroke="rgb(204, 204, 204)" stroke-width="1px"></line><line x1="41.171875" y1="52.953447946646264" x2="36.171875" y2="52.953447946646264" style="visibility: inherit;" fill="rgb(0, 0, 0)" stroke="rgb(204, 204, 204)" stroke-width="1px"></line><line x1="41.171875" y1="14.405015429658063" x2="36.171875" y2="14.405015429658063" style="visibility: inherit;" fill="rgb(0, 0, 0)" stroke="rgb(204, 204, 204)" stroke-width="1px"></line></g><g transform="translate(31.171875, 0)"><text x="0" y="349.64987659097335" dx="0em" dy="0.3em" style="text-anchor: end; visibility: inherit; font-family: Roboto, sans-serif; font-size: 12px; font-weight: 200;" fill="rgb(50, 49, 63)" stroke="none" stroke-width="1px">0.4</text><text x="0" y="268.0079628652223" dx="0em" dy="0.3em" style="text-anchor: end; visibility: inherit; font-family: Roboto, sans-serif; font-size: 12px; font-weight: 200;" fill="rgb(50, 49, 63)" stroke="none" stroke-width="1px">0.5</text><text x="0" y="201.30166226880974" dx="0em" dy="0.3em" style="text-anchor: end; visibility: inherit; font-family: Roboto, sans-serif; font-size: 12px; font-weight: 200;" fill="rgb(50, 49, 63)" stroke="none" stroke-width="1px">0.6</text><text x="0" y="144.9022887305547" dx="0em" dy="0.3em" style="text-anchor: end; visibility: inherit; font-family: Roboto, sans-serif; font-size: 12px; font-weight: 200;" fill="rgb(50, 49, 63)" stroke="none" stroke-width="1px">0.7</text><text x="0" y="96.04692915540912" dx="0em" dy="0.3em" style="text-anchor: end; visibility: inherit; font-family: Roboto, sans-serif; font-size: 12px; font-weight: 200;" fill="rgb(50, 49, 63)" stroke="none" stroke-width="1px">0.8</text><text x="0" y="52.953447946646264" dx="0em" dy="0.3em" style="text-anchor: end; visibility: inherit; font-family: Roboto, sans-serif; font-size: 12px; font-weight: 200;" fill="rgb(50, 49, 63)" stroke="none" stroke-width="1px">0.9</text><text x="0" y="14.405015429658063" dx="0em" dy="0.3em" style="text-anchor: end; visibility: inherit; font-family: Roboto, sans-serif; font-size: 12px; font-weight: 200;" fill="rgb(50, 49, 63)" stroke="none" stroke-width="1px">1</text></g><line x1="41.171875" y1="0" x2="41.171875" y2="378" fill="rgb(0, 0, 0)" stroke="rgb(204, 204, 204)" stroke-width="1px"></line></g></g><g transform="translate(41, 0)" clip-path="url(#clip_0)"><clipPath id="clip_0"><rect width="909" height="378"></rect></clipPath><g><g><g><line x1="0" y1="0" x2="0" y2="378" fill="rgb(0, 0, 0)" stroke="rgb(60, 60, 60)" stroke-width="1px" opacity="0.25"></line><line x1="75.77734375" y1="0" x2="75.77734375" y2="378" fill="rgb(0, 0, 0)" stroke="rgb(60, 60, 60)" stroke-width="1px" opacity="0.25"></line><line x1="151.5546875" y1="0" x2="151.5546875" y2="378" fill="rgb(0, 0, 0)" stroke="rgb(60, 60, 60)" stroke-width="1px" opacity="0.25"></line><line x1="227.33203125" y1="0" x2="227.33203125" y2="378" fill="rgb(0, 0, 0)" stroke="rgb(60, 60, 60)" stroke-width="1px" opacity="0.25"></line><line x1="303.109375" y1="0" x2="303.109375" y2="378" fill="rgb(0, 0, 0)" stroke="rgb(60, 60, 60)" stroke-width="1px" opacity="0.25"></line><line x1="378.88671875" y1="0" x2="378.88671875" y2="378" fill="rgb(0, 0, 0)" stroke="rgb(60, 60, 60)" stroke-width="1px" opacity="0.25"></line><line x1="454.6640625" y1="0" x2="454.6640625" y2="378" fill="rgb(0, 0, 0)" stroke="rgb(60, 60, 60)" stroke-width="1px" opacity="0.25"></line><line x1="530.44140625" y1="0" x2="530.44140625" y2="378" fill="rgb(0, 0, 0)" stroke="rgb(60, 60, 60)" stroke-width="1px" opacity="0.25"></line><line x1="606.21875" y1="0" x2="606.21875" y2="378" fill="rgb(0, 0, 0)" stroke="rgb(60, 60, 60)" stroke-width="1px" opacity="0.25"></line><line x1="681.99609375" y1="0" x2="681.99609375" y2="378" fill="rgb(0, 0, 0)" stroke="rgb(60, 60, 60)" stroke-width="1px" opacity="0.25"></line><line x1="757.7734375" y1="0" x2="757.7734375" y2="378" fill="rgb(0, 0, 0)" stroke="rgb(60, 60, 60)" stroke-width="1px" opacity="0.25"></line><line x1="833.55078125" y1="0" x2="833.55078125" y2="378" fill="rgb(0, 0, 0)" stroke="rgb(60, 60, 60)" stroke-width="1px" opacity="0.25"></line><line x1="909.328125" y1="0" x2="909.328125" y2="378" fill="rgb(0, 0, 0)" stroke="rgb(60, 60, 60)" stroke-width="1px" opacity="0.25"></line></g><g><line x1="0" y1="349.64987659097335" x2="909.328125" y2="349.64987659097335" fill="rgb(0, 0, 0)" stroke="rgb(60, 60, 60)" stroke-width="1px" opacity="0.25"></line><line x1="0" y1="268.0079628652223" x2="909.328125" y2="268.0079628652223" fill="rgb(0, 0, 0)" stroke="rgb(60, 60, 60)" stroke-width="1px" opacity="0.25"></line><line x1="0" y1="201.30166226880974" x2="909.328125" y2="201.30166226880974" fill="rgb(0, 0, 0)" stroke="rgb(60, 60, 60)" stroke-width="1px" opacity="0.25"></line><line x1="0" y1="144.9022887305547" x2="909.328125" y2="144.9022887305547" fill="rgb(0, 0, 0)" stroke="rgb(60, 60, 60)" stroke-width="1px" opacity="0.25"></line><line x1="0" y1="96.04692915540912" x2="909.328125" y2="96.04692915540912" fill="rgb(0, 0, 0)" stroke="rgb(60, 60, 60)" stroke-width="1px" opacity="0.25"></line><line x1="0" y1="52.953447946646264" x2="909.328125" y2="52.953447946646264" fill="rgb(0, 0, 0)" stroke="rgb(60, 60, 60)" stroke-width="1px" opacity="0.25"></line><line x1="0" y1="14.405015429658063" x2="909.328125" y2="14.405015429658063" fill="rgb(0, 0, 0)" stroke="rgb(60, 60, 60)" stroke-width="1px" opacity="0.25"></line></g></g></g><g><g><line x1="75.77734375" y1="0" x2="75.77734375" y2="378" fill="rgb(0, 0, 0)" stroke="rgb(153, 153, 153)" stroke-width="1.5px"></line></g></g><g><g><g><g><g><path stroke="rgb(255, 112, 67)" stroke-width="2px" d="M75.77734375,91.6064095162207L90.93281250000001,82.54374770256317L106.08828125000001,76.47571377900188L121.24374999999999,72.92676578228874L136.39921875,70.94548988371018L151.5546875,69.73998067243394L166.71015624999998,66.14710353855178L181.86562500000002,65.82223938359344L197.02109375,62.696477551151744L212.17656250000002,64.74135400828334L227.33203125,61.090146304755415L242.48749999999998,61.30389858579794L257.64296874999997,60.44956352451074L272.7984375,60.236284923981536L287.95390625,60.236284923981536L303.109375,58.95924224469927L318.26484374999995,60.34290868336152L333.42031249999997,59.81012503128477L348.57578125000003,59.59721874650906L363.73125000000005,58.00438306632565L378.88671875,58.32240084574426L394.0421875,58.00438306632565L409.19765625,58.74685500010045L424.35312500000003,56.94634026198447L439.50859375,58.85304552344784L454.6640625,57.58081343441464L469.81953125000007,58.95924224469927L484.97499999999997,57.58081343441464L500.13046875000003,56.523993050989674L515.2859374999999,56.20753394813325L530.44140625,56.62951579908179L545.596875,56.102108377940816L560.75234375,55.25982003574635L575.9078125,56.418476267128035L591.06328125,56.523993050989674L606.21875,55.470192105069636L621.3742187500001,55.15466715580922L636.5296874999999,56.418476267128035L651.68515625,56.102108377940816L666.8406249999999,54.94445201650588L681.99609375,55.57543572020347L697.1515625000001,55.57543572020347L712.30703125,55.25982003574635L727.4625000000001,55.25982003574635L742.6179687499999,54.104821499977966L757.7734375,54.73435758899516L772.92890625,55.99671317727065L788.084375,54.0000000000001L803.23984375,55.15466715580922L818.3953125,55.15466715580922" style="fill: none;" fill="none"></path></g><g><path stroke="rgb(0, 119, 187)" stroke-width="2px" d="M75.77734375,91.6064095162207L90.93281250000001,81.29947722153408L106.08828125000001,75.58522491521684L121.24374999999999,70.50667936424301L136.39921875,68.42939172668008L151.5546875,66.90630228204914L166.71015624999998,66.25546409842613L181.86562500000002,62.58916579565879L197.02109375,64.74135400828334L212.17656250000002,62.58916579565879L227.33203125,63.1260396003672L242.48749999999998,60.876494069568L257.64296874999997,62.80382079088115L272.7984375,62.05310347701458L287.95390625,63.23350896200297L303.109375,59.4908120461248L318.26484374999995,59.17177749703038L333.42031249999997,59.81012503128477L348.57578125000003,57.58081343441464L363.73125000000005,56.840701621164136L378.88671875,58.53456637084282L394.0421875,56.840701621164136L409.19765625,58.85304552344784L424.35312500000003,58.95924224469927L439.50859375,57.05200941280349L454.6640625,57.05200941280349L469.81953125000007,57.05200941280349L484.97499999999997,56.418476267128035L500.13046875000003,56.418476267128035L515.2859374999999,56.418476267128035L530.44140625,56.62951579908179L545.596875,55.680709617551535L560.75234375,56.73509347272931L575.9078125,57.89843853750784L591.06328125,56.840701621164136L606.21875,55.25982003574635L621.3742187500001,55.36500314569734L636.5296874999999,55.99671317727065L651.68515625,54.6293555988549L666.8406249999999,55.57543572020347L681.99609375,56.102108377940816L697.1515625000001,56.102108377940816L712.30703125,55.89134832863103L727.4625000000001,55.25982003574635L742.6179687499999,54.73435758899516L757.7734375,55.89134832863103L772.92890625,54.73435758899516L788.084375,55.99671317727065L803.23984375,55.57543572020347L818.3953125,55.470192105069636" style="fill: none;" fill="none"></path></g><g><path stroke="rgb(187, 187, 187)" stroke-width="2px" d="M75.77734375,108.72634126397786L90.93281250000001,93.58629045030536L106.08828125000001,87.10436706040204L121.24374999999999,82.54374770256317L136.39921875,80.0594239649649L151.5546875,76.47571377900188L166.71015624999998,73.14754853885643L181.86562500000002,74.36435655673118L197.02109375,75.14081766693123L212.17656250000002,70.06836911338186L227.33203125,70.94548988371018L242.48749999999998,71.05528116068002L257.64296874999997,69.19334607626558L272.7984375,68.75660542660792L287.95390625,69.41191205810831L303.109375,67.77586617379349L318.26484374999995,66.03877506242137L333.42031249999997,66.14710353855178L348.57578125000003,66.25546409842613L363.73125000000005,65.60580669904095L378.88671875,64.84929896353934L394.0421875,66.14710353855178L409.19765625,63.66367741170214L424.35312500000003,64.09437720113237L439.50859375,65.06528446367199L454.6640625,64.09437720113237L469.81953125000007,63.34100990043702L484.97499999999997,61.517800624395285L500.13046875000003,63.0186017969847L515.2859374999999,62.58916579565879L530.44140625,62.05310347701458L545.596875,60.876494069568L560.75234375,60.98330459177841L575.9078125,62.05310347701458L591.06328125,61.838888343326296L606.21875,62.48188550593882L621.3742187500001,62.374661526314824L636.5296874999999,60.236284923981536L651.68515625,62.26744410553026L666.8406249999999,59.81012503128477L681.99609375,62.26744410553026L697.1515625000001,60.236284923981536L712.30703125,60.236284923981536L727.4625000000001,61.41083397322363L742.6179687499999,60.98330459177841L757.7734375,59.70365640222369L772.92890625,61.41083397322363L788.084375,60.66296652463872L803.23984375,61.731827791136624L818.3953125,61.62479855759897" style="fill: none;" fill="none"></path></g><g><path stroke="rgb(204, 51, 17)" stroke-width="2px" d="M75.77734375,100.06623589745142L90.93281250000001,86.87497556285676L106.08828125000001,82.99724416253436L121.24374999999999,81.07369539633896L136.39921875,78.71141248756828L151.5546875,78.59929989748609L166.71015624999998,76.36428407218125L181.86562500000002,73.47901112420391L197.02109375,74.80784682509257L212.17656250000002,75.36296669661395L227.33203125,73.58956541726289L242.48749999999998,72.92676578228874L257.64296874999997,72.37532718948987L272.7984375,70.72600611930788L287.95390625,71.38485280799564L303.109375,69.30261274620415L318.26484374999995,70.72600611930788L333.42031249999997,68.42939172668008L348.57578125000003,68.75660542660792L363.73125000000005,69.30261274620415L378.88671875,68.64750167448025L394.0421875,69.41191205810831L409.19765625,68.10249566064508L424.35312500000003,67.4495280231275L439.50859375,69.19334607626558L454.6640625,68.64750167448025L469.81953125000007,67.77586617379349L484.97499999999997,68.10249566064508L500.13046875000003,67.9935867622309L515.2859374999999,67.6670544452214L530.44140625,66.90630228204914L545.596875,67.55827506807653L560.75234375,68.10249566064508L575.9078125,66.79774881990521L591.06328125,67.12348068939733L606.21875,66.14710353855178L621.3742187500001,67.9935867622309L636.5296874999999,66.58073847069917L651.68515625,66.90630228204914L666.8406249999999,66.14710353855178L681.99609375,65.06528446367199L697.1515625000001,65.93047865104155L712.30703125,67.12348068939733L727.4625000000001,66.14710353855178L742.6179687499999,64.74135400828334L757.7734375,67.34081329115985L772.92890625,68.10249566064508L788.084375,67.34081329115985L803.23984375,66.58073847069917L818.3953125,65.4976383496531" style="fill: none;" fill="none"></path></g><g><path stroke="rgb(255, 112, 67)" stroke-width="2px" d="M75.77734375,96.16451310843443L90.93281250000001,86.30215179612858L106.08828125000001,82.65707570091001L121.24374999999999,78.37517772733936L136.39921875,75.58522491521684L151.5546875,74.80784682509257L166.71015624999998,73.47901112420391L181.86562500000002,71.27496260302284L197.02109375,70.61633902157077L212.17656250000002,70.28745860246478L227.33203125,68.64750167448025L242.48749999999998,68.42939172668008L257.64296874999997,68.21143698758415L272.7984375,68.32038549225159L287.95390625,66.47228154546427L303.109375,64.95727577573263L318.26484374999995,68.10249566064508L333.42031249999997,66.90630228204914L348.57578125000003,67.88471027304139L363.73125000000005,67.01488796136385L378.88671875,66.90630228204914L394.0421875,66.79774881990521L409.19765625,66.14710353855178L424.35312500000003,65.38950197030636L439.50859375,65.17332504618314L454.6640625,64.84929896353934L469.81953125000007,65.7140070373791L484.97499999999997,65.17332504618314L500.13046875000003,63.87896392959333L515.2859374999999,63.0186017969847L530.44140625,65.38950197030636L545.596875,65.28139754210827L560.75234375,63.44854243423055L575.9078125,60.66296652463872L591.06328125,63.55608163877633L606.21875,63.87896392959333L621.3742187500001,63.87896392959333L636.5296874999999,62.374661526314824L651.68515625,62.374661526314824L666.8406249999999,63.34100990043702L681.99609375,62.05310347701458L697.1515625000001,63.23350896200297L712.30703125,62.26744410553026L727.4625000000001,62.696477551151744L742.6179687499999,62.26744410553026L757.7734375,63.66367741170214L772.92890625,65.4976383496531L788.084375,64.30991737566397L803.23984375,62.48188550593882L818.3953125,63.44854243423055" style="fill: none;" fill="none"></path></g><g><path stroke="rgb(0, 153, 136)" stroke-width="2px" d="M75.77734375,324L90.93281250000001,287.51802667366275L106.08828125000001,268.57271516302103L121.24374999999999,255.25336413446055L136.39921875,253.62203618655403L151.5546875,243.63174031188103L166.71015624999998,241.0014764414961L181.86562500000002,234.59313038285117L197.02109375,237.0047339207805L212.17656250000002,234.9366791790625L227.33203125,229.13989130405704L242.48749999999998,230.83531118650203L257.64296874999997,221.44056108079116L272.7984375,224.43405960508943L287.95390625,227.95772734059292L303.109375,220.94400444043163L318.26484374999995,226.10776304808795L333.42031249999997,222.43566220071676L348.57578125000003,222.10368666436347L363.73125000000005,222.2696560250406L378.88671875,217.65081439934548L394.0421875,217.15937117586216L409.19765625,216.01526876738498L424.35312500000003,219.12907904005272L439.50859375,215.5260160602231L454.6640625,216.50517659150563L469.81953125000007,217.65081439934548L484.97499999999997,215.36307710342297L500.13046875000003,219.78802461226712L515.2859374999999,212.92773560127026L530.44140625,219.45840347866846L545.596875,215.5260160602231L560.75234375,213.25152274370666L575.9078125,216.6686250845291L591.06328125,217.15937117586216L606.21875,220.61334068576954L621.3742187500001,215.6890276133234L636.5296874999999,215.03745445683526L651.68515625,213.89992030927033L666.8406249999999,212.92773560127026L681.99609375,213.41348626269274L697.1515625000001,217.65081439934548L712.30703125,213.89992030927033L727.4625000000001,216.9957033502858L742.6179687499999,208.26481427759296L757.7734375,213.25152274370666L772.92890625,212.44259152329593L788.084375,207.78584695271164L803.23984375,209.38493587044616L818.3953125,216.3418010843945" style="fill: none;" fill="none"></path></g></g></g></g></g></g><g transform="translate(41, 378)" clip-path="url(#clip_1)"><clipPath id="clip_1"><rect width="909" height="22"></rect></clipPath><g><g><line x1="0" y1="0" x2="0" y2="5" style="visibility: inherit;" fill="rgb(0, 0, 0)" stroke="rgb(204, 204, 204)" stroke-width="1px"></line><line x1="75.77734375" y1="0" x2="75.77734375" y2="5" style="visibility: inherit;" fill="rgb(0, 0, 0)" stroke="rgb(204, 204, 204)" stroke-width="1px"></line><line x1="151.5546875" y1="0" x2="151.5546875" y2="5" style="visibility: inherit;" fill="rgb(0, 0, 0)" stroke="rgb(204, 204, 204)" stroke-width="1px"></line><line x1="227.33203125" y1="0" x2="227.33203125" y2="5" style="visibility: inherit;" fill="rgb(0, 0, 0)" stroke="rgb(204, 204, 204)" stroke-width="1px"></line><line x1="303.109375" y1="0" x2="303.109375" y2="5" style="visibility: inherit;" fill="rgb(0, 0, 0)" stroke="rgb(204, 204, 204)" stroke-width="1px"></line><line x1="378.88671875" y1="0" x2="378.88671875" y2="5" style="visibility: inherit;" fill="rgb(0, 0, 0)" stroke="rgb(204, 204, 204)" stroke-width="1px"></line><line x1="454.6640625" y1="0" x2="454.6640625" y2="5" style="visibility: inherit;" fill="rgb(0, 0, 0)" stroke="rgb(204, 204, 204)" stroke-width="1px"></line><line x1="530.44140625" y1="0" x2="530.44140625" y2="5" style="visibility: inherit;" fill="rgb(0, 0, 0)" stroke="rgb(204, 204, 204)" stroke-width="1px"></line><line x1="606.21875" y1="0" x2="606.21875" y2="5" style="visibility: inherit;" fill="rgb(0, 0, 0)" stroke="rgb(204, 204, 204)" stroke-width="1px"></line><line x1="681.99609375" y1="0" x2="681.99609375" y2="5" style="visibility: inherit;" fill="rgb(0, 0, 0)" stroke="rgb(204, 204, 204)" stroke-width="1px"></line><line x1="757.7734375" y1="0" x2="757.7734375" y2="5" style="visibility: inherit;" fill="rgb(0, 0, 0)" stroke="rgb(204, 204, 204)" stroke-width="1px"></line><line x1="833.55078125" y1="0" x2="833.55078125" y2="5" style="visibility: inherit;" fill="rgb(0, 0, 0)" stroke="rgb(204, 204, 204)" stroke-width="1px"></line><line x1="909.328125" y1="0" x2="909.328125" y2="5" style="visibility: inherit;" fill="rgb(0, 0, 0)" stroke="rgb(204, 204, 204)" stroke-width="1px"></line></g><g transform="translate(0, 8)"><text x="0" y="0" dx="0em" dy="0.95em" style="text-anchor: middle; visibility: hidden; font-family: Roboto, sans-serif; font-size: 12px; font-weight: 200;" fill="rgb(50, 49, 63)" stroke="none" stroke-width="1px">-5</text><text x="75.77734375" y="0" dx="0em" dy="0.95em" style="text-anchor: middle; visibility: inherit; font-family: Roboto, sans-serif; font-size: 12px; font-weight: 200;" fill="rgb(50, 49, 63)" stroke="none" stroke-width="1px">0</text><text x="151.5546875" y="0" dx="0em" dy="0.95em" style="text-anchor: middle; visibility: inherit; font-family: Roboto, sans-serif; font-size: 12px; font-weight: 200;" fill="rgb(50, 49, 63)" stroke="none" stroke-width="1px">5</text><text x="227.33203125" y="0" dx="0em" dy="0.95em" style="text-anchor: middle; visibility: inherit; font-family: Roboto, sans-serif; font-size: 12px; font-weight: 200;" fill="rgb(50, 49, 63)" stroke="none" stroke-width="1px">10</text><text x="303.109375" y="0" dx="0em" dy="0.95em" style="text-anchor: middle; visibility: inherit; font-family: Roboto, sans-serif; font-size: 12px; font-weight: 200;" fill="rgb(50, 49, 63)" stroke="none" stroke-width="1px">15</text><text x="378.88671875" y="0" dx="0em" dy="0.95em" style="text-anchor: middle; visibility: inherit; font-family: Roboto, sans-serif; font-size: 12px; font-weight: 200;" fill="rgb(50, 49, 63)" stroke="none" stroke-width="1px">20</text><text x="454.6640625" y="0" dx="0em" dy="0.95em" style="text-anchor: middle; visibility: inherit; font-family: Roboto, sans-serif; font-size: 12px; font-weight: 200;" fill="rgb(50, 49, 63)" stroke="none" stroke-width="1px">25</text><text x="530.44140625" y="0" dx="0em" dy="0.95em" style="text-anchor: middle; visibility: inherit; font-family: Roboto, sans-serif; font-size: 12px; font-weight: 200;" fill="rgb(50, 49, 63)" stroke="none" stroke-width="1px">30</text><text x="606.21875" y="0" dx="0em" dy="0.95em" style="text-anchor: middle; visibility: inherit; font-family: Roboto, sans-serif; font-size: 12px; font-weight: 200;" fill="rgb(50, 49, 63)" stroke="none" stroke-width="1px">35</text><text x="681.99609375" y="0" dx="0em" dy="0.95em" style="text-anchor: middle; visibility: inherit; font-family: Roboto, sans-serif; font-size: 12px; font-weight: 200;" fill="rgb(50, 49, 63)" stroke="none" stroke-width="1px">40</text><text x="757.7734375" y="0" dx="0em" dy="0.95em" style="text-anchor: middle; visibility: inherit; font-family: Roboto, sans-serif; font-size: 12px; font-weight: 200;" fill="rgb(50, 49, 63)" stroke="none" stroke-width="1px">45</text><text x="833.55078125" y="0" dx="0em" dy="0.95em" style="text-anchor: middle; visibility: inherit; font-family: Roboto, sans-serif; font-size: 12px; font-weight: 200;" fill="rgb(50, 49, 63)" stroke="none" stroke-width="1px">50</text><text x="909.328125" y="0" dx="0em" dy="0.95em" style="text-anchor: middle; visibility: hidden; font-family: Roboto, sans-serif; font-size: 12px; font-weight: 200;" fill="rgb(50, 49, 63)" stroke="none" stroke-width="1px">55</text></g><line x1="0" y1="0" x2="909.328125" y2="0" fill="rgb(0, 0, 0)" stroke="rgb(204, 204, 204)" stroke-width="1px"></line></g></g></g></g></svg>