<svg viewBox="0 0 950.5 400" xmlns="http://www.w3.org/2000/svg"><g><g><g><g><g><line x1="50" y1="378" x2="45" y2="378" style="visibility: inherit;" fill="rgb(0, 0, 0)" stroke="rgb(204, 204, 204)" stroke-width="1px"></line><line x1="50" y1="343.6363636363636" x2="45" y2="343.6363636363636" style="visibility: inherit;" fill="rgb(0, 0, 0)" stroke="rgb(204, 204, 204)" stroke-width="1px"></line><line x1="50" y1="309.2727272727276" x2="45" y2="309.2727272727276" style="visibility: inherit;" fill="rgb(0, 0, 0)" stroke="rgb(204, 204, 204)" stroke-width="1px"></line><line x1="50" y1="274.9090909090912" x2="45" y2="274.9090909090912" style="visibility: inherit;" fill="rgb(0, 0, 0)" stroke="rgb(204, 204, 204)" stroke-width="1px"></line><line x1="50" y1="240.5454545454548" x2="45" y2="240.5454545454548" style="visibility: inherit;" fill="rgb(0, 0, 0)" stroke="rgb(204, 204, 204)" stroke-width="1px"></line><line x1="50" y1="206.1818181818184" x2="45" y2="206.1818181818184" style="visibility: inherit;" fill="rgb(0, 0, 0)" stroke="rgb(204, 204, 204)" stroke-width="1px"></line><line x1="50" y1="171.818181818182" x2="45" y2="171.818181818182" style="visibility: inherit;" fill="rgb(0, 0, 0)" stroke="rgb(204, 204, 204)" stroke-width="1px"></line><line x1="50" y1="137.45454545454558" x2="45" y2="137.45454545454558" style="visibility: inherit;" fill="rgb(0, 0, 0)" stroke="rgb(204, 204, 204)" stroke-width="1px"></line><line x1="50" y1="103.09090909090924" x2="45" y2="103.09090909090924" style="visibility: inherit;" fill="rgb(0, 0, 0)" stroke="rgb(204, 204, 204)" stroke-width="1px"></line><line x1="50" y1="68.7272727272728" x2="45" y2="68.7272727272728" style="visibility: inherit;" fill="rgb(0, 0, 0)" stroke="rgb(204, 204, 204)" stroke-width="1px"></line><line x1="50" y1="34.36363636363643" x2="45" y2="34.36363636363643" style="visibility: inherit;" fill="rgb(0, 0, 0)" stroke="rgb(204, 204, 204)" stroke-width="1px"></line><line x1="50" y1="0" x2="45" y2="0" style="visibility: inherit;" fill="rgb(0, 0, 0)" stroke="rgb(204, 204, 204)" stroke-width="1px"></line></g><g transform="translate(40, 0)"><text x="0" y="378" dx="0em" dy="0.3em" style="text-anchor: end; visibility: hidden; font-family: &quot;Helvetica Neue&quot;, sans-serif; font-size: 12px; font-weight: 200;" fill="rgb(50, 49, 63)" stroke="none" stroke-width="1px">0.8</text><text x="0" y="343.6363636363636" dx="0em" dy="0.3em" style="text-anchor: end; visibility: inherit; font-family: &quot;Helvetica Neue&quot;, sans-serif; font-size: 12px; font-weight: 200;" fill="rgb(50, 49, 63)" stroke="none" stroke-width="1px">0.81</text><text x="0" y="309.2727272727276" dx="0em" dy="0.3em" style="text-anchor: end; visibility: inherit; font-family: &quot;Helvetica Neue&quot;, sans-serif; font-size: 12px; font-weight: 200;" fill="rgb(50, 49, 63)" stroke="none" stroke-width="1px">0.82</text><text x="0" y="274.9090909090912" dx="0em" dy="0.3em" style="text-anchor: end; visibility: inherit; font-family: &quot;Helvetica Neue&quot;, sans-serif; font-size: 12px; font-weight: 200;" fill="rgb(50, 49, 63)" stroke="none" stroke-width="1px">0.83</text><text x="0" y="240.5454545454548" dx="0em" dy="0.3em" style="text-anchor: end; visibility: inherit; font-family: &quot;Helvetica Neue&quot;, sans-serif; font-size: 12px; font-weight: 200;" fill="rgb(50, 49, 63)" stroke="none" stroke-width="1px">0.84</text><text x="0" y="206.1818181818184" dx="0em" dy="0.3em" style="text-anchor: end; visibility: inherit; font-family: &quot;Helvetica Neue&quot;, sans-serif; font-size: 12px; font-weight: 200;" fill="rgb(50, 49, 63)" stroke="none" stroke-width="1px">0.85</text><text x="0" y="171.818181818182" dx="0em" dy="0.3em" style="text-anchor: end; visibility: inherit; font-family: &quot;Helvetica Neue&quot;, sans-serif; font-size: 12px; font-weight: 200;" fill="rgb(50, 49, 63)" stroke="none" stroke-width="1px">0.86</text><text x="0" y="137.45454545454558" dx="0em" dy="0.3em" style="text-anchor: end; visibility: inherit; font-family: &quot;Helvetica Neue&quot;, sans-serif; font-size: 12px; font-weight: 200;" fill="rgb(50, 49, 63)" stroke="none" stroke-width="1px">0.87</text><text x="0" y="103.09090909090924" dx="0em" dy="0.3em" style="text-anchor: end; visibility: inherit; font-family: &quot;Helvetica Neue&quot;, sans-serif; font-size: 12px; font-weight: 200;" fill="rgb(50, 49, 63)" stroke="none" stroke-width="1px">0.88</text><text x="0" y="68.7272727272728" dx="0em" dy="0.3em" style="text-anchor: end; visibility: inherit; font-family: &quot;Helvetica Neue&quot;, sans-serif; font-size: 12px; font-weight: 200;" fill="rgb(50, 49, 63)" stroke="none" stroke-width="1px">0.89</text><text x="0" y="34.36363636363643" dx="0em" dy="0.3em" style="text-anchor: end; visibility: inherit; font-family: &quot;Helvetica Neue&quot;, sans-serif; font-size: 12px; font-weight: 200;" fill="rgb(50, 49, 63)" stroke="none" stroke-width="1px">0.9</text><text x="0" y="0" dx="0em" dy="0.3em" style="text-anchor: end; visibility: hidden; font-family: &quot;Helvetica Neue&quot;, sans-serif; font-size: 12px; font-weight: 200;" fill="rgb(50, 49, 63)" stroke="none" stroke-width="1px">0.91</text></g><line x1="50" y1="0" x2="50" y2="378" fill="rgb(0, 0, 0)" stroke="rgb(204, 204, 204)" stroke-width="1px"></line></g></g><g transform="translate(50, 0)" clip-path="url(#clip_0)"><clipPath id="clip_0"><rect width="900" height="378"></rect></clipPath><g><g><g><line x1="0" y1="0" x2="0" y2="378" fill="rgb(0, 0, 0)" stroke="rgb(60, 60, 60)" stroke-width="1px" opacity="0.25"></line><line x1="75.04166666666666" y1="0" x2="75.04166666666666" y2="378" fill="rgb(0, 0, 0)" stroke="rgb(60, 60, 60)" stroke-width="1px" opacity="0.25"></line><line x1="150.08333333333331" y1="0" x2="150.08333333333331" y2="378" fill="rgb(0, 0, 0)" stroke="rgb(60, 60, 60)" stroke-width="1px" opacity="0.25"></line><line x1="225.125" y1="0" x2="225.125" y2="378" fill="rgb(0, 0, 0)" stroke="rgb(60, 60, 60)" stroke-width="1px" opacity="0.25"></line><line x1="300.16666666666663" y1="0" x2="300.16666666666663" y2="378" fill="rgb(0, 0, 0)" stroke="rgb(60, 60, 60)" stroke-width="1px" opacity="0.25"></line><line x1="375.20833333333337" y1="0" x2="375.20833333333337" y2="378" fill="rgb(0, 0, 0)" stroke="rgb(60, 60, 60)" stroke-width="1px" opacity="0.25"></line><line x1="450.25" y1="0" x2="450.25" y2="378" fill="rgb(0, 0, 0)" stroke="rgb(60, 60, 60)" stroke-width="1px" opacity="0.25"></line><line x1="525.2916666666667" y1="0" x2="525.2916666666667" y2="378" fill="rgb(0, 0, 0)" stroke="rgb(60, 60, 60)" stroke-width="1px" opacity="0.25"></line><line x1="600.3333333333333" y1="0" x2="600.3333333333333" y2="378" fill="rgb(0, 0, 0)" stroke="rgb(60, 60, 60)" stroke-width="1px" opacity="0.25"></line><line x1="675.375" y1="0" x2="675.375" y2="378" fill="rgb(0, 0, 0)" stroke="rgb(60, 60, 60)" stroke-width="1px" opacity="0.25"></line><line x1="750.4166666666667" y1="0" x2="750.4166666666667" y2="378" fill="rgb(0, 0, 0)" stroke="rgb(60, 60, 60)" stroke-width="1px" opacity="0.25"></line><line x1="825.4583333333333" y1="0" x2="825.4583333333333" y2="378" fill="rgb(0, 0, 0)" stroke="rgb(60, 60, 60)" stroke-width="1px" opacity="0.25"></line><line x1="900.5" y1="0" x2="900.5" y2="378" fill="rgb(0, 0, 0)" stroke="rgb(60, 60, 60)" stroke-width="1px" opacity="0.25"></line></g><g><line x1="0" y1="378" x2="900.5" y2="378" fill="rgb(0, 0, 0)" stroke="rgb(60, 60, 60)" stroke-width="1px" opacity="0.25"></line><line x1="0" y1="343.6363636363636" x2="900.5" y2="343.6363636363636" fill="rgb(0, 0, 0)" stroke="rgb(60, 60, 60)" stroke-width="1px" opacity="0.25"></line><line x1="0" y1="309.2727272727276" x2="900.5" y2="309.2727272727276" fill="rgb(0, 0, 0)" stroke="rgb(60, 60, 60)" stroke-width="1px" opacity="0.25"></line><line x1="0" y1="274.9090909090912" x2="900.5" y2="274.9090909090912" fill="rgb(0, 0, 0)" stroke="rgb(60, 60, 60)" stroke-width="1px" opacity="0.25"></line><line x1="0" y1="240.5454545454548" x2="900.5" y2="240.5454545454548" fill="rgb(0, 0, 0)" stroke="rgb(60, 60, 60)" stroke-width="1px" opacity="0.25"></line><line x1="0" y1="206.1818181818184" x2="900.5" y2="206.1818181818184" fill="rgb(0, 0, 0)" stroke="rgb(60, 60, 60)" stroke-width="1px" opacity="0.25"></line><line x1="0" y1="171.818181818182" x2="900.5" y2="171.818181818182" fill="rgb(0, 0, 0)" stroke="rgb(60, 60, 60)" stroke-width="1px" opacity="0.25"></line><line x1="0" y1="137.45454545454558" x2="900.5" y2="137.45454545454558" fill="rgb(0, 0, 0)" stroke="rgb(60, 60, 60)" stroke-width="1px" opacity="0.25"></line><line x1="0" y1="103.09090909090924" x2="900.5" y2="103.09090909090924" fill="rgb(0, 0, 0)" stroke="rgb(60, 60, 60)" stroke-width="1px" opacity="0.25"></line><line x1="0" y1="68.7272727272728" x2="900.5" y2="68.7272727272728" fill="rgb(0, 0, 0)" stroke="rgb(60, 60, 60)" stroke-width="1px" opacity="0.25"></line><line x1="0" y1="34.36363636363643" x2="900.5" y2="34.36363636363643" fill="rgb(0, 0, 0)" stroke="rgb(60, 60, 60)" stroke-width="1px" opacity="0.25"></line><line x1="0" y1="0" x2="900.5" y2="0" fill="rgb(0, 0, 0)" stroke="rgb(60, 60, 60)" stroke-width="1px" opacity="0.25"></line></g></g></g><g><g><line x1="0" y1="3127.0909090909095" x2="900.5" y2="3127.0909090909095" fill="rgb(0, 0, 0)" stroke="rgb(153, 153, 153)" stroke-width="1.5px"></line></g></g><g><g><line x1="75.04166666666666" y1="0" x2="75.04166666666666" y2="378" fill="rgb(0, 0, 0)" stroke="rgb(153, 153, 153)" stroke-width="1.5px"></line></g></g><g><g><g><g><g><path stroke="rgb(255, 112, 67)" stroke-width="2px" d="M75.04166666666666,344.4314792372965L90.05000000000001,274.6441069949758L105.05833333333334,226.94139029762974L120.06666666666666,198.67312132228517L135.075,182.7720792076806L150.08333333333331,173.0548553466798L165.09166666666667,143.90318376367756L180.10000000000002,141.2531807639383L195.10833333333335,115.63491478833299L210.11666666666667,132.4191546873614L225.125,102.38428531993532L240.13333333333333,104.15088571201682L255.14166666666665,97.08386967398917L270.15,95.31706445867377L285.1583333333333,95.31706445867377L300.16666666666663,84.71643799001532L315.17499999999995,96.2004670663315L330.18333333333334,91.78365885127687L345.19166666666666,90.01685363596147L360.20000000000005,76.76601934432995L375.20833333333337,79.41622716730302L390.2166666666667,76.76601934432995L405.225,82.94983759793382L420.23333333333335,67.9321980909869L435.2416666666667,83.8332402055915L450.25,73.23261373693305L465.2583333333334,84.71643799001532L480.26666666666665,73.23261373693305L495.27500000000003,64.39879248359L510.2833333333333,61.74858466061693L525.2916666666667,65.28199026801383L540.3,60.8651820529592L555.3083333333334,53.79816601493155L570.3166666666666,63.51538987593233L585.325,64.39879248359L600.3333333333333,55.56476640701305L615.3416666666667,52.91476340727388L630.3499999999999,63.51538987593233L645.3583333333333,60.8651820529592L660.3666666666667,51.14795819195848L675.375,56.448169014670725L690.3833333333333,56.448169014670725L705.3916666666667,53.79816601493155L720.4000000000001,53.79816601493155L735.4083333333333,44.08094215393078L750.4166666666667,49.38115297664302L765.425,59.98177944530147L780.4333333333334,43.197539546273106L795.4416666666666,52.91476340727388L810.45,52.91476340727388" style="fill: none;" fill="none"></path></g><g><path stroke="rgb(0, 119, 187)" stroke-width="2px" d="M75.04166666666666,454.8543473157017L90.05000000000001,366.51592995903724L105.05833333333334,302.9123759703204L120.06666666666666,276.4109122102912L135.075,242.8422275890005L150.08333333333331,216.3407638289713L165.09166666666667,201.3231243220244L180.10000000000002,183.65548181533825L195.10833333333335,152.73700501702064L210.11666666666667,152.73700501702064L225.125,149.2035994096237L240.13333333333333,145.66998897899293L255.14166666666665,140.36977815628063L270.15,134.18595990267679L285.1583333333333,128.0023464723068L300.16666666666663,125.35213864933371L315.17499999999995,133.3025572950191L330.18333333333334,112.10150918093609L345.19166666666666,107.68449614264762L360.20000000000005,91.78365885127687L375.20833333333337,93.55046406659227L390.2166666666667,77.64942195198762L405.225,82.0664349902761L420.23333333333335,83.8332402055915L435.2416666666667,92.66706145893454L450.25,78.53282455964535L465.2583333333334,74.9992141290146L480.26666666666665,71.46580852161765L495.27500000000003,89.1334510283038L510.2833333333333,74.9992141290146L525.2916666666667,78.53282455964535L540.3,64.39879248359L555.3083333333334,72.34921112927537L570.3166666666666,60.8651820529592L585.325,74.11601634459078L600.3333333333333,61.74858466061693L615.3416666666667,54.681568622589225L630.3499999999999,59.98177944530147L645.3583333333333,67.04879548332917L660.3666666666667,67.9321980909869L675.375,67.04879548332917L690.3833333333333,59.098376837643855L705.3916666666667,59.098376837643855L720.4000000000001,66.1653928756715L735.4083333333333,74.11601634459078L750.4166666666667,57.331571622328454L765.425,58.214974229986126L780.4333333333334,53.79816601493155L795.4416666666666,55.56476640701305L810.45,53.79816601493155" style="fill: none;" fill="none"></path></g><g><path stroke="rgb(187, 187, 187)" stroke-width="2px" d="M75.04166666666666,347.9648848446934L90.05000000000001,242.8422275890005L105.05833333333334,204.85673475265514L120.06666666666666,174.8216605619952L135.075,159.80422587828215L150.08333333333331,148.320196801966L165.09166666666667,128.0023464723068L180.10000000000002,108.56789875030529L195.10833333333335,104.15088571201682L210.11666666666667,99.73407749696224L225.125,97.08386967398917L240.13333333333333,80.29962977496075L255.14166666666665,82.94983759793382L270.15,82.94983759793382L285.1583333333333,76.76601934432995L300.16666666666663,79.41622716730302L315.17499999999995,86.48324320533072L330.18333333333334,68.81560069864457L345.19166666666666,69.6990033063023L360.20000000000005,72.34921112927537L375.20833333333337,68.81560069864457L390.2166666666667,68.81560069864457L405.225,59.98177944530147L420.23333333333335,60.8651820529592L435.2416666666667,71.46580852161765L450.25,57.331571622328454L465.2583333333334,59.098376837643855L480.26666666666665,50.26455558430075L495.27500000000003,48.49775036898541L510.2833333333333,51.14795819195848L525.2916666666667,37.01372129266923L540.3,46.73094515367001L555.3083333333334,48.49775036898541L570.3166666666666,38.780526507984575L585.325,36.13031868501156L600.3333333333333,44.08094215393078L615.3416666666667,48.49775036898541L630.3499999999999,38.780526507984575L645.3583333333333,45.84754254601228L660.3666666666667,46.73094515367001L675.375,49.38115297664302L690.3833333333333,34.36371829293L705.3916666666667,43.197539546273106L720.4000000000001,37.01372129266923L735.4083333333333,44.96434476158845L750.4166666666667,42.314136938615434L765.425,40.547331723299976L780.4333333333334,37.89712390032696L795.4416666666666,46.73094515367001L810.45,43.197539546273106" style="fill: none;" fill="none"></path></g></g></g></g></g></g><g transform="translate(50, 378)" clip-path="url(#clip_1)"><clipPath id="clip_1"><rect width="900" height="22"></rect></clipPath><g><g><line x1="0" y1="0" x2="0" y2="5" style="visibility: inherit;" fill="rgb(0, 0, 0)" stroke="rgb(204, 204, 204)" stroke-width="1px"></line><line x1="75.04166666666666" y1="0" x2="75.04166666666666" y2="5" style="visibility: inherit;" fill="rgb(0, 0, 0)" stroke="rgb(204, 204, 204)" stroke-width="1px"></line><line x1="150.08333333333331" y1="0" x2="150.08333333333331" y2="5" style="visibility: inherit;" fill="rgb(0, 0, 0)" stroke="rgb(204, 204, 204)" stroke-width="1px"></line><line x1="225.125" y1="0" x2="225.125" y2="5" style="visibility: inherit;" fill="rgb(0, 0, 0)" stroke="rgb(204, 204, 204)" stroke-width="1px"></line><line x1="300.16666666666663" y1="0" x2="300.16666666666663" y2="5" style="visibility: inherit;" fill="rgb(0, 0, 0)" stroke="rgb(204, 204, 204)" stroke-width="1px"></line><line x1="375.20833333333337" y1="0" x2="375.20833333333337" y2="5" style="visibility: inherit;" fill="rgb(0, 0, 0)" stroke="rgb(204, 204, 204)" stroke-width="1px"></line><line x1="450.25" y1="0" x2="450.25" y2="5" style="visibility: inherit;" fill="rgb(0, 0, 0)" stroke="rgb(204, 204, 204)" stroke-width="1px"></line><line x1="525.2916666666667" y1="0" x2="525.2916666666667" y2="5" style="visibility: inherit;" fill="rgb(0, 0, 0)" stroke="rgb(204, 204, 204)" stroke-width="1px"></line><line x1="600.3333333333333" y1="0" x2="600.3333333333333" y2="5" style="visibility: inherit;" fill="rgb(0, 0, 0)" stroke="rgb(204, 204, 204)" stroke-width="1px"></line><line x1="675.375" y1="0" x2="675.375" y2="5" style="visibility: inherit;" fill="rgb(0, 0, 0)" stroke="rgb(204, 204, 204)" stroke-width="1px"></line><line x1="750.4166666666667" y1="0" x2="750.4166666666667" y2="5" style="visibility: inherit;" fill="rgb(0, 0, 0)" stroke="rgb(204, 204, 204)" stroke-width="1px"></line><line x1="825.4583333333333" y1="0" x2="825.4583333333333" y2="5" style="visibility: inherit;" fill="rgb(0, 0, 0)" stroke="rgb(204, 204, 204)" stroke-width="1px"></line><line x1="900.5" y1="0" x2="900.5" y2="5" style="visibility: inherit;" fill="rgb(0, 0, 0)" stroke="rgb(204, 204, 204)" stroke-width="1px"></line></g><g transform="translate(0, 8)"><text x="0" y="0" dx="0em" dy="0.95em" style="text-anchor: middle; visibility: hidden; font-family: &quot;Helvetica Neue&quot;, sans-serif; font-size: 12px; font-weight: 200;" fill="rgb(50, 49, 63)" stroke="none" stroke-width="1px">-5</text><text x="75.04166666666666" y="0" dx="0em" dy="0.95em" style="text-anchor: middle; visibility: inherit; font-family: &quot;Helvetica Neue&quot;, sans-serif; font-size: 12px; font-weight: 200;" fill="rgb(50, 49, 63)" stroke="none" stroke-width="1px">0</text><text x="150.08333333333331" y="0" dx="0em" dy="0.95em" style="text-anchor: middle; visibility: inherit; font-family: &quot;Helvetica Neue&quot;, sans-serif; font-size: 12px; font-weight: 200;" fill="rgb(50, 49, 63)" stroke="none" stroke-width="1px">5</text><text x="225.125" y="0" dx="0em" dy="0.95em" style="text-anchor: middle; visibility: inherit; font-family: &quot;Helvetica Neue&quot;, sans-serif; font-size: 12px; font-weight: 200;" fill="rgb(50, 49, 63)" stroke="none" stroke-width="1px">10</text><text x="300.16666666666663" y="0" dx="0em" dy="0.95em" style="text-anchor: middle; visibility: inherit; font-family: &quot;Helvetica Neue&quot;, sans-serif; font-size: 12px; font-weight: 200;" fill="rgb(50, 49, 63)" stroke="none" stroke-width="1px">15</text><text x="375.20833333333337" y="0" dx="0em" dy="0.95em" style="text-anchor: middle; visibility: inherit; font-family: &quot;Helvetica Neue&quot;, sans-serif; font-size: 12px; font-weight: 200;" fill="rgb(50, 49, 63)" stroke="none" stroke-width="1px">20</text><text x="450.25" y="0" dx="0em" dy="0.95em" style="text-anchor: middle; visibility: inherit; font-family: &quot;Helvetica Neue&quot;, sans-serif; font-size: 12px; font-weight: 200;" fill="rgb(50, 49, 63)" stroke="none" stroke-width="1px">25</text><text x="525.2916666666667" y="0" dx="0em" dy="0.95em" style="text-anchor: middle; visibility: inherit; font-family: &quot;Helvetica Neue&quot;, sans-serif; font-size: 12px; font-weight: 200;" fill="rgb(50, 49, 63)" stroke="none" stroke-width="1px">30</text><text x="600.3333333333333" y="0" dx="0em" dy="0.95em" style="text-anchor: middle; visibility: inherit; font-family: &quot;Helvetica Neue&quot;, sans-serif; font-size: 12px; font-weight: 200;" fill="rgb(50, 49, 63)" stroke="none" stroke-width="1px">35</text><text x="675.375" y="0" dx="0em" dy="0.95em" style="text-anchor: middle; visibility: inherit; font-family: &quot;Helvetica Neue&quot;, sans-serif; font-size: 12px; font-weight: 200;" fill="rgb(50, 49, 63)" stroke="none" stroke-width="1px">40</text><text x="750.4166666666667" y="0" dx="0em" dy="0.95em" style="text-anchor: middle; visibility: inherit; font-family: &quot;Helvetica Neue&quot;, sans-serif; font-size: 12px; font-weight: 200;" fill="rgb(50, 49, 63)" stroke="none" stroke-width="1px">45</text><text x="825.4583333333333" y="0" dx="0em" dy="0.95em" style="text-anchor: middle; visibility: inherit; font-family: &quot;Helvetica Neue&quot;, sans-serif; font-size: 12px; font-weight: 200;" fill="rgb(50, 49, 63)" stroke="none" stroke-width="1px">50</text><text x="900.5" y="0" dx="0em" dy="0.95em" style="text-anchor: middle; visibility: hidden; font-family: &quot;Helvetica Neue&quot;, sans-serif; font-size: 12px; font-weight: 200;" fill="rgb(50, 49, 63)" stroke="none" stroke-width="1px">55</text></g><line x1="0" y1="0" x2="900.5" y2="0" fill="rgb(0, 0, 0)" stroke="rgb(204, 204, 204)" stroke-width="1px"></line></g></g></g></g></svg>