<svg viewBox="0 0 950.5 400" xmlns="http://www.w3.org/2000/svg"><g><g><g><g><g><line x1="41.171875" y1="299.2475414840798" x2="36.171875" y2="299.2475414840798" style="visibility: inherit;" fill="rgb(0, 0, 0)" stroke="rgb(204, 204, 204)" stroke-width="1px"></line><line x1="41.171875" y1="203.41970042279243" x2="36.171875" y2="203.41970042279243" style="visibility: inherit;" fill="rgb(0, 0, 0)" stroke="rgb(204, 204, 204)" stroke-width="1px"></line><line x1="41.171875" y1="135.42876516397644" x2="36.171875" y2="135.42876516397644" style="visibility: inherit;" fill="rgb(0, 0, 0)" stroke="rgb(204, 204, 204)" stroke-width="1px"></line><line x1="41.171875" y1="82.69089859646661" x2="36.171875" y2="82.69089859646661" style="visibility: inherit;" fill="rgb(0, 0, 0)" stroke="rgb(204, 204, 204)" stroke-width="1px"></line><line x1="41.171875" y1="39.600924102689056" x2="36.171875" y2="39.600924102689056" style="visibility: inherit;" fill="rgb(0, 0, 0)" stroke="rgb(204, 204, 204)" stroke-width="1px"></line><line x1="41.171875" y1="3.168869776487312" x2="36.171875" y2="3.168869776487312" style="visibility: inherit;" fill="rgb(0, 0, 0)" stroke="rgb(204, 204, 204)" stroke-width="1px"></line></g><g transform="translate(31.171875, 0)"><text x="0" y="299.2475414840798" dx="0em" dy="0.3em" style="text-anchor: end; visibility: inherit; font-family: Roboto, sans-serif; font-size: 12px; font-weight: 200;" fill="rgb(50, 49, 63)" stroke="none" stroke-width="1px">0.2</text><text x="0" y="203.41970042279243" dx="0em" dy="0.3em" style="text-anchor: end; visibility: inherit; font-family: Roboto, sans-serif; font-size: 12px; font-weight: 200;" fill="rgb(50, 49, 63)" stroke="none" stroke-width="1px">0.3</text><text x="0" y="135.42876516397644" dx="0em" dy="0.3em" style="text-anchor: end; visibility: inherit; font-family: Roboto, sans-serif; font-size: 12px; font-weight: 200;" fill="rgb(50, 49, 63)" stroke="none" stroke-width="1px">0.4</text><text x="0" y="82.69089859646661" dx="0em" dy="0.3em" style="text-anchor: end; visibility: inherit; font-family: Roboto, sans-serif; font-size: 12px; font-weight: 200;" fill="rgb(50, 49, 63)" stroke="none" stroke-width="1px">0.5</text><text x="0" y="39.600924102689056" dx="0em" dy="0.3em" style="text-anchor: end; visibility: inherit; font-family: Roboto, sans-serif; font-size: 12px; font-weight: 200;" fill="rgb(50, 49, 63)" stroke="none" stroke-width="1px">0.6</text><text x="0" y="3.168869776487312" dx="0em" dy="0.3em" style="text-anchor: end; visibility: hidden; font-family: Roboto, sans-serif; font-size: 12px; font-weight: 200;" fill="rgb(50, 49, 63)" stroke="none" stroke-width="1px">0.7</text></g><line x1="41.171875" y1="0" x2="41.171875" y2="378" fill="rgb(0, 0, 0)" stroke="rgb(204, 204, 204)" stroke-width="1px"></line></g></g><g transform="translate(41, 0)" clip-path="url(#clip_0)"><clipPath id="clip_0"><rect width="909" height="378"></rect></clipPath><g><g><g><line x1="0" y1="0" x2="0" y2="378" fill="rgb(0, 0, 0)" stroke="rgb(60, 60, 60)" stroke-width="1px" opacity="0.25"></line><line x1="75.77734375" y1="0" x2="75.77734375" y2="378" fill="rgb(0, 0, 0)" stroke="rgb(60, 60, 60)" stroke-width="1px" opacity="0.25"></line><line x1="151.5546875" y1="0" x2="151.5546875" y2="378" fill="rgb(0, 0, 0)" stroke="rgb(60, 60, 60)" stroke-width="1px" opacity="0.25"></line><line x1="227.33203125" y1="0" x2="227.33203125" y2="378" fill="rgb(0, 0, 0)" stroke="rgb(60, 60, 60)" stroke-width="1px" opacity="0.25"></line><line x1="303.109375" y1="0" x2="303.109375" y2="378" fill="rgb(0, 0, 0)" stroke="rgb(60, 60, 60)" stroke-width="1px" opacity="0.25"></line><line x1="378.88671875" y1="0" x2="378.88671875" y2="378" fill="rgb(0, 0, 0)" stroke="rgb(60, 60, 60)" stroke-width="1px" opacity="0.25"></line><line x1="454.6640625" y1="0" x2="454.6640625" y2="378" fill="rgb(0, 0, 0)" stroke="rgb(60, 60, 60)" stroke-width="1px" opacity="0.25"></line><line x1="530.44140625" y1="0" x2="530.44140625" y2="378" fill="rgb(0, 0, 0)" stroke="rgb(60, 60, 60)" stroke-width="1px" opacity="0.25"></line><line x1="606.21875" y1="0" x2="606.21875" y2="378" fill="rgb(0, 0, 0)" stroke="rgb(60, 60, 60)" stroke-width="1px" opacity="0.25"></line><line x1="681.99609375" y1="0" x2="681.99609375" y2="378" fill="rgb(0, 0, 0)" stroke="rgb(60, 60, 60)" stroke-width="1px" opacity="0.25"></line><line x1="757.7734375" y1="0" x2="757.7734375" y2="378" fill="rgb(0, 0, 0)" stroke="rgb(60, 60, 60)" stroke-width="1px" opacity="0.25"></line><line x1="833.55078125" y1="0" x2="833.55078125" y2="378" fill="rgb(0, 0, 0)" stroke="rgb(60, 60, 60)" stroke-width="1px" opacity="0.25"></line><line x1="909.328125" y1="0" x2="909.328125" y2="378" fill="rgb(0, 0, 0)" stroke="rgb(60, 60, 60)" stroke-width="1px" opacity="0.25"></line></g><g><line x1="0" y1="299.2475414840798" x2="909.328125" y2="299.2475414840798" fill="rgb(0, 0, 0)" stroke="rgb(60, 60, 60)" stroke-width="1px" opacity="0.25"></line><line x1="0" y1="203.41970042279243" x2="909.328125" y2="203.41970042279243" fill="rgb(0, 0, 0)" stroke="rgb(60, 60, 60)" stroke-width="1px" opacity="0.25"></line><line x1="0" y1="135.42876516397644" x2="909.328125" y2="135.42876516397644" fill="rgb(0, 0, 0)" stroke="rgb(60, 60, 60)" stroke-width="1px" opacity="0.25"></line><line x1="0" y1="82.69089859646661" x2="909.328125" y2="82.69089859646661" fill="rgb(0, 0, 0)" stroke="rgb(60, 60, 60)" stroke-width="1px" opacity="0.25"></line><line x1="0" y1="39.600924102689056" x2="909.328125" y2="39.600924102689056" fill="rgb(0, 0, 0)" stroke="rgb(60, 60, 60)" stroke-width="1px" opacity="0.25"></line><line x1="0" y1="3.168869776487312" x2="909.328125" y2="3.168869776487312" fill="rgb(0, 0, 0)" stroke="rgb(60, 60, 60)" stroke-width="1px" opacity="0.25"></line></g></g></g><g><g><line x1="75.77734375" y1="0" x2="75.77734375" y2="378" fill="rgb(0, 0, 0)" stroke="rgb(153, 153, 153)" stroke-width="1.5px"></line></g></g><g><g><g><g><g><path stroke="rgb(255, 112, 67)" stroke-width="2px" d="M75.77734375,90.095411234032L90.93281250000001,151.1312603465855L106.08828125000001,182.61701081378436L121.24374999999999,204.9152866748164L136.39921875,218.49895571556854L151.5546875,233.1017075789686L166.71015624999998,244.8594390615495L181.86562500000002,253.1137905030898L197.02109375,263.01369778003567L212.17656250000002,267.54647399903234L227.33203125,276.56054671842253L242.48749999999998,277.959958007173L257.64296874999997,283.93659642275475L272.7984375,289.2560020439428L287.95390625,292.1528591578891L303.109375,294.49160785221875L318.26484374999995,296.1265199211297L333.42031249999997,296.6859800662927L348.57578125000003,301.9687803145251L363.73125000000005,300.6308003963772L378.88671875,299.9831775014225L394.0421875,309.43901068937964L409.19765625,304.31813459340924L424.35312500000003,306.36249896795863L439.50859375,309.7181997461905L454.6640625,307.3841792406651L469.81953125000007,303.3037371068079L484.97499999999997,307.53179740929875L500.13046875000003,309.71586214418136L515.2859374999999,307.7760611378051L530.44140625,308.5344712843253L545.596875,308.2808973342296L560.75234375,310.23807103409604L575.9078125,306.27898350905906L591.06328125,307.94922577530264L606.21875,308.79042602480905L621.3742187500001,307.6009619003769L636.5296874999999,305.1646137632672L651.68515625,305.7341273183858L666.8406249999999,306.4398718995989L681.99609375,301.4392691122741L697.1515625000001,301.37065829885813L712.30703125,300.2051192919538L727.4625000000001,297.8913548669303L742.6179687499999,300.24789164327194L757.7734375,300.1690897256531L772.92890625,292.5544606436115L788.084375,292.72034896184954L803.23984375,292.64048954419053L818.3953125,293.10807528600634" style="fill: none;" fill="none"></path></g><g><path stroke="rgb(0, 119, 187)" stroke-width="2px" d="M75.77734375,54.00000000000002L90.93281250000001,105.81910874065515L106.08828125000001,140.87584168600307L121.24374999999999,160.18055887953702L136.39921875,177.79194813206792L151.5546875,185.48351750522332L166.71015624999998,203.02926398408366L181.86562500000002,208.94718670504938L197.02109375,216.84618255655107L212.17656250000002,228.42632786730283L227.33203125,238.1867734204264L242.48749999999998,237.17065428393025L257.64296874999997,242.8621630382875L272.7984375,245.72329629208306L287.95390625,263.5577572255884L303.109375,262.53240153156923L318.26484374999995,267.87015397155L333.42031249999997,268.4537304361909L348.57578125000003,274.6263642804525L363.73125000000005,282.079470840738L378.88671875,274.10733389640484L394.0421875,280.98914032412955L409.19765625,282.7178263101207L424.35312500000003,281.37752025280565L439.50859375,279.47581790704646L454.6640625,285.8183954573884L469.81953125000007,293.3302797479061L484.97499999999997,288.87898805671455L500.13046875000003,289.7486635186607L515.2859374999999,291.61490928747116L530.44140625,295.75671573481065L545.596875,289.69498123400535L560.75234375,293.5805247821627L575.9078125,286.57590132257695L591.06328125,290.18352650931826L606.21875,297.2775347510964L621.3742187500001,297.8324128228323L636.5296874999999,298.66533585999423L651.68515625,298.83764514480396L666.8406249999999,292.7981106583733L681.99609375,291.3563128920102L697.1515625000001,297.16513742264556L712.30703125,293.96267483256224L727.4625000000001,294.2883622330926L742.6179687499999,296.06108442467377L757.7734375,287.61989526888345L772.92890625,297.44259625088966L788.084375,294.43531915897813L803.23984375,292.7031177330812L818.3953125,286.12824598946423" style="fill: none;" fill="none"></path></g><g><path stroke="rgb(187, 187, 187)" stroke-width="2px" d="M75.77734375,102.26925280247279L90.93281250000001,160.7344182379922L106.08828125000001,188.64610284100647L121.24374999999999,215.2693076608943L136.39921875,233.9779074000341L151.5546875,244.89740818837384L166.71015624999998,252.0520242304397L181.86562500000002,270.9719420984048L197.02109375,272.58013729958384L212.17656250000002,284.3272753893139L227.33203125,289.98472946528625L242.48749999999998,294.75638935518515L257.64296874999997,299.6574549710164L272.7984375,299.5634032495135L287.95390625,307.50347718125664L303.109375,312.51573394528486L318.26484374999995,312.8301751042619L333.42031249999997,317.20097823763064L348.57578125000003,315.5171129333119L363.73125000000005,320.59927399751217L378.88671875,319.2118933830996L394.0421875,317.8943374608605L409.19765625,322.4999536258888L424.35312500000003,324L439.50859375,316.7239138810589L454.6640625,317.68047336937514L469.81953125000007,321.07384324183744L484.97499999999997,321.0695752434505L500.13046875000003,318.6415891661461L515.2859374999999,320.0111387456059L530.44140625,320.6973008043201L545.596875,319.46500937024894L560.75234375,317.57653474053046L575.9078125,319.6362842901566L591.06328125,312.56615875574164L606.21875,315.72051249321225L621.3742187500001,313.69693465773355L636.5296874999999,312.8321707024983L651.68515625,312.4917267984187L666.8406249999999,311.8725190037617L681.99609375,313.60176823250265L697.1515625000001,317.52293694673807L712.30703125,315.53682623481916L727.4625000000001,306.20004925180905L742.6179687499999,304.66535648433836L757.7734375,305.9884788096292L772.92890625,299.66442260100234L788.084375,299.84846001996493L803.23984375,304.5466898692023L818.3953125,300.32735666098415" style="fill: none;" fill="none"></path></g><g><path stroke="rgb(238, 51, 119)" stroke-width="2px" d="M75.77734375,90.19415577594529L90.93281250000001,149.25143902811186L106.08828125000001,177.31996023737895L121.24374999999999,202.84229020642098L136.39921875,217.4960771673873L151.5546875,231.34374682232334L166.71015624999998,243.82364628013332L181.86562500000002,252.18820002947888L197.02109375,256.2708970222685L212.17656250000002,267.80365908382566L227.33203125,272.52983855937805L242.48749999999998,277.72225354145775L257.64296874999997,279.7396613877731L272.7984375,284.4298918926518L287.95390625,284.98851557698504L303.109375,292.27103514581785L318.26484374999995,297.555440336335L333.42031249999997,297.4638290567972L348.57578125000003,298.9279441768144L363.73125000000005,306.9993691131775L378.88671875,304.8924805773681L394.0421875,304.80411057564515L409.19765625,303.2403316086262L424.35312500000003,308.8516888333698L439.50859375,305.91420581164874L454.6640625,308.8853066936966L469.81953125000007,309.4489937789693L484.97499999999997,304.9097040434112L500.13046875000003,309.7938253605547L515.2859374999999,307.65511110147787L530.44140625,305.7778216761828L545.596875,306.4700438615978L560.75234375,307.4983715127919L575.9078125,304.64521426618535L591.06328125,308.23896935503257L606.21875,308.82108294906993L621.3742187500001,307.43911735823514L636.5296874999999,305.12884919076504L651.68515625,305.80952052654635L666.8406249999999,304.58472586577045L681.99609375,300.8292415481761L697.1515625000001,301.6956385398479L712.30703125,300.54751504231933L727.4625000000001,299.5100715857828L742.6179687499999,299.84041012867357L757.7734375,297.24889786273525L772.92890625,299.0557157592789L788.084375,297.4301720121239L803.23984375,293.0885340357266L818.3953125,291.47913475551564" style="fill: none;" fill="none"></path></g></g></g></g></g></g><g transform="translate(41, 378)" clip-path="url(#clip_1)"><clipPath id="clip_1"><rect width="909" height="22"></rect></clipPath><g><g><line x1="0" y1="0" x2="0" y2="5" style="visibility: inherit;" fill="rgb(0, 0, 0)" stroke="rgb(204, 204, 204)" stroke-width="1px"></line><line x1="75.77734375" y1="0" x2="75.77734375" y2="5" style="visibility: inherit;" fill="rgb(0, 0, 0)" stroke="rgb(204, 204, 204)" stroke-width="1px"></line><line x1="151.5546875" y1="0" x2="151.5546875" y2="5" style="visibility: inherit;" fill="rgb(0, 0, 0)" stroke="rgb(204, 204, 204)" stroke-width="1px"></line><line x1="227.33203125" y1="0" x2="227.33203125" y2="5" style="visibility: inherit;" fill="rgb(0, 0, 0)" stroke="rgb(204, 204, 204)" stroke-width="1px"></line><line x1="303.109375" y1="0" x2="303.109375" y2="5" style="visibility: inherit;" fill="rgb(0, 0, 0)" stroke="rgb(204, 204, 204)" stroke-width="1px"></line><line x1="378.88671875" y1="0" x2="378.88671875" y2="5" style="visibility: inherit;" fill="rgb(0, 0, 0)" stroke="rgb(204, 204, 204)" stroke-width="1px"></line><line x1="454.6640625" y1="0" x2="454.6640625" y2="5" style="visibility: inherit;" fill="rgb(0, 0, 0)" stroke="rgb(204, 204, 204)" stroke-width="1px"></line><line x1="530.44140625" y1="0" x2="530.44140625" y2="5" style="visibility: inherit;" fill="rgb(0, 0, 0)" stroke="rgb(204, 204, 204)" stroke-width="1px"></line><line x1="606.21875" y1="0" x2="606.21875" y2="5" style="visibility: inherit;" fill="rgb(0, 0, 0)" stroke="rgb(204, 204, 204)" stroke-width="1px"></line><line x1="681.99609375" y1="0" x2="681.99609375" y2="5" style="visibility: inherit;" fill="rgb(0, 0, 0)" stroke="rgb(204, 204, 204)" stroke-width="1px"></line><line x1="757.7734375" y1="0" x2="757.7734375" y2="5" style="visibility: inherit;" fill="rgb(0, 0, 0)" stroke="rgb(204, 204, 204)" stroke-width="1px"></line><line x1="833.55078125" y1="0" x2="833.55078125" y2="5" style="visibility: inherit;" fill="rgb(0, 0, 0)" stroke="rgb(204, 204, 204)" stroke-width="1px"></line><line x1="909.328125" y1="0" x2="909.328125" y2="5" style="visibility: inherit;" fill="rgb(0, 0, 0)" stroke="rgb(204, 204, 204)" stroke-width="1px"></line></g><g transform="translate(0, 8)"><text x="0" y="0" dx="0em" dy="0.95em" style="text-anchor: middle; visibility: hidden; font-family: Roboto, sans-serif; font-size: 12px; font-weight: 200;" fill="rgb(50, 49, 63)" stroke="none" stroke-width="1px">-5</text><text x="75.77734375" y="0" dx="0em" dy="0.95em" style="text-anchor: middle; visibility: inherit; font-family: Roboto, sans-serif; font-size: 12px; font-weight: 200;" fill="rgb(50, 49, 63)" stroke="none" stroke-width="1px">0</text><text x="151.5546875" y="0" dx="0em" dy="0.95em" style="text-anchor: middle; visibility: inherit; font-family: Roboto, sans-serif; font-size: 12px; font-weight: 200;" fill="rgb(50, 49, 63)" stroke="none" stroke-width="1px">5</text><text x="227.33203125" y="0" dx="0em" dy="0.95em" style="text-anchor: middle; visibility: inherit; font-family: Roboto, sans-serif; font-size: 12px; font-weight: 200;" fill="rgb(50, 49, 63)" stroke="none" stroke-width="1px">10</text><text x="303.109375" y="0" dx="0em" dy="0.95em" style="text-anchor: middle; visibility: inherit; font-family: Roboto, sans-serif; font-size: 12px; font-weight: 200;" fill="rgb(50, 49, 63)" stroke="none" stroke-width="1px">15</text><text x="378.88671875" y="0" dx="0em" dy="0.95em" style="text-anchor: middle; visibility: inherit; font-family: Roboto, sans-serif; font-size: 12px; font-weight: 200;" fill="rgb(50, 49, 63)" stroke="none" stroke-width="1px">20</text><text x="454.6640625" y="0" dx="0em" dy="0.95em" style="text-anchor: middle; visibility: inherit; font-family: Roboto, sans-serif; font-size: 12px; font-weight: 200;" fill="rgb(50, 49, 63)" stroke="none" stroke-width="1px">25</text><text x="530.44140625" y="0" dx="0em" dy="0.95em" style="text-anchor: middle; visibility: inherit; font-family: Roboto, sans-serif; font-size: 12px; font-weight: 200;" fill="rgb(50, 49, 63)" stroke="none" stroke-width="1px">30</text><text x="606.21875" y="0" dx="0em" dy="0.95em" style="text-anchor: middle; visibility: inherit; font-family: Roboto, sans-serif; font-size: 12px; font-weight: 200;" fill="rgb(50, 49, 63)" stroke="none" stroke-width="1px">35</text><text x="681.99609375" y="0" dx="0em" dy="0.95em" style="text-anchor: middle; visibility: inherit; font-family: Roboto, sans-serif; font-size: 12px; font-weight: 200;" fill="rgb(50, 49, 63)" stroke="none" stroke-width="1px">40</text><text x="757.7734375" y="0" dx="0em" dy="0.95em" style="text-anchor: middle; visibility: inherit; font-family: Roboto, sans-serif; font-size: 12px; font-weight: 200;" fill="rgb(50, 49, 63)" stroke="none" stroke-width="1px">45</text><text x="833.55078125" y="0" dx="0em" dy="0.95em" style="text-anchor: middle; visibility: inherit; font-family: Roboto, sans-serif; font-size: 12px; font-weight: 200;" fill="rgb(50, 49, 63)" stroke="none" stroke-width="1px">50</text><text x="909.328125" y="0" dx="0em" dy="0.95em" style="text-anchor: middle; visibility: hidden; font-family: Roboto, sans-serif; font-size: 12px; font-weight: 200;" fill="rgb(50, 49, 63)" stroke="none" stroke-width="1px">55</text></g><line x1="0" y1="0" x2="909.328125" y2="0" fill="rgb(0, 0, 0)" stroke="rgb(204, 204, 204)" stroke-width="1px"></line></g></g></g></g></svg>