<svg viewBox="0 0 950.5 400" xmlns="http://www.w3.org/2000/svg"><g><g><g><g><g><line x1="51.5625" y1="378" x2="46.5625" y2="378" style="visibility: inherit;" fill="rgb(0, 0, 0)" stroke="rgb(204, 204, 204)" stroke-width="1px"></line><line x1="51.5625" y1="335.99999999999994" x2="46.5625" y2="335.99999999999994" style="visibility: inherit;" fill="rgb(0, 0, 0)" stroke="rgb(204, 204, 204)" stroke-width="1px"></line><line x1="51.5625" y1="293.9999999999999" x2="46.5625" y2="293.9999999999999" style="visibility: inherit;" fill="rgb(0, 0, 0)" stroke="rgb(204, 204, 204)" stroke-width="1px"></line><line x1="51.5625" y1="252.00000000000006" x2="46.5625" y2="252.00000000000006" style="visibility: inherit;" fill="rgb(0, 0, 0)" stroke="rgb(204, 204, 204)" stroke-width="1px"></line><line x1="51.5625" y1="210" x2="46.5625" y2="210" style="visibility: inherit;" fill="rgb(0, 0, 0)" stroke="rgb(204, 204, 204)" stroke-width="1px"></line><line x1="51.5625" y1="168" x2="46.5625" y2="168" style="visibility: inherit;" fill="rgb(0, 0, 0)" stroke="rgb(204, 204, 204)" stroke-width="1px"></line><line x1="51.5625" y1="125.99999999999993" x2="46.5625" y2="125.99999999999993" style="visibility: inherit;" fill="rgb(0, 0, 0)" stroke="rgb(204, 204, 204)" stroke-width="1px"></line><line x1="51.5625" y1="83.99999999999987" x2="46.5625" y2="83.99999999999987" style="visibility: inherit;" fill="rgb(0, 0, 0)" stroke="rgb(204, 204, 204)" stroke-width="1px"></line><line x1="51.5625" y1="41.99999999999981" x2="46.5625" y2="41.99999999999981" style="visibility: inherit;" fill="rgb(0, 0, 0)" stroke="rgb(204, 204, 204)" stroke-width="1px"></line><line x1="51.5625" y1="0" x2="46.5625" y2="0" style="visibility: inherit;" fill="rgb(0, 0, 0)" stroke="rgb(204, 204, 204)" stroke-width="1px"></line></g><g transform="translate(41.5625, 0)"><text x="0" y="378" dx="0em" dy="0.3em" style="text-anchor: end; visibility: hidden; font-family: Roboto, sans-serif; font-size: 12px; font-weight: 200;" fill="rgb(50, 49, 63)" stroke="none" stroke-width="1px">0.76</text><text x="0" y="335.99999999999994" dx="0em" dy="0.3em" style="text-anchor: end; visibility: inherit; font-family: Roboto, sans-serif; font-size: 12px; font-weight: 200;" fill="rgb(50, 49, 63)" stroke="none" stroke-width="1px">0.78</text><text x="0" y="293.9999999999999" dx="0em" dy="0.3em" style="text-anchor: end; visibility: inherit; font-family: Roboto, sans-serif; font-size: 12px; font-weight: 200;" fill="rgb(50, 49, 63)" stroke="none" stroke-width="1px">0.8</text><text x="0" y="252.00000000000006" dx="0em" dy="0.3em" style="text-anchor: end; visibility: inherit; font-family: Roboto, sans-serif; font-size: 12px; font-weight: 200;" fill="rgb(50, 49, 63)" stroke="none" stroke-width="1px">0.82</text><text x="0" y="210" dx="0em" dy="0.3em" style="text-anchor: end; visibility: inherit; font-family: Roboto, sans-serif; font-size: 12px; font-weight: 200;" fill="rgb(50, 49, 63)" stroke="none" stroke-width="1px">0.84</text><text x="0" y="168" dx="0em" dy="0.3em" style="text-anchor: end; visibility: inherit; font-family: Roboto, sans-serif; font-size: 12px; font-weight: 200;" fill="rgb(50, 49, 63)" stroke="none" stroke-width="1px">0.86</text><text x="0" y="125.99999999999993" dx="0em" dy="0.3em" style="text-anchor: end; visibility: inherit; font-family: Roboto, sans-serif; font-size: 12px; font-weight: 200;" fill="rgb(50, 49, 63)" stroke="none" stroke-width="1px">0.88</text><text x="0" y="83.99999999999987" dx="0em" dy="0.3em" style="text-anchor: end; visibility: inherit; font-family: Roboto, sans-serif; font-size: 12px; font-weight: 200;" fill="rgb(50, 49, 63)" stroke="none" stroke-width="1px">0.9</text><text x="0" y="41.99999999999981" dx="0em" dy="0.3em" style="text-anchor: end; visibility: inherit; font-family: Roboto, sans-serif; font-size: 12px; font-weight: 200;" fill="rgb(50, 49, 63)" stroke="none" stroke-width="1px">0.92</text><text x="0" y="0" dx="0em" dy="0.3em" style="text-anchor: end; visibility: hidden; font-family: Roboto, sans-serif; font-size: 12px; font-weight: 200;" fill="rgb(50, 49, 63)" stroke="none" stroke-width="1px">0.94</text></g><line x1="51.5625" y1="0" x2="51.5625" y2="378" fill="rgb(0, 0, 0)" stroke="rgb(204, 204, 204)" stroke-width="1px"></line></g></g><g transform="translate(51, 0)" clip-path="url(#clip_0)"><clipPath id="clip_0"><rect width="898" height="378"></rect></clipPath><g><g><g><line x1="0" y1="0" x2="0" y2="378" fill="rgb(0, 0, 0)" stroke="rgb(60, 60, 60)" stroke-width="1px" opacity="0.25"></line><line x1="74.91145833333333" y1="0" x2="74.91145833333333" y2="378" fill="rgb(0, 0, 0)" stroke="rgb(60, 60, 60)" stroke-width="1px" opacity="0.25"></line><line x1="149.82291666666666" y1="0" x2="149.82291666666666" y2="378" fill="rgb(0, 0, 0)" stroke="rgb(60, 60, 60)" stroke-width="1px" opacity="0.25"></line><line x1="224.734375" y1="0" x2="224.734375" y2="378" fill="rgb(0, 0, 0)" stroke="rgb(60, 60, 60)" stroke-width="1px" opacity="0.25"></line><line x1="299.6458333333333" y1="0" x2="299.6458333333333" y2="378" fill="rgb(0, 0, 0)" stroke="rgb(60, 60, 60)" stroke-width="1px" opacity="0.25"></line><line x1="374.5572916666667" y1="0" x2="374.5572916666667" y2="378" fill="rgb(0, 0, 0)" stroke="rgb(60, 60, 60)" stroke-width="1px" opacity="0.25"></line><line x1="449.46875" y1="0" x2="449.46875" y2="378" fill="rgb(0, 0, 0)" stroke="rgb(60, 60, 60)" stroke-width="1px" opacity="0.25"></line><line x1="524.3802083333334" y1="0" x2="524.3802083333334" y2="378" fill="rgb(0, 0, 0)" stroke="rgb(60, 60, 60)" stroke-width="1px" opacity="0.25"></line><line x1="599.2916666666666" y1="0" x2="599.2916666666666" y2="378" fill="rgb(0, 0, 0)" stroke="rgb(60, 60, 60)" stroke-width="1px" opacity="0.25"></line><line x1="674.203125" y1="0" x2="674.203125" y2="378" fill="rgb(0, 0, 0)" stroke="rgb(60, 60, 60)" stroke-width="1px" opacity="0.25"></line><line x1="749.1145833333334" y1="0" x2="749.1145833333334" y2="378" fill="rgb(0, 0, 0)" stroke="rgb(60, 60, 60)" stroke-width="1px" opacity="0.25"></line><line x1="824.0260416666666" y1="0" x2="824.0260416666666" y2="378" fill="rgb(0, 0, 0)" stroke="rgb(60, 60, 60)" stroke-width="1px" opacity="0.25"></line><line x1="898.9375" y1="0" x2="898.9375" y2="378" fill="rgb(0, 0, 0)" stroke="rgb(60, 60, 60)" stroke-width="1px" opacity="0.25"></line></g><g><line x1="0" y1="378" x2="898.9375" y2="378" fill="rgb(0, 0, 0)" stroke="rgb(60, 60, 60)" stroke-width="1px" opacity="0.25"></line><line x1="0" y1="335.99999999999994" x2="898.9375" y2="335.99999999999994" fill="rgb(0, 0, 0)" stroke="rgb(60, 60, 60)" stroke-width="1px" opacity="0.25"></line><line x1="0" y1="293.9999999999999" x2="898.9375" y2="293.9999999999999" fill="rgb(0, 0, 0)" stroke="rgb(60, 60, 60)" stroke-width="1px" opacity="0.25"></line><line x1="0" y1="252.00000000000006" x2="898.9375" y2="252.00000000000006" fill="rgb(0, 0, 0)" stroke="rgb(60, 60, 60)" stroke-width="1px" opacity="0.25"></line><line x1="0" y1="210" x2="898.9375" y2="210" fill="rgb(0, 0, 0)" stroke="rgb(60, 60, 60)" stroke-width="1px" opacity="0.25"></line><line x1="0" y1="168" x2="898.9375" y2="168" fill="rgb(0, 0, 0)" stroke="rgb(60, 60, 60)" stroke-width="1px" opacity="0.25"></line><line x1="0" y1="125.99999999999993" x2="898.9375" y2="125.99999999999993" fill="rgb(0, 0, 0)" stroke="rgb(60, 60, 60)" stroke-width="1px" opacity="0.25"></line><line x1="0" y1="83.99999999999987" x2="898.9375" y2="83.99999999999987" fill="rgb(0, 0, 0)" stroke="rgb(60, 60, 60)" stroke-width="1px" opacity="0.25"></line><line x1="0" y1="41.99999999999981" x2="898.9375" y2="41.99999999999981" fill="rgb(0, 0, 0)" stroke="rgb(60, 60, 60)" stroke-width="1px" opacity="0.25"></line><line x1="0" y1="0" x2="898.9375" y2="0" fill="rgb(0, 0, 0)" stroke="rgb(60, 60, 60)" stroke-width="1px" opacity="0.25"></line></g></g></g><g><g><line x1="0" y1="1974.0000000000007" x2="898.9375" y2="1974.0000000000007" fill="rgb(0, 0, 0)" stroke="rgb(153, 153, 153)" stroke-width="1.5px"></line></g></g><g><g><line x1="74.91145833333333" y1="0" x2="74.91145833333333" y2="378" fill="rgb(0, 0, 0)" stroke="rgb(153, 153, 153)" stroke-width="1.5px"></line></g></g><g><g><g><g><g><path stroke="rgb(255, 112, 67)" stroke-width="2px" d="M74.91145833333333,273.4859039783478L89.89375000000001,230.83806538581845L104.87604166666667,201.68640518188474L119.85833333333333,184.41135191917414L134.840625,174.69404840469355L149.82291666666666,168.755744934082L164.80520833333333,150.94083452224723L179.78750000000002,149.32138824462882L194.76979166666666,133.6657812595367L209.75208333333333,143.9228167533874L224.734375,125.56817436218255L239.71666666666667,126.6477634906768L254.69895833333334,122.32903146743769L269.68125,121.24931716918937L284.6635416666667,121.24931716918937L299.6458333333333,114.77115654945368L314.62812499999995,121.78917431831353L329.61041666666665,119.09001374244683L344.59270833333335,118.01029944419854L359.57500000000005,109.91256737709037L374.5572916666667,111.53213882446282L389.5395833333333,109.91256737709037L404.521875,113.69156742095939L419.50416666666666,104.51412105560293L434.48645833333336,114.23142457008356L449.46875,107.75326395034783L464.4510416666667,114.77115654945368L479.43333333333334,107.75326395034783L494.41562500000003,102.3548176288604L509.3979166666667,100.73524618148795L524.3802083333334,102.89454960823052L539.3625,100.19538903236382L554.3447916666667,95.87665700912467L569.3270833333333,101.81496047973623L584.309375,102.3548176288604L599.2916666666666,96.95624613761892L614.2739583333333,95.33679986000051L629.2562499999999,101.81496047973623L644.2385416666667,100.19538903236382L659.2208333333333,94.25708556175222L674.203125,97.4961032867431L689.1854166666667,97.4961032867431L704.1677083333333,95.87665700912467L719.1500000000001,95.87665700912467L734.1322916666667,89.93835353851311L749.1145833333334,93.17737126350394L764.096875,99.65553188323966L779.0791666666667,89.39849638938895L794.0614583333333,95.33679986000051L809.04375,95.33679986000051" style="fill: none;" fill="none"></path></g><g><path stroke="rgb(0, 119, 187)" stroke-width="2px" d="M74.91145833333333,311.27502822875977L89.89375000000001,268.08745765686035L104.87604166666667,237.31622600555417L119.85833333333333,226.51933336257935L134.840625,206.54499435424802L149.82291666666666,199.52697658538813L164.80520833333333,185.49094104766843L179.78750000000002,169.29560208320612L194.76979166666666,160.65813803672788L209.75208333333333,154.17997741699213L224.734375,145.00253105163569L239.71666666666667,147.7018167972564L254.69895833333334,146.08224534988398L269.68125,145.00253105163569L284.6635416666667,135.82520985603327L299.6458333333333,132.04633498191828L314.62812499999995,129.8869063854217L329.61041666666665,135.82520985603327L344.59270833333335,122.86888861656182L359.57500000000005,118.01029944419854L374.5572916666667,120.70946002006524L389.5395833333333,121.78917431831353L404.521875,116.93058514595026L419.50416666666666,114.23142457008356L434.48645833333336,114.23142457008356L449.46875,106.67354965209955L464.4510416666667,101.81496047973623L479.43333333333334,100.73524618148795L494.41562500000003,106.67354965209955L509.3979166666667,109.91256737709037L524.3802083333334,101.81496047973623L539.3625,112.07199597358694L554.3447916666667,108.83285307884208L569.3270833333333,108.83285307884208L584.309375,106.67354965209955L599.2916666666666,107.21340680122367L614.2739583333333,101.27510333061211L629.2562499999999,102.89454960823052L644.2385416666667,98.03596043586721L659.2208333333333,103.43440675735465L674.203125,101.27510333061211L689.1854166666667,100.19538903236382L704.1677083333333,100.19538903236382L719.1500000000001,106.67354965209955L734.1322916666667,99.65553188323966L749.1145833333334,105.0539782047271L764.096875,98.57581758499137L779.0791666666667,92.09765696525565L794.0614583333333,102.3548176288604L809.04375,95.87665700912467" style="fill: none;" fill="none"></path></g><g><path stroke="rgb(187, 187, 187)" stroke-width="2px" d="M74.91145833333333,263.76860046386713L89.89375000000001,227.59892249107358L104.87604166666667,197.36754798889154L119.85833333333333,174.69404840469355L134.840625,168.21588778495783L149.82291666666666,147.7018167972564L164.80520833333333,146.08224534988398L179.78750000000002,126.10803151130668L194.76979166666666,128.26733493804926L209.75208333333333,115.31101369857781L224.734375,112.61185312271111L239.71666666666667,110.45242452621453L254.69895833333334,107.75326395034783L269.68125,114.77115654945368L284.6635416666667,113.69156742095939L299.6458333333333,107.21340680122367L314.62812499999995,110.45242452621453L329.61041666666665,103.43440675735465L344.59270833333335,99.65553188323966L359.57500000000005,103.97426390647881L374.5572916666667,102.89454960823052L389.5395833333333,102.3548176288604L404.521875,93.7172284126281L419.50416666666666,93.17737126350394L434.48645833333336,98.57581758499137L449.46875,98.57581758499137L464.4510416666667,92.09765696525565L479.43333333333334,90.47821068763724L494.41562500000003,91.55779981613153L509.3979166666667,89.39849638938895L524.3802083333334,86.1593534946441L539.3625,85.61949634551993L554.3447916666667,95.87665700912467L569.3270833333333,90.47821068763724L584.309375,94.7969427108764L599.2916666666666,84.00005006790151L614.2739583333333,85.61949634551993L629.2562499999999,91.55779981613153L644.2385416666667,92.63751411437981L659.2208333333333,92.63751411437981L674.203125,84.53990721702569L689.1854166666667,79.68119287490838L704.1677083333333,91.01794266700736L719.1500000000001,87.23906779289239L734.1322916666667,91.55779981613153L749.1145833333334,86.69921064376821L764.096875,89.39849638938895L779.0791666666667,87.23906779289239L794.0614583333333,84.00005006790151L809.04375,87.7789249420165" style="fill: none;" fill="none"></path></g><g><path stroke="rgb(238, 51, 119)" stroke-width="2px" d="M74.91145833333333,285.90236806869507L89.89375000000001,241.09510087966916L104.87604166666667,208.16456580162045L119.85833333333333,184.9512090682983L134.840625,183.33163762092585L149.82291666666666,161.7377271652221L164.80520833333333,149.86112022399897L179.78750000000002,146.08224534988398L194.76979166666666,157.41899514198298L209.75208333333333,139.60408473014826L224.734375,129.34704923629755L239.71666666666667,132.5860669612884L254.69895833333334,121.24931716918937L269.68125,127.18762063980097L284.6635416666667,124.48846006393427L299.6458333333333,115.31101369857781L314.62812499999995,111.53213882446282L329.61041666666665,115.31101369857781L344.59270833333335,109.37271022796625L359.57500000000005,106.67354965209955L374.5572916666667,108.29312109947196L389.5395833333333,105.59383535385126L404.521875,108.29312109947196L419.50416666666666,102.3548176288604L434.48645833333336,109.37271022796625L449.46875,102.3548176288604L464.4510416666667,110.45242452621453L479.43333333333334,107.21340680122367L494.41562500000003,107.21340680122367L509.3979166666667,103.97426390647881L524.3802083333334,99.11567473411554L539.3625,101.27510333061211L554.3447916666667,96.41651415824884L569.3270833333333,101.81496047973623L584.309375,99.65553188323966L599.2916666666666,96.95624613761892L614.2739583333333,94.25708556175222L629.2562499999999,95.33679986000051L644.2385416666667,92.63751411437981L659.2208333333333,95.33679986000051L674.203125,96.95624613761892L689.1854166666667,92.63751411437981L704.1677083333333,90.47821068763724L719.1500000000001,96.95624613761892L734.1322916666667,92.63751411437981L749.1145833333334,94.7969427108764L764.096875,94.25708556175222L779.0791666666667,89.93835353851311L794.0614583333333,95.87665700912467L809.04375,96.41651415824884" style="fill: none;" fill="none"></path></g></g></g></g></g></g><g transform="translate(51, 378)" clip-path="url(#clip_1)"><clipPath id="clip_1"><rect width="898" height="22"></rect></clipPath><g><g><line x1="0" y1="0" x2="0" y2="5" style="visibility: inherit;" fill="rgb(0, 0, 0)" stroke="rgb(204, 204, 204)" stroke-width="1px"></line><line x1="74.91145833333333" y1="0" x2="74.91145833333333" y2="5" style="visibility: inherit;" fill="rgb(0, 0, 0)" stroke="rgb(204, 204, 204)" stroke-width="1px"></line><line x1="149.82291666666666" y1="0" x2="149.82291666666666" y2="5" style="visibility: inherit;" fill="rgb(0, 0, 0)" stroke="rgb(204, 204, 204)" stroke-width="1px"></line><line x1="224.734375" y1="0" x2="224.734375" y2="5" style="visibility: inherit;" fill="rgb(0, 0, 0)" stroke="rgb(204, 204, 204)" stroke-width="1px"></line><line x1="299.6458333333333" y1="0" x2="299.6458333333333" y2="5" style="visibility: inherit;" fill="rgb(0, 0, 0)" stroke="rgb(204, 204, 204)" stroke-width="1px"></line><line x1="374.5572916666667" y1="0" x2="374.5572916666667" y2="5" style="visibility: inherit;" fill="rgb(0, 0, 0)" stroke="rgb(204, 204, 204)" stroke-width="1px"></line><line x1="449.46875" y1="0" x2="449.46875" y2="5" style="visibility: inherit;" fill="rgb(0, 0, 0)" stroke="rgb(204, 204, 204)" stroke-width="1px"></line><line x1="524.3802083333334" y1="0" x2="524.3802083333334" y2="5" style="visibility: inherit;" fill="rgb(0, 0, 0)" stroke="rgb(204, 204, 204)" stroke-width="1px"></line><line x1="599.2916666666666" y1="0" x2="599.2916666666666" y2="5" style="visibility: inherit;" fill="rgb(0, 0, 0)" stroke="rgb(204, 204, 204)" stroke-width="1px"></line><line x1="674.203125" y1="0" x2="674.203125" y2="5" style="visibility: inherit;" fill="rgb(0, 0, 0)" stroke="rgb(204, 204, 204)" stroke-width="1px"></line><line x1="749.1145833333334" y1="0" x2="749.1145833333334" y2="5" style="visibility: inherit;" fill="rgb(0, 0, 0)" stroke="rgb(204, 204, 204)" stroke-width="1px"></line><line x1="824.0260416666666" y1="0" x2="824.0260416666666" y2="5" style="visibility: inherit;" fill="rgb(0, 0, 0)" stroke="rgb(204, 204, 204)" stroke-width="1px"></line><line x1="898.9375" y1="0" x2="898.9375" y2="5" style="visibility: inherit;" fill="rgb(0, 0, 0)" stroke="rgb(204, 204, 204)" stroke-width="1px"></line></g><g transform="translate(0, 8)"><text x="0" y="0" dx="0em" dy="0.95em" style="text-anchor: middle; visibility: hidden; font-family: Roboto, sans-serif; font-size: 12px; font-weight: 200;" fill="rgb(50, 49, 63)" stroke="none" stroke-width="1px">-5</text><text x="74.91145833333333" y="0" dx="0em" dy="0.95em" style="text-anchor: middle; visibility: inherit; font-family: Roboto, sans-serif; font-size: 12px; font-weight: 200;" fill="rgb(50, 49, 63)" stroke="none" stroke-width="1px">0</text><text x="149.82291666666666" y="0" dx="0em" dy="0.95em" style="text-anchor: middle; visibility: inherit; font-family: Roboto, sans-serif; font-size: 12px; font-weight: 200;" fill="rgb(50, 49, 63)" stroke="none" stroke-width="1px">5</text><text x="224.734375" y="0" dx="0em" dy="0.95em" style="text-anchor: middle; visibility: inherit; font-family: Roboto, sans-serif; font-size: 12px; font-weight: 200;" fill="rgb(50, 49, 63)" stroke="none" stroke-width="1px">10</text><text x="299.6458333333333" y="0" dx="0em" dy="0.95em" style="text-anchor: middle; visibility: inherit; font-family: Roboto, sans-serif; font-size: 12px; font-weight: 200;" fill="rgb(50, 49, 63)" stroke="none" stroke-width="1px">15</text><text x="374.5572916666667" y="0" dx="0em" dy="0.95em" style="text-anchor: middle; visibility: inherit; font-family: Roboto, sans-serif; font-size: 12px; font-weight: 200;" fill="rgb(50, 49, 63)" stroke="none" stroke-width="1px">20</text><text x="449.46875" y="0" dx="0em" dy="0.95em" style="text-anchor: middle; visibility: inherit; font-family: Roboto, sans-serif; font-size: 12px; font-weight: 200;" fill="rgb(50, 49, 63)" stroke="none" stroke-width="1px">25</text><text x="524.3802083333334" y="0" dx="0em" dy="0.95em" style="text-anchor: middle; visibility: inherit; font-family: Roboto, sans-serif; font-size: 12px; font-weight: 200;" fill="rgb(50, 49, 63)" stroke="none" stroke-width="1px">30</text><text x="599.2916666666666" y="0" dx="0em" dy="0.95em" style="text-anchor: middle; visibility: inherit; font-family: Roboto, sans-serif; font-size: 12px; font-weight: 200;" fill="rgb(50, 49, 63)" stroke="none" stroke-width="1px">35</text><text x="674.203125" y="0" dx="0em" dy="0.95em" style="text-anchor: middle; visibility: inherit; font-family: Roboto, sans-serif; font-size: 12px; font-weight: 200;" fill="rgb(50, 49, 63)" stroke="none" stroke-width="1px">40</text><text x="749.1145833333334" y="0" dx="0em" dy="0.95em" style="text-anchor: middle; visibility: inherit; font-family: Roboto, sans-serif; font-size: 12px; font-weight: 200;" fill="rgb(50, 49, 63)" stroke="none" stroke-width="1px">45</text><text x="824.0260416666666" y="0" dx="0em" dy="0.95em" style="text-anchor: middle; visibility: inherit; font-family: Roboto, sans-serif; font-size: 12px; font-weight: 200;" fill="rgb(50, 49, 63)" stroke="none" stroke-width="1px">50</text><text x="898.9375" y="0" dx="0em" dy="0.95em" style="text-anchor: middle; visibility: hidden; font-family: Roboto, sans-serif; font-size: 12px; font-weight: 200;" fill="rgb(50, 49, 63)" stroke="none" stroke-width="1px">55</text></g><line x1="0" y1="0" x2="898.9375" y2="0" fill="rgb(0, 0, 0)" stroke="rgb(204, 204, 204)" stroke-width="1px"></line></g></g></g></g></svg>