<svg viewBox="0 0 950.5 400" xmlns="http://www.w3.org/2000/svg"><g><g><g><g><g><line x1="51.5625" y1="378" x2="46.5625" y2="378" style="visibility: inherit;" fill="rgb(0, 0, 0)" stroke="rgb(204, 204, 204)" stroke-width="1px"></line><line x1="51.5625" y1="340.2" x2="46.5625" y2="340.2" style="visibility: inherit;" fill="rgb(0, 0, 0)" stroke="rgb(204, 204, 204)" stroke-width="1px"></line><line x1="51.5625" y1="302.3999999999999" x2="46.5625" y2="302.3999999999999" style="visibility: inherit;" fill="rgb(0, 0, 0)" stroke="rgb(204, 204, 204)" stroke-width="1px"></line><line x1="51.5625" y1="264.5999999999999" x2="46.5625" y2="264.5999999999999" style="visibility: inherit;" fill="rgb(0, 0, 0)" stroke="rgb(204, 204, 204)" stroke-width="1px"></line><line x1="51.5625" y1="226.80000000000004" x2="46.5625" y2="226.80000000000004" style="visibility: inherit;" fill="rgb(0, 0, 0)" stroke="rgb(204, 204, 204)" stroke-width="1px"></line><line x1="51.5625" y1="189" x2="46.5625" y2="189" style="visibility: inherit;" fill="rgb(0, 0, 0)" stroke="rgb(204, 204, 204)" stroke-width="1px"></line><line x1="51.5625" y1="151.19999999999996" x2="46.5625" y2="151.19999999999996" style="visibility: inherit;" fill="rgb(0, 0, 0)" stroke="rgb(204, 204, 204)" stroke-width="1px"></line><line x1="51.5625" y1="113.39999999999993" x2="46.5625" y2="113.39999999999993" style="visibility: inherit;" fill="rgb(0, 0, 0)" stroke="rgb(204, 204, 204)" stroke-width="1px"></line><line x1="51.5625" y1="75.59999999999985" x2="46.5625" y2="75.59999999999985" style="visibility: inherit;" fill="rgb(0, 0, 0)" stroke="rgb(204, 204, 204)" stroke-width="1px"></line><line x1="51.5625" y1="37.79999999999983" x2="46.5625" y2="37.79999999999983" style="visibility: inherit;" fill="rgb(0, 0, 0)" stroke="rgb(204, 204, 204)" stroke-width="1px"></line><line x1="51.5625" y1="0" x2="46.5625" y2="0" style="visibility: inherit;" fill="rgb(0, 0, 0)" stroke="rgb(204, 204, 204)" stroke-width="1px"></line></g><g transform="translate(41.5625, 0)"><text x="0" y="378" dx="0em" dy="0.3em" style="text-anchor: end; visibility: hidden; font-family: Roboto, sans-serif; font-size: 12px; font-weight: 200;" fill="rgb(50, 49, 63)" stroke="none" stroke-width="1px">0.74</text><text x="0" y="340.2" dx="0em" dy="0.3em" style="text-anchor: end; visibility: inherit; font-family: Roboto, sans-serif; font-size: 12px; font-weight: 200;" fill="rgb(50, 49, 63)" stroke="none" stroke-width="1px">0.76</text><text x="0" y="302.3999999999999" dx="0em" dy="0.3em" style="text-anchor: end; visibility: inherit; font-family: Roboto, sans-serif; font-size: 12px; font-weight: 200;" fill="rgb(50, 49, 63)" stroke="none" stroke-width="1px">0.78</text><text x="0" y="264.5999999999999" dx="0em" dy="0.3em" style="text-anchor: end; visibility: inherit; font-family: Roboto, sans-serif; font-size: 12px; font-weight: 200;" fill="rgb(50, 49, 63)" stroke="none" stroke-width="1px">0.8</text><text x="0" y="226.80000000000004" dx="0em" dy="0.3em" style="text-anchor: end; visibility: inherit; font-family: Roboto, sans-serif; font-size: 12px; font-weight: 200;" fill="rgb(50, 49, 63)" stroke="none" stroke-width="1px">0.82</text><text x="0" y="189" dx="0em" dy="0.3em" style="text-anchor: end; visibility: inherit; font-family: Roboto, sans-serif; font-size: 12px; font-weight: 200;" fill="rgb(50, 49, 63)" stroke="none" stroke-width="1px">0.84</text><text x="0" y="151.19999999999996" dx="0em" dy="0.3em" style="text-anchor: end; visibility: inherit; font-family: Roboto, sans-serif; font-size: 12px; font-weight: 200;" fill="rgb(50, 49, 63)" stroke="none" stroke-width="1px">0.86</text><text x="0" y="113.39999999999993" dx="0em" dy="0.3em" style="text-anchor: end; visibility: inherit; font-family: Roboto, sans-serif; font-size: 12px; font-weight: 200;" fill="rgb(50, 49, 63)" stroke="none" stroke-width="1px">0.88</text><text x="0" y="75.59999999999985" dx="0em" dy="0.3em" style="text-anchor: end; visibility: inherit; font-family: Roboto, sans-serif; font-size: 12px; font-weight: 200;" fill="rgb(50, 49, 63)" stroke="none" stroke-width="1px">0.9</text><text x="0" y="37.79999999999983" dx="0em" dy="0.3em" style="text-anchor: end; visibility: inherit; font-family: Roboto, sans-serif; font-size: 12px; font-weight: 200;" fill="rgb(50, 49, 63)" stroke="none" stroke-width="1px">0.92</text><text x="0" y="0" dx="0em" dy="0.3em" style="text-anchor: end; visibility: hidden; font-family: Roboto, sans-serif; font-size: 12px; font-weight: 200;" fill="rgb(50, 49, 63)" stroke="none" stroke-width="1px">0.94</text></g><line x1="51.5625" y1="0" x2="51.5625" y2="378" fill="rgb(0, 0, 0)" stroke="rgb(204, 204, 204)" stroke-width="1px"></line></g></g><g transform="translate(51, 0)" clip-path="url(#clip_0)"><clipPath id="clip_0"><rect width="898" height="378"></rect></clipPath><g><g><g><line x1="0" y1="0" x2="0" y2="378" fill="rgb(0, 0, 0)" stroke="rgb(60, 60, 60)" stroke-width="1px" opacity="0.25"></line><line x1="74.91145833333333" y1="0" x2="74.91145833333333" y2="378" fill="rgb(0, 0, 0)" stroke="rgb(60, 60, 60)" stroke-width="1px" opacity="0.25"></line><line x1="149.82291666666666" y1="0" x2="149.82291666666666" y2="378" fill="rgb(0, 0, 0)" stroke="rgb(60, 60, 60)" stroke-width="1px" opacity="0.25"></line><line x1="224.734375" y1="0" x2="224.734375" y2="378" fill="rgb(0, 0, 0)" stroke="rgb(60, 60, 60)" stroke-width="1px" opacity="0.25"></line><line x1="299.6458333333333" y1="0" x2="299.6458333333333" y2="378" fill="rgb(0, 0, 0)" stroke="rgb(60, 60, 60)" stroke-width="1px" opacity="0.25"></line><line x1="374.5572916666667" y1="0" x2="374.5572916666667" y2="378" fill="rgb(0, 0, 0)" stroke="rgb(60, 60, 60)" stroke-width="1px" opacity="0.25"></line><line x1="449.46875" y1="0" x2="449.46875" y2="378" fill="rgb(0, 0, 0)" stroke="rgb(60, 60, 60)" stroke-width="1px" opacity="0.25"></line><line x1="524.3802083333334" y1="0" x2="524.3802083333334" y2="378" fill="rgb(0, 0, 0)" stroke="rgb(60, 60, 60)" stroke-width="1px" opacity="0.25"></line><line x1="599.2916666666666" y1="0" x2="599.2916666666666" y2="378" fill="rgb(0, 0, 0)" stroke="rgb(60, 60, 60)" stroke-width="1px" opacity="0.25"></line><line x1="674.203125" y1="0" x2="674.203125" y2="378" fill="rgb(0, 0, 0)" stroke="rgb(60, 60, 60)" stroke-width="1px" opacity="0.25"></line><line x1="749.1145833333334" y1="0" x2="749.1145833333334" y2="378" fill="rgb(0, 0, 0)" stroke="rgb(60, 60, 60)" stroke-width="1px" opacity="0.25"></line><line x1="824.0260416666666" y1="0" x2="824.0260416666666" y2="378" fill="rgb(0, 0, 0)" stroke="rgb(60, 60, 60)" stroke-width="1px" opacity="0.25"></line><line x1="898.9375" y1="0" x2="898.9375" y2="378" fill="rgb(0, 0, 0)" stroke="rgb(60, 60, 60)" stroke-width="1px" opacity="0.25"></line></g><g><line x1="0" y1="378" x2="898.9375" y2="378" fill="rgb(0, 0, 0)" stroke="rgb(60, 60, 60)" stroke-width="1px" opacity="0.25"></line><line x1="0" y1="340.2" x2="898.9375" y2="340.2" fill="rgb(0, 0, 0)" stroke="rgb(60, 60, 60)" stroke-width="1px" opacity="0.25"></line><line x1="0" y1="302.3999999999999" x2="898.9375" y2="302.3999999999999" fill="rgb(0, 0, 0)" stroke="rgb(60, 60, 60)" stroke-width="1px" opacity="0.25"></line><line x1="0" y1="264.5999999999999" x2="898.9375" y2="264.5999999999999" fill="rgb(0, 0, 0)" stroke="rgb(60, 60, 60)" stroke-width="1px" opacity="0.25"></line><line x1="0" y1="226.80000000000004" x2="898.9375" y2="226.80000000000004" fill="rgb(0, 0, 0)" stroke="rgb(60, 60, 60)" stroke-width="1px" opacity="0.25"></line><line x1="0" y1="189" x2="898.9375" y2="189" fill="rgb(0, 0, 0)" stroke="rgb(60, 60, 60)" stroke-width="1px" opacity="0.25"></line><line x1="0" y1="151.19999999999996" x2="898.9375" y2="151.19999999999996" fill="rgb(0, 0, 0)" stroke="rgb(60, 60, 60)" stroke-width="1px" opacity="0.25"></line><line x1="0" y1="113.39999999999993" x2="898.9375" y2="113.39999999999993" fill="rgb(0, 0, 0)" stroke="rgb(60, 60, 60)" stroke-width="1px" opacity="0.25"></line><line x1="0" y1="75.59999999999985" x2="898.9375" y2="75.59999999999985" fill="rgb(0, 0, 0)" stroke="rgb(60, 60, 60)" stroke-width="1px" opacity="0.25"></line><line x1="0" y1="37.79999999999983" x2="898.9375" y2="37.79999999999983" fill="rgb(0, 0, 0)" stroke="rgb(60, 60, 60)" stroke-width="1px" opacity="0.25"></line><line x1="0" y1="0" x2="898.9375" y2="0" fill="rgb(0, 0, 0)" stroke="rgb(60, 60, 60)" stroke-width="1px" opacity="0.25"></line></g></g></g><g><g><line x1="0" y1="1776.6000000000004" x2="898.9375" y2="1776.6000000000004" fill="rgb(0, 0, 0)" stroke="rgb(153, 153, 153)" stroke-width="1.5px"></line></g></g><g><g><line x1="74.91145833333333" y1="0" x2="74.91145833333333" y2="378" fill="rgb(0, 0, 0)" stroke="rgb(153, 153, 153)" stroke-width="1.5px"></line></g></g><g><g><g><g><g><path stroke="rgb(255, 112, 67)" stroke-width="2px" d="M74.91145833333333,246.137313580513L89.89375000000001,207.75425884723657L104.87604166666667,181.51776466369623L119.85833333333333,165.9702167272567L134.840625,157.22464356422418L149.82291666666666,151.88017044067377L164.80520833333333,135.84675107002252L179.78750000000002,134.38924942016595L194.76979166666666,120.299203133583L209.75208333333333,129.53053507804864L224.734375,113.0113569259643L239.71666666666667,113.98298714160913L254.69895833333334,110.09612832069391L269.68125,109.12438545227045L284.6635416666667,109.12438545227045L299.6458333333333,103.2940408945083L314.62812499999995,109.61025688648218L329.61041666666665,107.18101236820215L344.59270833333335,106.20926949977869L359.57500000000005,98.92131063938135L374.5572916666667,100.37892494201654L389.5395833333333,98.92131063938135L404.521875,102.32241067886346L419.50416666666666,94.06270895004262L434.48645833333336,102.8082821130752L449.46875,96.97793755531305L464.4510416666667,103.2940408945083L479.43333333333334,96.97793755531305L494.41562500000003,92.11933586597432L509.3979166666667,90.66172156333913L524.3802083333334,92.60509464740743L539.3625,90.1758501291274L554.3447916666667,86.28899130821218L569.3270833333333,91.63346443176259L584.309375,92.11933586597432L599.2916666666666,87.26062152385701L614.2739583333333,85.80311987400044L629.2562499999999,91.63346443176259L644.2385416666667,90.1758501291274L659.2208333333333,84.83137700557698L674.203125,87.74649295806874L689.1854166666667,87.74649295806874L704.1677083333333,86.28899130821218L719.1500000000001,86.28899130821218L734.1322916666667,80.94451818466176L749.1145833333334,83.85963413715352L764.096875,89.68997869491567L779.0791666666667,80.45864675045003L794.0614583333333,85.80311987400044L809.04375,85.80311987400044" style="fill: none;" fill="none"></path></g><g><path stroke="rgb(255, 112, 67)" stroke-width="2px" d="M74.91145833333333,326.3044104337692L89.89375000000001,280.6333968400955L104.87604166666667,258.28376147747036L119.85833333333333,234.96249589920038L134.840625,239.3352261543274L149.82291666666666,244.6796992778778L164.80520833333333,223.30180678367608L179.78750000000002,219.41494796276086L194.76979166666666,217.95733366012567L209.75208333333333,208.72600171566003L224.734375,217.95733366012567L239.71666666666667,214.07047483921045L254.69895833333334,208.72600171566003L269.68125,211.15524623394006L284.6635416666667,202.8956571578979L299.6458333333333,195.60769829750055L314.62812499999995,203.38152859210962L329.61041666666665,206.29664454460138L344.59270833333335,189.7773537397384L359.57500000000005,189.7773537397384L374.5572916666667,193.66421256065362L389.5395833333333,191.72083947658533L404.521875,181.0318932294845L419.50416666666666,167.913589811325L434.48645833333336,179.5742789268493L449.46875,177.63079319000238L464.4510416666667,177.63079319000238L479.43333333333334,171.80056128501886L494.41562500000003,183.94700918197626L509.3979166666667,176.65916297435754L524.3802083333334,175.20154867172235L539.3625,187.34810922145837L554.3447916666667,181.51776466369623L569.3270833333333,164.99847385883325L584.309375,172.7721915006637L599.2916666666666,168.88533267974847L614.2739583333333,172.28632006645196L629.2562499999999,169.85707554817193L644.2385416666667,178.1166646242141L659.2208333333333,174.71567723751062L674.203125,178.1166646242141L689.1854166666667,178.60253605842584L704.1677083333333,182.4895075321197L719.1500000000001,173.25806293487543L734.1322916666667,182.00363609790796L749.1145833333334,182.00363609790796L764.096875,176.65916297435754L779.0791666666667,175.68742010593408L794.0614583333333,178.60253605842584L809.04375,182.00363609790796" style="fill: none;" fill="none"></path></g><g><path stroke="rgb(0, 153, 136)" stroke-width="2px" d="M74.91145833333333,303.46890363693234L89.89375000000001,266.54346320629116L104.87604166666667,251.96765813827514L119.85833333333333,234.96249589920038L134.840625,220.3865781784057L149.82291666666666,220.3865781784057L164.80520833333333,191.72083947658533L179.78750000000002,189.7773537397384L194.76979166666666,201.92391428947442L209.75208333333333,187.34810922145837L224.734375,183.94700918197626L239.71666666666667,183.94700918197626L254.69895833333334,175.68742010593408L269.68125,177.63079319000238L284.6635416666667,173.25806293487543L299.6458333333333,173.74393436908716L314.62812499999995,184.432880616188L329.61041666666665,172.7721915006637L344.59270833333335,160.6257436037063L359.57500000000005,160.6257436037063L374.5572916666667,170.8288184165954L389.5395833333333,177.14503440856927L404.521875,172.7721915006637L419.50416666666666,178.1166646242141L434.48645833333336,165.9702167272567L449.46875,161.59737381935113L464.4510416666667,160.6257436037063L479.43333333333334,158.68225786685937L494.41562500000003,152.3660418748855L509.3979166666667,154.79539904594415L524.3802083333334,160.13987216949457L539.3625,166.45608816146844L554.3447916666667,164.99847385883325L569.3270833333333,158.68225786685937L584.309375,163.05498812198633L599.2916666666666,155.7671419143676L614.2739583333333,161.59737381935113L629.2562499999999,161.59737381935113L644.2385416666667,153.8236561775207L659.2208333333333,162.5691166877746L674.203125,157.22464356422418L689.1854166666667,159.65400073528284L704.1677083333333,154.30952761173242L719.1500000000001,159.65400073528284L734.1322916666667,166.94184694290155L749.1145833333334,171.80056128501886L764.096875,160.13987216949457L779.0791666666667,167.42771837711328L794.0614583333333,168.39946124553674L809.04375,159.65400073528284" style="fill: none;" fill="none"></path></g><g><path stroke="rgb(51, 187, 238)" stroke-width="2px" d="M74.91145833333333,290.35060021877285L89.89375000000001,242.25034210681915L104.87604166666667,209.21187314987176L119.85833333333333,207.75425884723657L134.840625,191.2349680423736L149.82291666666666,192.6925823450088L164.80520833333333,170.34294698238367L179.78750000000002,181.0318932294845L194.76979166666666,172.28632006645196L209.75208333333333,157.22464356422418L224.734375,160.6257436037063L239.71666666666667,166.45608816146844L254.69895833333334,160.13987216949457L269.68125,151.39429900646203L284.6635416666667,140.7053527593612L299.6458333333333,142.1629670619964L314.62812499999995,137.79023680686944L329.61041666666665,137.3043653726577L344.59270833333335,143.13470993041986L359.57500000000005,147.99331161975854L374.5572916666667,139.24785110950464L389.5395833333333,138.7619796752929L404.521875,134.38924942016595L419.50416666666666,133.90337798595422L434.48645833333336,132.44576368331903L449.46875,130.98814938068384L464.4510416666667,131.9598922491073L479.43333333333334,127.10129055976861L494.41562500000003,135.3608796358108L509.3979166666667,130.01640651226037L524.3802083333334,141.19122419357294L539.3625,133.4175065517425L554.3447916666667,135.3608796358108L569.3270833333333,123.70030317306512L584.309375,126.12954769134515L599.2916666666666,125.64367625713342L614.2739583333333,128.07303342819208L629.2562499999999,120.299203133583L644.2385416666667,120.299203133583L659.2208333333333,130.98814938068384L674.203125,127.58716199398035L689.1854166666667,124.67193338870996L704.1677083333333,123.70030317306512L719.1500000000001,130.98814938068384L734.1322916666667,129.04477629661554L749.1145833333334,127.58716199398035L764.096875,129.53053507804864L779.0791666666667,136.33262250423425L794.0614583333333,135.84675107002252L809.04375,136.33262250423425" style="fill: none;" fill="none"></path></g></g></g></g></g></g><g transform="translate(51, 378)" clip-path="url(#clip_1)"><clipPath id="clip_1"><rect width="898" height="22"></rect></clipPath><g><g><line x1="0" y1="0" x2="0" y2="5" style="visibility: inherit;" fill="rgb(0, 0, 0)" stroke="rgb(204, 204, 204)" stroke-width="1px"></line><line x1="74.91145833333333" y1="0" x2="74.91145833333333" y2="5" style="visibility: inherit;" fill="rgb(0, 0, 0)" stroke="rgb(204, 204, 204)" stroke-width="1px"></line><line x1="149.82291666666666" y1="0" x2="149.82291666666666" y2="5" style="visibility: inherit;" fill="rgb(0, 0, 0)" stroke="rgb(204, 204, 204)" stroke-width="1px"></line><line x1="224.734375" y1="0" x2="224.734375" y2="5" style="visibility: inherit;" fill="rgb(0, 0, 0)" stroke="rgb(204, 204, 204)" stroke-width="1px"></line><line x1="299.6458333333333" y1="0" x2="299.6458333333333" y2="5" style="visibility: inherit;" fill="rgb(0, 0, 0)" stroke="rgb(204, 204, 204)" stroke-width="1px"></line><line x1="374.5572916666667" y1="0" x2="374.5572916666667" y2="5" style="visibility: inherit;" fill="rgb(0, 0, 0)" stroke="rgb(204, 204, 204)" stroke-width="1px"></line><line x1="449.46875" y1="0" x2="449.46875" y2="5" style="visibility: inherit;" fill="rgb(0, 0, 0)" stroke="rgb(204, 204, 204)" stroke-width="1px"></line><line x1="524.3802083333334" y1="0" x2="524.3802083333334" y2="5" style="visibility: inherit;" fill="rgb(0, 0, 0)" stroke="rgb(204, 204, 204)" stroke-width="1px"></line><line x1="599.2916666666666" y1="0" x2="599.2916666666666" y2="5" style="visibility: inherit;" fill="rgb(0, 0, 0)" stroke="rgb(204, 204, 204)" stroke-width="1px"></line><line x1="674.203125" y1="0" x2="674.203125" y2="5" style="visibility: inherit;" fill="rgb(0, 0, 0)" stroke="rgb(204, 204, 204)" stroke-width="1px"></line><line x1="749.1145833333334" y1="0" x2="749.1145833333334" y2="5" style="visibility: inherit;" fill="rgb(0, 0, 0)" stroke="rgb(204, 204, 204)" stroke-width="1px"></line><line x1="824.0260416666666" y1="0" x2="824.0260416666666" y2="5" style="visibility: inherit;" fill="rgb(0, 0, 0)" stroke="rgb(204, 204, 204)" stroke-width="1px"></line><line x1="898.9375" y1="0" x2="898.9375" y2="5" style="visibility: inherit;" fill="rgb(0, 0, 0)" stroke="rgb(204, 204, 204)" stroke-width="1px"></line></g><g transform="translate(0, 8)"><text x="0" y="0" dx="0em" dy="0.95em" style="text-anchor: middle; visibility: hidden; font-family: Roboto, sans-serif; font-size: 12px; font-weight: 200;" fill="rgb(50, 49, 63)" stroke="none" stroke-width="1px">-5</text><text x="74.91145833333333" y="0" dx="0em" dy="0.95em" style="text-anchor: middle; visibility: inherit; font-family: Roboto, sans-serif; font-size: 12px; font-weight: 200;" fill="rgb(50, 49, 63)" stroke="none" stroke-width="1px">0</text><text x="149.82291666666666" y="0" dx="0em" dy="0.95em" style="text-anchor: middle; visibility: inherit; font-family: Roboto, sans-serif; font-size: 12px; font-weight: 200;" fill="rgb(50, 49, 63)" stroke="none" stroke-width="1px">5</text><text x="224.734375" y="0" dx="0em" dy="0.95em" style="text-anchor: middle; visibility: inherit; font-family: Roboto, sans-serif; font-size: 12px; font-weight: 200;" fill="rgb(50, 49, 63)" stroke="none" stroke-width="1px">10</text><text x="299.6458333333333" y="0" dx="0em" dy="0.95em" style="text-anchor: middle; visibility: inherit; font-family: Roboto, sans-serif; font-size: 12px; font-weight: 200;" fill="rgb(50, 49, 63)" stroke="none" stroke-width="1px">15</text><text x="374.5572916666667" y="0" dx="0em" dy="0.95em" style="text-anchor: middle; visibility: inherit; font-family: Roboto, sans-serif; font-size: 12px; font-weight: 200;" fill="rgb(50, 49, 63)" stroke="none" stroke-width="1px">20</text><text x="449.46875" y="0" dx="0em" dy="0.95em" style="text-anchor: middle; visibility: inherit; font-family: Roboto, sans-serif; font-size: 12px; font-weight: 200;" fill="rgb(50, 49, 63)" stroke="none" stroke-width="1px">25</text><text x="524.3802083333334" y="0" dx="0em" dy="0.95em" style="text-anchor: middle; visibility: inherit; font-family: Roboto, sans-serif; font-size: 12px; font-weight: 200;" fill="rgb(50, 49, 63)" stroke="none" stroke-width="1px">30</text><text x="599.2916666666666" y="0" dx="0em" dy="0.95em" style="text-anchor: middle; visibility: inherit; font-family: Roboto, sans-serif; font-size: 12px; font-weight: 200;" fill="rgb(50, 49, 63)" stroke="none" stroke-width="1px">35</text><text x="674.203125" y="0" dx="0em" dy="0.95em" style="text-anchor: middle; visibility: inherit; font-family: Roboto, sans-serif; font-size: 12px; font-weight: 200;" fill="rgb(50, 49, 63)" stroke="none" stroke-width="1px">40</text><text x="749.1145833333334" y="0" dx="0em" dy="0.95em" style="text-anchor: middle; visibility: inherit; font-family: Roboto, sans-serif; font-size: 12px; font-weight: 200;" fill="rgb(50, 49, 63)" stroke="none" stroke-width="1px">45</text><text x="824.0260416666666" y="0" dx="0em" dy="0.95em" style="text-anchor: middle; visibility: inherit; font-family: Roboto, sans-serif; font-size: 12px; font-weight: 200;" fill="rgb(50, 49, 63)" stroke="none" stroke-width="1px">50</text><text x="898.9375" y="0" dx="0em" dy="0.95em" style="text-anchor: middle; visibility: hidden; font-family: Roboto, sans-serif; font-size: 12px; font-weight: 200;" fill="rgb(50, 49, 63)" stroke="none" stroke-width="1px">55</text></g><line x1="0" y1="0" x2="898.9375" y2="0" fill="rgb(0, 0, 0)" stroke="rgb(204, 204, 204)" stroke-width="1px"></line></g></g></g></g></svg>