<svg viewBox="0 0 950.5 400" xmlns="http://www.w3.org/2000/svg"><g><g><g><g><g><line x1="41.171875" y1="313.8867087343988" x2="36.171875" y2="313.8867087343988" style="visibility: inherit;" fill="rgb(0, 0, 0)" stroke="rgb(204, 204, 204)" stroke-width="1px"></line><line x1="41.171875" y1="225.7076211302802" x2="36.171875" y2="225.7076211302802" style="visibility: inherit;" fill="rgb(0, 0, 0)" stroke="rgb(204, 204, 204)" stroke-width="1px"></line><line x1="41.171875" y1="163.14356281408888" x2="36.171875" y2="163.14356281408888" style="visibility: inherit;" fill="rgb(0, 0, 0)" stroke="rgb(204, 204, 204)" stroke-width="1px"></line><line x1="41.171875" y1="114.6151090306359" x2="36.171875" y2="114.6151090306359" style="visibility: inherit;" fill="rgb(0, 0, 0)" stroke="rgb(204, 204, 204)" stroke-width="1px"></line><line x1="41.171875" y1="74.96447520997023" x2="36.171875" y2="74.96447520997023" style="visibility: inherit;" fill="rgb(0, 0, 0)" stroke="rgb(204, 204, 204)" stroke-width="1px"></line><line x1="41.171875" y1="41.44034198887901" x2="36.171875" y2="41.44034198887901" style="visibility: inherit;" fill="rgb(0, 0, 0)" stroke="rgb(204, 204, 204)" stroke-width="1px"></line><line x1="41.171875" y1="12.400416893778967" x2="36.171875" y2="12.400416893778967" style="visibility: inherit;" fill="rgb(0, 0, 0)" stroke="rgb(204, 204, 204)" stroke-width="1px"></line></g><g transform="translate(31.171875, 0)"><text x="0" y="313.8867087343988" dx="0em" dy="0.3em" style="text-anchor: end; visibility: inherit; font-family: Roboto, sans-serif; font-size: 12px; font-weight: 200;" fill="rgb(50, 49, 63)" stroke="none" stroke-width="1px">0.2</text><text x="0" y="225.7076211302802" dx="0em" dy="0.3em" style="text-anchor: end; visibility: inherit; font-family: Roboto, sans-serif; font-size: 12px; font-weight: 200;" fill="rgb(50, 49, 63)" stroke="none" stroke-width="1px">0.3</text><text x="0" y="163.14356281408888" dx="0em" dy="0.3em" style="text-anchor: end; visibility: inherit; font-family: Roboto, sans-serif; font-size: 12px; font-weight: 200;" fill="rgb(50, 49, 63)" stroke="none" stroke-width="1px">0.4</text><text x="0" y="114.6151090306359" dx="0em" dy="0.3em" style="text-anchor: end; visibility: inherit; font-family: Roboto, sans-serif; font-size: 12px; font-weight: 200;" fill="rgb(50, 49, 63)" stroke="none" stroke-width="1px">0.5</text><text x="0" y="74.96447520997023" dx="0em" dy="0.3em" style="text-anchor: end; visibility: inherit; font-family: Roboto, sans-serif; font-size: 12px; font-weight: 200;" fill="rgb(50, 49, 63)" stroke="none" stroke-width="1px">0.6</text><text x="0" y="41.44034198887901" dx="0em" dy="0.3em" style="text-anchor: end; visibility: inherit; font-family: Roboto, sans-serif; font-size: 12px; font-weight: 200;" fill="rgb(50, 49, 63)" stroke="none" stroke-width="1px">0.7</text><text x="0" y="12.400416893778967" dx="0em" dy="0.3em" style="text-anchor: end; visibility: inherit; font-family: Roboto, sans-serif; font-size: 12px; font-weight: 200;" fill="rgb(50, 49, 63)" stroke="none" stroke-width="1px">0.8</text></g><line x1="41.171875" y1="0" x2="41.171875" y2="378" fill="rgb(0, 0, 0)" stroke="rgb(204, 204, 204)" stroke-width="1px"></line></g></g><g transform="translate(41, 0)" clip-path="url(#clip_0)"><clipPath id="clip_0"><rect width="909" height="378"></rect></clipPath><g><g><g><line x1="0" y1="0" x2="0" y2="378" fill="rgb(0, 0, 0)" stroke="rgb(60, 60, 60)" stroke-width="1px" opacity="0.25"></line><line x1="75.77734375" y1="0" x2="75.77734375" y2="378" fill="rgb(0, 0, 0)" stroke="rgb(60, 60, 60)" stroke-width="1px" opacity="0.25"></line><line x1="151.5546875" y1="0" x2="151.5546875" y2="378" fill="rgb(0, 0, 0)" stroke="rgb(60, 60, 60)" stroke-width="1px" opacity="0.25"></line><line x1="227.33203125" y1="0" x2="227.33203125" y2="378" fill="rgb(0, 0, 0)" stroke="rgb(60, 60, 60)" stroke-width="1px" opacity="0.25"></line><line x1="303.109375" y1="0" x2="303.109375" y2="378" fill="rgb(0, 0, 0)" stroke="rgb(60, 60, 60)" stroke-width="1px" opacity="0.25"></line><line x1="378.88671875" y1="0" x2="378.88671875" y2="378" fill="rgb(0, 0, 0)" stroke="rgb(60, 60, 60)" stroke-width="1px" opacity="0.25"></line><line x1="454.6640625" y1="0" x2="454.6640625" y2="378" fill="rgb(0, 0, 0)" stroke="rgb(60, 60, 60)" stroke-width="1px" opacity="0.25"></line><line x1="530.44140625" y1="0" x2="530.44140625" y2="378" fill="rgb(0, 0, 0)" stroke="rgb(60, 60, 60)" stroke-width="1px" opacity="0.25"></line><line x1="606.21875" y1="0" x2="606.21875" y2="378" fill="rgb(0, 0, 0)" stroke="rgb(60, 60, 60)" stroke-width="1px" opacity="0.25"></line><line x1="681.99609375" y1="0" x2="681.99609375" y2="378" fill="rgb(0, 0, 0)" stroke="rgb(60, 60, 60)" stroke-width="1px" opacity="0.25"></line><line x1="757.7734375" y1="0" x2="757.7734375" y2="378" fill="rgb(0, 0, 0)" stroke="rgb(60, 60, 60)" stroke-width="1px" opacity="0.25"></line><line x1="833.55078125" y1="0" x2="833.55078125" y2="378" fill="rgb(0, 0, 0)" stroke="rgb(60, 60, 60)" stroke-width="1px" opacity="0.25"></line><line x1="909.328125" y1="0" x2="909.328125" y2="378" fill="rgb(0, 0, 0)" stroke="rgb(60, 60, 60)" stroke-width="1px" opacity="0.25"></line></g><g><line x1="0" y1="313.8867087343988" x2="909.328125" y2="313.8867087343988" fill="rgb(0, 0, 0)" stroke="rgb(60, 60, 60)" stroke-width="1px" opacity="0.25"></line><line x1="0" y1="225.7076211302802" x2="909.328125" y2="225.7076211302802" fill="rgb(0, 0, 0)" stroke="rgb(60, 60, 60)" stroke-width="1px" opacity="0.25"></line><line x1="0" y1="163.14356281408888" x2="909.328125" y2="163.14356281408888" fill="rgb(0, 0, 0)" stroke="rgb(60, 60, 60)" stroke-width="1px" opacity="0.25"></line><line x1="0" y1="114.6151090306359" x2="909.328125" y2="114.6151090306359" fill="rgb(0, 0, 0)" stroke="rgb(60, 60, 60)" stroke-width="1px" opacity="0.25"></line><line x1="0" y1="74.96447520997023" x2="909.328125" y2="74.96447520997023" fill="rgb(0, 0, 0)" stroke="rgb(60, 60, 60)" stroke-width="1px" opacity="0.25"></line><line x1="0" y1="41.44034198887901" x2="909.328125" y2="41.44034198887901" fill="rgb(0, 0, 0)" stroke="rgb(60, 60, 60)" stroke-width="1px" opacity="0.25"></line><line x1="0" y1="12.400416893778967" x2="909.328125" y2="12.400416893778967" fill="rgb(0, 0, 0)" stroke="rgb(60, 60, 60)" stroke-width="1px" opacity="0.25"></line></g></g></g><g><g><line x1="75.77734375" y1="0" x2="75.77734375" y2="378" fill="rgb(0, 0, 0)" stroke="rgb(153, 153, 153)" stroke-width="1.5px"></line></g></g><g><g><g><g><g><path stroke="rgb(255, 112, 67)" stroke-width="2px" d="M75.77734375,121.42861084078409L90.93281250000001,177.59272166996857L106.08828125000001,206.56535340183544L121.24374999999999,227.0838331963789L136.39921875,239.58328564218507L151.5546875,253.02048011054876L166.71015624999998,263.8397370503469L181.86562500000002,271.4352455248961L197.02109375,280.54496542861546L212.17656250000002,284.71594608390484L227.33203125,293.01053666624557L242.48749999999998,294.2982502290086L257.64296874999997,299.7978473877161L272.7984375,304.6926705317812L287.95390625,307.35830730704686L303.109375,309.51038256740276L318.26484374999995,311.0147997905491L333.42031249999997,311.52960513944333L348.57578125000003,316.3907446655443L363.73125000000005,315.1595591655031L378.88671875,314.5636280106718L394.0421875,323.264718777368L409.19765625,318.55257899757675L424.35312500000003,320.4337670039186L439.50859375,323.5216236186541L454.6640625,321.37389915416463L469.81953125000007,317.61914833853467L484.97499999999997,321.50973478689673L500.13046875000003,323.5194725985532L515.2859374999999,321.7345019576471L530.44140625,322.4323775855358L545.596875,322.199043313241L560.75234375,324L575.9078125,320.3569175530174L591.06328125,321.89384500003155L606.21875,322.6679026191152L621.3742187500001,321.5733787305599L636.5296874999999,319.33149418597407L651.68515625,319.8555505052271L666.8406249999999,320.5049642096757L681.99609375,315.90349780520035L697.1515625000001,315.84036334594725L712.30703125,314.7678549281681L727.4625000000001,312.63876975135656L742.6179687499999,314.80721329074987L757.7734375,314.7347011573225L772.92890625,307.7278539043537L788.084375,307.8805014062113L803.23984375,307.8070161799161L818.3953125,308.237280324797" style="fill: none;" fill="none"></path></g><g><path stroke="rgb(238, 51, 119)" stroke-width="2px" d="M75.77734375,117.44474132490978L90.93281250000001,171.93929989371892L106.08828125000001,202.003697795472L121.24374999999999,219.16383161636713L136.39921875,232.90754414777228L151.5546875,243.58834617897122L166.71015624999998,258.3075738073954L181.86562500000002,262.6359007417018L197.02109375,268.75211515170764L212.17656250000002,275.44919188671065L227.33203125,281.2946544059426L242.48749999999998,285.17431035216225L257.64296874999997,295.93027727339927L272.7984375,294.47785168469085L287.95390625,296.8057914451403L303.109375,300.82744204351627L318.26484374999995,307.05375657135687L333.42031249999997,307.33560292364274L348.57578125000003,309.4099460317024L363.73125000000005,314.1368817383165L378.88671875,316.56321248980123L394.0421875,314.5089572120565L409.19765625,313.736229340314L424.35312500000003,314.4111886105417L439.50859375,316.9957703416383L454.6640625,315.163324120745L469.81953125000007,318.122137534638L484.97499999999997,320.8398015974843L500.13046875000003,317.2093696873716L515.2859374999999,318.76592397958495L530.44140625,315.2227408108442L545.596875,317.85017526567174L560.75234375,315.17590704149023L575.9078125,314.0483768213262L591.06328125,313.2735322346825L606.21875,309.3968352310978L621.3742187500001,311.7858928655897L636.5296874999999,313.4885511679145L651.68515625,318.7905497195594L666.8406249999999,310.79267470636444L681.99609375,311.5348465495812L697.1515625000001,308.7243408945919L712.30703125,306.2588959600924L727.4625000000001,305.6810418455844L742.6179687499999,306.9283174842306L757.7734375,301.7213577776668L772.92890625,302.8605974306906L788.084375,303.28228757940576L803.23984375,303.11603922196286L818.3953125,305.7419343447856" style="fill: none;" fill="none"></path></g><g><path stroke="rgb(204, 51, 17)" stroke-width="2px" d="M75.77734375,120.45872451858048L90.93281250000001,169.14190104231417L106.08828125000001,200.98964250549716L121.24374999999999,212.89417686774678L136.39921875,227.4129002644949L151.5546875,231.46922335722357L166.71015624999998,251.86728801912614L181.86562500000002,251.27753389792045L197.02109375,265.22478110835976L212.17656250000002,267.99626543862183L227.33203125,278.96969457304357L242.48749999999998,276.15534658723607L257.64296874999997,284.5615128350461L272.7984375,286.3007211380017L287.95390625,294.29044676501366L303.109375,287.71520747207813L318.26484374999995,299.06047217059245L333.42031249999997,300.20258833879944L348.57578125000003,296.06563596732286L363.73125000000005,299.25274677579165L378.88671875,300.5288625802549L394.0421875,306.27300801710584L409.19765625,300.7984215520525L424.35312500000003,303.82596102747345L439.50859375,306.917536647141L454.6640625,304.39773715586193L469.81953125000007,310.95193349899205L484.97499999999997,309.95149625478933L500.13046875000003,309.9236030906664L515.2859374999999,311.5632677710415L530.44140625,309.519926927736L545.596875,312.6313912486538L560.75234375,315.19201163433434L575.9078125,307.94708977742414L591.06328125,308.83595442996636L606.21875,313.83836035956136L621.3742187500001,309.60327127791396L636.5296874999999,308.70326547147783L651.68515625,306.7660808069268L666.8406249999999,302.9473908674686L681.99609375,307.2352697595702L697.1515625000001,300.0164653552794L712.30703125,301.7104949286928L727.4625000000001,301.7035699541638L742.6179687499999,301.64836189399756L757.7734375,299.76592701205817L772.92890625,299.18310368602243L788.084375,301.58603223448745L803.23984375,299.91179365130637L818.3953125,297.89931519891957" style="fill: none;" fill="none"></path></g><g><path stroke="rgb(255, 112, 67)" stroke-width="2px" d="M75.77734375,54.00000000000002L90.93281250000001,108.4159673352222L106.08828125000001,134.12557073892427L121.24374999999999,151.72403436090005L136.39921875,161.8052141584966L151.5546875,161.36668188361566L166.71015624999998,173.32656274165618L181.86562500000002,178.46518834339273L197.02109375,180.7531098038153L212.17656250000002,190.32798151248102L227.33203125,187.22863575915628L242.48749999999998,190.05655976622776L257.64296874999997,188.41433776788588L272.7984375,191.71874220934336L287.95390625,197.33772653246615L303.109375,198.97083141379275L318.26484374999995,198.22702674526914L333.42031249999997,202.2275752577496L348.57578125000003,207.60115491002472L363.73125000000005,210.50401267034857L378.88671875,205.19520412639878L394.0421875,208.52252266244358L409.19765625,210.33509716289808L424.35312500000003,212.94408470846318L439.50859375,210.6232669024702L454.6640625,208.92124684938713L469.81953125000007,211.17108785957112L484.97499999999997,213.56160708084892L500.13046875000003,205.2273698732574L515.2859374999999,215.31942907888546L530.44140625,209.6918109518885L545.596875,210.15961478553632L560.75234375,209.12289521771766L575.9078125,217.5045912107597L591.06328125,216.68070976001476L606.21875,215.7427719190291L621.3742187500001,216.2738877472232L636.5296874999999,217.2120462875467L651.68515625,217.32327135815652L666.8406249999999,214.9475456383467L681.99609375,210.91117312398382L697.1515625000001,215.61362418023782L712.30703125,207.02117959830252L727.4625000000001,214.66784335084728L742.6179687499999,208.96751060192034L757.7734375,210.72405324503018L772.92890625,214.3216934277543L788.084375,212.8451153842024L803.23984375,212.52686141570055L818.3953125,208.99669803168513" style="fill: none;" fill="none"></path></g><g><path stroke="rgb(0, 153, 136)" stroke-width="2px" d="M75.77734375,79.32402998943253L90.93281250000001,127.92082130552734L106.08828125000001,152.4716829101937L121.24374999999999,168.6954687617674L136.39921875,178.17625156831522L151.5546875,182.35164198020328L166.71015624999998,196.58845981785882L181.86562500000002,198.92288300888478L197.02109375,198.73995477404318L212.17656250000002,208.38175020973986L227.33203125,211.43404489294747L242.48749999999998,211.73050281379898L257.64296874999997,212.35909065159902L272.7984375,218.35871467417286L287.95390625,221.57506941392765L303.109375,218.4751253300791L318.26484374999995,217.64140379168123L333.42031249999997,223.09515585942955L348.57578125000003,223.15141080808203L363.73125000000005,228.1016473345701L378.88671875,225.5266002848668L394.0421875,227.30396841105951L409.19765625,224.91432393527532L424.35312500000003,220.77575528424057L439.50859375,230.93762664800786L454.6640625,230.10398881628143L469.81953125000007,228.56117315251612L484.97499999999997,230.68011735909352L500.13046875000003,237.0119618971338L515.2859374999999,238.9303725542525L530.44140625,237.71298274517048L545.596875,233.91838287047602L560.75234375,236.04738586437045L575.9078125,230.87080374074776L591.06328125,231.7243821005796L606.21875,231.59839682007816L621.3742187500001,230.0396254161312L636.5296874999999,226.66597218554844L651.68515625,232.22457971810047L666.8406249999999,232.6457303019602L681.99609375,236.1224818432321L697.1515625000001,229.74974139844068L712.30703125,233.10640823821043L727.4625000000001,232.63497970729273L742.6179687499999,232.3144013071668L757.7734375,228.13985493220483L772.92890625,231.4985530471382L788.084375,234.5973556718419L803.23984375,230.30341583984082L818.3953125,228.22997192824675" style="fill: none;" fill="none"></path></g><g><path stroke="rgb(51, 187, 238)" stroke-width="2px" d="M75.77734375,101.929435413078L90.93281250000001,153.0191159146928L106.08828125000001,180.2684763927082L121.24374999999999,191.40928175052198L136.39921875,208.1066948019235L151.5546875,218.39010933001492L166.71015624999998,228.3194265893797L181.86562500000002,228.90153933682114L197.02109375,235.6200096061951L212.17656250000002,242.55332079533437L227.33203125,244.805224674245L242.48749999999998,247.79590233092597L257.64296874999997,252.14467483276331L272.7984375,259.05359012007256L287.95390625,259.89112207392475L303.109375,263.0623731348492L318.26484374999995,261.4379277149093L333.42031249999997,265.4399735884543L348.57578125000003,264.3971308758892L363.73125000000005,262.6411749615876L378.88671875,269.8790125866563L394.0421875,267.578860685255L409.19765625,271.58919401983684L424.35312500000003,274.62170784452803L439.50859375,273.793735517286L454.6640625,274.2427772228267L469.81953125000007,270.66071792852813L484.97499999999997,278.32241154425657L500.13046875000003,276.96884312479966L515.2859374999999,276.24846201953767L530.44140625,276.27835079635423L545.596875,280.2766911562522L560.75234375,278.01722118781765L575.9078125,284.22652213301757L591.06328125,282.0357257707478L606.21875,278.82154861478887L621.3742187500001,282.99940888113815L636.5296874999999,278.6561538516526L651.68515625,281.0136969481736L666.8406249999999,280.1424699027406L681.99609375,275.4862500664659L697.1515625000001,280.5359722137502L712.30703125,275.58523410079357L727.4625000000001,273.16432772010813L742.6179687499999,277.6103760916634L757.7734375,276.59328432338236L772.92890625,278.3041543523042L788.084375,275.4709724776056L803.23984375,273.8921812061256L818.3953125,275.4408414281672" style="fill: none;" fill="none"></path></g></g></g></g></g></g><g transform="translate(41, 378)" clip-path="url(#clip_1)"><clipPath id="clip_1"><rect width="909" height="22"></rect></clipPath><g><g><line x1="0" y1="0" x2="0" y2="5" style="visibility: inherit;" fill="rgb(0, 0, 0)" stroke="rgb(204, 204, 204)" stroke-width="1px"></line><line x1="75.77734375" y1="0" x2="75.77734375" y2="5" style="visibility: inherit;" fill="rgb(0, 0, 0)" stroke="rgb(204, 204, 204)" stroke-width="1px"></line><line x1="151.5546875" y1="0" x2="151.5546875" y2="5" style="visibility: inherit;" fill="rgb(0, 0, 0)" stroke="rgb(204, 204, 204)" stroke-width="1px"></line><line x1="227.33203125" y1="0" x2="227.33203125" y2="5" style="visibility: inherit;" fill="rgb(0, 0, 0)" stroke="rgb(204, 204, 204)" stroke-width="1px"></line><line x1="303.109375" y1="0" x2="303.109375" y2="5" style="visibility: inherit;" fill="rgb(0, 0, 0)" stroke="rgb(204, 204, 204)" stroke-width="1px"></line><line x1="378.88671875" y1="0" x2="378.88671875" y2="5" style="visibility: inherit;" fill="rgb(0, 0, 0)" stroke="rgb(204, 204, 204)" stroke-width="1px"></line><line x1="454.6640625" y1="0" x2="454.6640625" y2="5" style="visibility: inherit;" fill="rgb(0, 0, 0)" stroke="rgb(204, 204, 204)" stroke-width="1px"></line><line x1="530.44140625" y1="0" x2="530.44140625" y2="5" style="visibility: inherit;" fill="rgb(0, 0, 0)" stroke="rgb(204, 204, 204)" stroke-width="1px"></line><line x1="606.21875" y1="0" x2="606.21875" y2="5" style="visibility: inherit;" fill="rgb(0, 0, 0)" stroke="rgb(204, 204, 204)" stroke-width="1px"></line><line x1="681.99609375" y1="0" x2="681.99609375" y2="5" style="visibility: inherit;" fill="rgb(0, 0, 0)" stroke="rgb(204, 204, 204)" stroke-width="1px"></line><line x1="757.7734375" y1="0" x2="757.7734375" y2="5" style="visibility: inherit;" fill="rgb(0, 0, 0)" stroke="rgb(204, 204, 204)" stroke-width="1px"></line><line x1="833.55078125" y1="0" x2="833.55078125" y2="5" style="visibility: inherit;" fill="rgb(0, 0, 0)" stroke="rgb(204, 204, 204)" stroke-width="1px"></line><line x1="909.328125" y1="0" x2="909.328125" y2="5" style="visibility: inherit;" fill="rgb(0, 0, 0)" stroke="rgb(204, 204, 204)" stroke-width="1px"></line></g><g transform="translate(0, 8)"><text x="0" y="0" dx="0em" dy="0.95em" style="text-anchor: middle; visibility: hidden; font-family: Roboto, sans-serif; font-size: 12px; font-weight: 200;" fill="rgb(50, 49, 63)" stroke="none" stroke-width="1px">-5</text><text x="75.77734375" y="0" dx="0em" dy="0.95em" style="text-anchor: middle; visibility: inherit; font-family: Roboto, sans-serif; font-size: 12px; font-weight: 200;" fill="rgb(50, 49, 63)" stroke="none" stroke-width="1px">0</text><text x="151.5546875" y="0" dx="0em" dy="0.95em" style="text-anchor: middle; visibility: inherit; font-family: Roboto, sans-serif; font-size: 12px; font-weight: 200;" fill="rgb(50, 49, 63)" stroke="none" stroke-width="1px">5</text><text x="227.33203125" y="0" dx="0em" dy="0.95em" style="text-anchor: middle; visibility: inherit; font-family: Roboto, sans-serif; font-size: 12px; font-weight: 200;" fill="rgb(50, 49, 63)" stroke="none" stroke-width="1px">10</text><text x="303.109375" y="0" dx="0em" dy="0.95em" style="text-anchor: middle; visibility: inherit; font-family: Roboto, sans-serif; font-size: 12px; font-weight: 200;" fill="rgb(50, 49, 63)" stroke="none" stroke-width="1px">15</text><text x="378.88671875" y="0" dx="0em" dy="0.95em" style="text-anchor: middle; visibility: inherit; font-family: Roboto, sans-serif; font-size: 12px; font-weight: 200;" fill="rgb(50, 49, 63)" stroke="none" stroke-width="1px">20</text><text x="454.6640625" y="0" dx="0em" dy="0.95em" style="text-anchor: middle; visibility: inherit; font-family: Roboto, sans-serif; font-size: 12px; font-weight: 200;" fill="rgb(50, 49, 63)" stroke="none" stroke-width="1px">25</text><text x="530.44140625" y="0" dx="0em" dy="0.95em" style="text-anchor: middle; visibility: inherit; font-family: Roboto, sans-serif; font-size: 12px; font-weight: 200;" fill="rgb(50, 49, 63)" stroke="none" stroke-width="1px">30</text><text x="606.21875" y="0" dx="0em" dy="0.95em" style="text-anchor: middle; visibility: inherit; font-family: Roboto, sans-serif; font-size: 12px; font-weight: 200;" fill="rgb(50, 49, 63)" stroke="none" stroke-width="1px">35</text><text x="681.99609375" y="0" dx="0em" dy="0.95em" style="text-anchor: middle; visibility: inherit; font-family: Roboto, sans-serif; font-size: 12px; font-weight: 200;" fill="rgb(50, 49, 63)" stroke="none" stroke-width="1px">40</text><text x="757.7734375" y="0" dx="0em" dy="0.95em" style="text-anchor: middle; visibility: inherit; font-family: Roboto, sans-serif; font-size: 12px; font-weight: 200;" fill="rgb(50, 49, 63)" stroke="none" stroke-width="1px">45</text><text x="833.55078125" y="0" dx="0em" dy="0.95em" style="text-anchor: middle; visibility: inherit; font-family: Roboto, sans-serif; font-size: 12px; font-weight: 200;" fill="rgb(50, 49, 63)" stroke="none" stroke-width="1px">50</text><text x="909.328125" y="0" dx="0em" dy="0.95em" style="text-anchor: middle; visibility: hidden; font-family: Roboto, sans-serif; font-size: 12px; font-weight: 200;" fill="rgb(50, 49, 63)" stroke="none" stroke-width="1px">55</text></g><line x1="0" y1="0" x2="909.328125" y2="0" fill="rgb(0, 0, 0)" stroke="rgb(204, 204, 204)" stroke-width="1px"></line></g></g></g></g></svg>