<svg viewBox="0 0 950.5 400" xmlns="http://www.w3.org/2000/svg"><g><g><g><g><g><line x1="41.171875" y1="252.1569822711569" x2="36.171875" y2="252.1569822711569" style="visibility: inherit;" fill="rgb(0, 0, 0)" stroke="rgb(204, 204, 204)" stroke-width="1px"></line><line x1="41.171875" y1="49.0678539230349" x2="36.171875" y2="49.0678539230349" style="visibility: inherit;" fill="rgb(0, 0, 0)" stroke="rgb(204, 204, 204)" stroke-width="1px"></line></g><g transform="translate(31.171875, 0)"><text x="0" y="252.1569822711569" dx="0em" dy="0.3em" style="text-anchor: end; visibility: inherit; font-family: Roboto, sans-serif; font-size: 12px; font-weight: 200;" fill="rgb(50, 49, 63)" stroke="none" stroke-width="1px">0.8</text><text x="0" y="49.0678539230349" dx="0em" dy="0.3em" style="text-anchor: end; visibility: inherit; font-family: Roboto, sans-serif; font-size: 12px; font-weight: 200;" fill="rgb(50, 49, 63)" stroke="none" stroke-width="1px">0.9</text></g><line x1="41.171875" y1="0" x2="41.171875" y2="378" fill="rgb(0, 0, 0)" stroke="rgb(204, 204, 204)" stroke-width="1px"></line></g></g><g transform="translate(41, 0)" clip-path="url(#clip_0)"><clipPath id="clip_0"><rect width="909" height="378"></rect></clipPath><g><g><g><line x1="0" y1="0" x2="0" y2="378" fill="rgb(0, 0, 0)" stroke="rgb(60, 60, 60)" stroke-width="1px" opacity="0.25"></line><line x1="75.77734375" y1="0" x2="75.77734375" y2="378" fill="rgb(0, 0, 0)" stroke="rgb(60, 60, 60)" stroke-width="1px" opacity="0.25"></line><line x1="151.5546875" y1="0" x2="151.5546875" y2="378" fill="rgb(0, 0, 0)" stroke="rgb(60, 60, 60)" stroke-width="1px" opacity="0.25"></line><line x1="227.33203125" y1="0" x2="227.33203125" y2="378" fill="rgb(0, 0, 0)" stroke="rgb(60, 60, 60)" stroke-width="1px" opacity="0.25"></line><line x1="303.109375" y1="0" x2="303.109375" y2="378" fill="rgb(0, 0, 0)" stroke="rgb(60, 60, 60)" stroke-width="1px" opacity="0.25"></line><line x1="378.88671875" y1="0" x2="378.88671875" y2="378" fill="rgb(0, 0, 0)" stroke="rgb(60, 60, 60)" stroke-width="1px" opacity="0.25"></line><line x1="454.6640625" y1="0" x2="454.6640625" y2="378" fill="rgb(0, 0, 0)" stroke="rgb(60, 60, 60)" stroke-width="1px" opacity="0.25"></line><line x1="530.44140625" y1="0" x2="530.44140625" y2="378" fill="rgb(0, 0, 0)" stroke="rgb(60, 60, 60)" stroke-width="1px" opacity="0.25"></line><line x1="606.21875" y1="0" x2="606.21875" y2="378" fill="rgb(0, 0, 0)" stroke="rgb(60, 60, 60)" stroke-width="1px" opacity="0.25"></line><line x1="681.99609375" y1="0" x2="681.99609375" y2="378" fill="rgb(0, 0, 0)" stroke="rgb(60, 60, 60)" stroke-width="1px" opacity="0.25"></line><line x1="757.7734375" y1="0" x2="757.7734375" y2="378" fill="rgb(0, 0, 0)" stroke="rgb(60, 60, 60)" stroke-width="1px" opacity="0.25"></line><line x1="833.55078125" y1="0" x2="833.55078125" y2="378" fill="rgb(0, 0, 0)" stroke="rgb(60, 60, 60)" stroke-width="1px" opacity="0.25"></line><line x1="909.328125" y1="0" x2="909.328125" y2="378" fill="rgb(0, 0, 0)" stroke="rgb(60, 60, 60)" stroke-width="1px" opacity="0.25"></line></g><g><line x1="0" y1="252.1569822711569" x2="909.328125" y2="252.1569822711569" fill="rgb(0, 0, 0)" stroke="rgb(60, 60, 60)" stroke-width="1px" opacity="0.25"></line><line x1="0" y1="49.0678539230349" x2="909.328125" y2="49.0678539230349" fill="rgb(0, 0, 0)" stroke="rgb(60, 60, 60)" stroke-width="1px" opacity="0.25"></line></g></g></g><g><g><line x1="75.77734375" y1="0" x2="75.77734375" y2="378" fill="rgb(0, 0, 0)" stroke="rgb(153, 153, 153)" stroke-width="1.5px"></line></g></g><g><g><g><g><g><path stroke="rgb(255, 112, 67)" stroke-width="2px" d="M75.77734375,231.22988987482228L90.93281250000001,188.5197621101789L106.08828125000001,159.9225895041212L121.24374999999999,143.19725808534682L136.39921875,133.8599851620898L151.5546875,128.17871254111773L166.71015624999998,111.24635375007036L181.86562500000002,109.71534775539516L197.02109375,94.98439012170735L212.17656250000002,104.62139705662165L227.33203125,87.41414043385785L242.48749999999998,88.4215031073225L257.64296874999997,84.39522910839617L272.7984375,83.39009877634082L287.95390625,83.39009877634082L303.109375,77.37170626489896L318.26484374999995,83.89259070194738L333.42031249999997,81.38171053020584L348.57578125000003,80.37833483202373L363.73125000000005,72.87168647555625L378.88671875,74.37042716230748L394.0421875,72.87168647555625L409.19765625,76.37077667722228L424.35312500000003,67.88538727527333L439.50859375,76.87122686645114L454.6640625,70.87550550046123L469.81953125000007,77.37170626489896L484.97499999999997,70.87550550046123L500.13046875000003,65.8949672735643L515.2859374999999,64.4035722515286L530.44140625,66.39227039992603L545.596875,63.90672710104591L560.75234375,59.93722636831631L575.9078125,65.39769225517475L591.06328125,65.8949672735643L606.21875,60.92865892352529L621.3742187500001,59.44166634088975L636.5296874999999,65.39769225517475L651.68515625,63.90672710104591L666.8406249999999,58.45097335881473L681.99609375,61.424646563934296L697.1515625000001,61.424646563934296L712.30703125,59.93722636831631L727.4625000000001,59.93722636831631L742.6179687499999,54.493998314026314L757.7734375,57.46084926215041L772.92890625,63.41002507475844L788.084375,53.99999999999998L803.23984375,59.44166634088975L818.3953125,59.44166634088975" style="fill: none;" fill="none"></path></g><g><path stroke="rgb(238, 51, 119)" stroke-width="2px" d="M75.77734375,249.94218282435887L90.93281250000001,181.05998066252266L106.08828125000001,170.9874168491946L121.24374999999999,142.15726945853325L136.39921875,140.0791721198314L151.5546875,133.34272071550222L166.71015624999998,118.92231713475894L181.86562500000002,124.57312271736205L197.02109375,115.33601132888639L212.17656250000002,106.657171821109L227.33203125,106.657171821109L242.48749999999998,98.52868956750497L257.64296874999997,88.92546366034986L272.7984375,95.99630391046226L287.95390625,98.0219148084317L303.109375,93.46774922523467L318.26484374999995,84.39522910839617L333.42031249999997,87.91780660231704L348.57578125000003,80.87994969617893L363.73125000000005,78.87436521010922L378.88671875,76.87122686645114L394.0421875,79.87686585283542L409.19765625,82.88775324622527L424.35312500000003,82.385670447866L439.50859375,75.37031183973814L454.6640625,81.38171053020584L469.81953125000007,76.37077667722228L484.97499999999997,71.8732492587644L500.13046875000003,77.87244709023967L515.2859374999999,72.87168647555625L530.44140625,73.87070217342006L545.596875,75.8704716963985L560.75234375,75.37031183973814L575.9078125,76.87122686645114L591.06328125,75.37031183973814L606.21875,76.87122686645114L621.3742187500001,66.39227039992603L636.5296874999999,74.87029702307278L651.68515625,68.88151731841161L666.8406249999999,73.87070217342006L681.99609375,75.37031183973814L697.1515625000001,66.39227039992603L712.30703125,77.37170626489896L727.4625000000001,69.87822317144915L742.6179687499999,74.87029702307278L757.7734375,69.87822317144915L772.92890625,76.87122686645114L788.084375,72.87168647555625L803.23984375,67.3875379745835L818.3953125,65.8949672735643" style="fill: none;" fill="none"></path></g><g><path stroke="rgb(204, 51, 17)" stroke-width="2px" d="M75.77734375,247.7301221038297L90.93281250000001,194.403717596889L106.08828125000001,167.81871571702288L121.24374999999999,160.9733519392833L136.39921875,145.27899829079092L151.5546875,150.4945529043132L166.71015624999998,132.82561139722552L181.86562500000002,126.11750355047857L197.02109375,118.40951384085238L212.17656250000002,117.89686301137826L227.33203125,109.71534775539516L242.48749999999998,111.75703079529646L257.64296874999997,100.55716171372235L272.7984375,99.54256855398636L287.95390625,93.46774922523467L303.109375,97.00881190661677L318.26484374999995,85.40094570559819L333.42031249999997,86.4072492522511L348.57578125000003,89.93382686794611L363.73125000000005,89.42957155183198L378.88671875,83.89259070194738L394.0421875,82.88775324622527L409.19765625,92.45731783949954L424.35312500000003,85.40094570559819L439.50859375,82.385670447866L454.6640625,86.91062134579444L469.81953125000007,84.39522910839617L484.97499999999997,80.37833483202373L500.13046875000003,82.88775324622527L515.2859374999999,79.87686585283542L530.44140625,76.37077667722228L545.596875,74.87029702307278L560.75234375,79.37554267378292L575.9078125,78.3733333771312L591.06328125,82.88775324622527L606.21875,72.37239559890064L621.3742187500001,82.88775324622527L636.5296874999999,78.87436521010922L651.68515625,72.87168647555625L666.8406249999999,81.88361741908373L681.99609375,79.37554267378292L697.1515625000001,81.38171053020584L712.30703125,75.37031183973814L727.4625000000001,75.8704716963985L742.6179687499999,80.87994969617893L757.7734375,76.87122686645114L772.92890625,78.87436521010922L788.084375,74.37042716230748L803.23984375,78.3733333771312L818.3953125,76.87122686645114" style="fill: none;" fill="none"></path></g><g><path stroke="rgb(255, 112, 67)" stroke-width="2px" d="M75.77734375,323.99999999999994L90.93281250000001,270.53888962482034L106.08828125000001,244.96903097310863L121.24374999999999,218.6857492360253L136.39921875,223.5834359601094L151.5546875,229.58847986162485L166.71015624999998,205.6927752311871L181.86562500000002,201.38349185425622L197.02109375,199.7702363919012L212.17656250000002,189.5881023505374L227.33203125,199.7702363919012L242.48749999999998,195.475710850571L257.64296874999997,189.5881023505374L272.7984375,192.26172842815694L287.95390625,183.18809086179428L303.109375,175.2213074732889L318.26484374999995,183.72052906215558L333.42031249999997,186.91849185307888L348.57578125000003,168.87430254228943L363.73125000000005,168.87430254228943L378.88671875,173.10300127907433L394.0421875,170.9874168491946L409.19765625,159.39744831349284L424.35312500000003,145.27899829079092L439.50859375,157.822983680639L454.6640625,155.72593139999378L469.81953125000007,155.72593139999378L484.97499999999997,149.45027596872492L500.13046875000003,162.55057522872798L515.2859374999999,154.67848230518533L530.44140625,153.1083188159895L545.596875,166.2366683865432L560.75234375,159.9225895041212L575.9078125,142.15726945853325L591.06328125,150.4945529043132L606.21875,146.32087206037602L621.3742187500001,149.97227484225357L636.5296874999999,147.3633757548788L651.68515625,156.2499554151656L666.8406249999999,152.58524856662433L681.99609375,156.2499554151656L697.1515625000001,156.77413873572348L712.30703125,160.9733519392833L727.4625000000001,151.01698921181358L742.6179687499999,160.4478906802148L757.7734375,160.4478906802148L772.92890625,154.67848230518533L788.084375,153.6315477912833L803.23984375,156.77413873572348L818.3953125,160.4478906802148" style="fill: none;" fill="none"></path></g><g><path stroke="rgb(0, 153, 136)" stroke-width="2px" d="M75.77734375,297.0622567947209L90.93281250000001,254.37470744319413L106.08828125000001,237.81107265809402L121.24374999999999,218.6857492360253L136.39921875,202.45970984037677L151.5546875,202.45970984037677L166.71015624999998,170.9874168491946L181.86562500000002,168.87430254228943L197.02109375,182.12370744447148L212.17656250000002,166.2366683865432L227.33203125,162.55057522872798L242.48749999999998,162.55057522872798L257.64296874999997,153.6315477912833L272.7984375,155.72593139999378L287.95390625,151.01698921181358L303.109375,151.53958386067762L318.26484374999995,163.07667775935852L333.42031249999997,150.4945529043132L348.57578125000003,137.48518771207003L363.73125000000005,137.48518771207003L378.88671875,148.40651013647516L394.0421875,155.2021880367774L409.19765625,150.4945529043132L424.35312500000003,156.2499554151656L439.50859375,143.19725808534682L454.6640625,138.5222410707067L469.81953125000007,137.48518771207003L484.97499999999997,135.41271020315912L500.13046875000003,128.69442991617657L515.2859374999999,131.27533305228627L530.44140625,136.96683475574213L545.596875,143.71748771893914L560.75234375,142.15726945853325L575.9078125,135.41271020315912L591.06328125,140.0791721198314L606.21875,132.30877695583965L621.3742187500001,138.5222410707067L636.5296874999999,138.5222410707067L651.68515625,130.2425081758555L666.8406249999999,139.56003888372848L681.99609375,133.8599851620898L697.1515625000001,136.4486375812048L712.30703125,130.75884328203327L727.4625000000001,136.4486375812048L742.6179687499999,144.23775368532864L757.7734375,149.45027596872492L772.92890625,136.96683475574213L788.084375,144.75829739004024L803.23984375,145.79985648255078L818.3953125,136.4486375812048" style="fill: none;" fill="none"></path></g><g><path stroke="rgb(51, 187, 238)" stroke-width="2px" d="M75.77734375,281.7755605163025L90.93281250000001,226.8562640427587L106.08828125000001,190.12252079885857L121.24374999999999,188.5197621101789L136.39921875,170.45889544264995L151.5546875,172.04494591766698L166.71015624999998,147.88486406210026L181.86562500000002,159.39744831349284L197.02109375,149.97227484225357L212.17656250000002,133.8599851620898L227.33203125,137.48518771207003L242.48749999999998,143.71748771893914L257.64296874999997,136.96683475574213L272.7984375,127.66314936795803L287.95390625,116.35982440362285L303.109375,117.89686301137826L318.26484374999995,113.2899700447132L333.42031249999997,112.77883885290802L348.57578125000003,118.92231713475894L363.73125000000005,124.05863634529925L378.88671875,114.82427335032105L394.0421875,114.31268720347019L409.19765625,109.71534775539516L424.35312500000003,109.20527495006151L439.50859375,107.67596124952578L454.6640625,106.14800275161299L469.81953125000007,107.16649129078739L484.97499999999997,102.08017172174061L500.13046875000003,110.73582790775035L515.2859374999999,105.13011545805047L530.44140625,116.87201838327556L545.596875,108.6953529900879L560.75234375,110.73582790775035L575.9078125,98.52868956750497L591.06328125,101.06468225933388L606.21875,100.55716171372235L621.3742187500001,103.09625959956128L636.5296874999999,94.98439012170735L651.68515625,94.98439012170735L666.8406249999999,106.14800275161299L681.99609375,102.58814081464757L697.1515625000001,99.54256855398636L712.30703125,98.52868956750497L727.4625000000001,106.14800275161299L742.6179687499999,104.11294659848951L757.7734375,102.58814081464757L772.92890625,104.62139705662165L788.084375,111.75703079529646L803.23984375,111.24635375007036L818.3953125,111.75703079529646" style="fill: none;" fill="none"></path></g></g></g></g></g></g><g transform="translate(41, 378)" clip-path="url(#clip_1)"><clipPath id="clip_1"><rect width="909" height="22"></rect></clipPath><g><g><line x1="0" y1="0" x2="0" y2="5" style="visibility: inherit;" fill="rgb(0, 0, 0)" stroke="rgb(204, 204, 204)" stroke-width="1px"></line><line x1="75.77734375" y1="0" x2="75.77734375" y2="5" style="visibility: inherit;" fill="rgb(0, 0, 0)" stroke="rgb(204, 204, 204)" stroke-width="1px"></line><line x1="151.5546875" y1="0" x2="151.5546875" y2="5" style="visibility: inherit;" fill="rgb(0, 0, 0)" stroke="rgb(204, 204, 204)" stroke-width="1px"></line><line x1="227.33203125" y1="0" x2="227.33203125" y2="5" style="visibility: inherit;" fill="rgb(0, 0, 0)" stroke="rgb(204, 204, 204)" stroke-width="1px"></line><line x1="303.109375" y1="0" x2="303.109375" y2="5" style="visibility: inherit;" fill="rgb(0, 0, 0)" stroke="rgb(204, 204, 204)" stroke-width="1px"></line><line x1="378.88671875" y1="0" x2="378.88671875" y2="5" style="visibility: inherit;" fill="rgb(0, 0, 0)" stroke="rgb(204, 204, 204)" stroke-width="1px"></line><line x1="454.6640625" y1="0" x2="454.6640625" y2="5" style="visibility: inherit;" fill="rgb(0, 0, 0)" stroke="rgb(204, 204, 204)" stroke-width="1px"></line><line x1="530.44140625" y1="0" x2="530.44140625" y2="5" style="visibility: inherit;" fill="rgb(0, 0, 0)" stroke="rgb(204, 204, 204)" stroke-width="1px"></line><line x1="606.21875" y1="0" x2="606.21875" y2="5" style="visibility: inherit;" fill="rgb(0, 0, 0)" stroke="rgb(204, 204, 204)" stroke-width="1px"></line><line x1="681.99609375" y1="0" x2="681.99609375" y2="5" style="visibility: inherit;" fill="rgb(0, 0, 0)" stroke="rgb(204, 204, 204)" stroke-width="1px"></line><line x1="757.7734375" y1="0" x2="757.7734375" y2="5" style="visibility: inherit;" fill="rgb(0, 0, 0)" stroke="rgb(204, 204, 204)" stroke-width="1px"></line><line x1="833.55078125" y1="0" x2="833.55078125" y2="5" style="visibility: inherit;" fill="rgb(0, 0, 0)" stroke="rgb(204, 204, 204)" stroke-width="1px"></line><line x1="909.328125" y1="0" x2="909.328125" y2="5" style="visibility: inherit;" fill="rgb(0, 0, 0)" stroke="rgb(204, 204, 204)" stroke-width="1px"></line></g><g transform="translate(0, 8)"><text x="0" y="0" dx="0em" dy="0.95em" style="text-anchor: middle; visibility: hidden; font-family: Roboto, sans-serif; font-size: 12px; font-weight: 200;" fill="rgb(50, 49, 63)" stroke="none" stroke-width="1px">-5</text><text x="75.77734375" y="0" dx="0em" dy="0.95em" style="text-anchor: middle; visibility: inherit; font-family: Roboto, sans-serif; font-size: 12px; font-weight: 200;" fill="rgb(50, 49, 63)" stroke="none" stroke-width="1px">0</text><text x="151.5546875" y="0" dx="0em" dy="0.95em" style="text-anchor: middle; visibility: inherit; font-family: Roboto, sans-serif; font-size: 12px; font-weight: 200;" fill="rgb(50, 49, 63)" stroke="none" stroke-width="1px">5</text><text x="227.33203125" y="0" dx="0em" dy="0.95em" style="text-anchor: middle; visibility: inherit; font-family: Roboto, sans-serif; font-size: 12px; font-weight: 200;" fill="rgb(50, 49, 63)" stroke="none" stroke-width="1px">10</text><text x="303.109375" y="0" dx="0em" dy="0.95em" style="text-anchor: middle; visibility: inherit; font-family: Roboto, sans-serif; font-size: 12px; font-weight: 200;" fill="rgb(50, 49, 63)" stroke="none" stroke-width="1px">15</text><text x="378.88671875" y="0" dx="0em" dy="0.95em" style="text-anchor: middle; visibility: inherit; font-family: Roboto, sans-serif; font-size: 12px; font-weight: 200;" fill="rgb(50, 49, 63)" stroke="none" stroke-width="1px">20</text><text x="454.6640625" y="0" dx="0em" dy="0.95em" style="text-anchor: middle; visibility: inherit; font-family: Roboto, sans-serif; font-size: 12px; font-weight: 200;" fill="rgb(50, 49, 63)" stroke="none" stroke-width="1px">25</text><text x="530.44140625" y="0" dx="0em" dy="0.95em" style="text-anchor: middle; visibility: inherit; font-family: Roboto, sans-serif; font-size: 12px; font-weight: 200;" fill="rgb(50, 49, 63)" stroke="none" stroke-width="1px">30</text><text x="606.21875" y="0" dx="0em" dy="0.95em" style="text-anchor: middle; visibility: inherit; font-family: Roboto, sans-serif; font-size: 12px; font-weight: 200;" fill="rgb(50, 49, 63)" stroke="none" stroke-width="1px">35</text><text x="681.99609375" y="0" dx="0em" dy="0.95em" style="text-anchor: middle; visibility: inherit; font-family: Roboto, sans-serif; font-size: 12px; font-weight: 200;" fill="rgb(50, 49, 63)" stroke="none" stroke-width="1px">40</text><text x="757.7734375" y="0" dx="0em" dy="0.95em" style="text-anchor: middle; visibility: inherit; font-family: Roboto, sans-serif; font-size: 12px; font-weight: 200;" fill="rgb(50, 49, 63)" stroke="none" stroke-width="1px">45</text><text x="833.55078125" y="0" dx="0em" dy="0.95em" style="text-anchor: middle; visibility: inherit; font-family: Roboto, sans-serif; font-size: 12px; font-weight: 200;" fill="rgb(50, 49, 63)" stroke="none" stroke-width="1px">50</text><text x="909.328125" y="0" dx="0em" dy="0.95em" style="text-anchor: middle; visibility: hidden; font-family: Roboto, sans-serif; font-size: 12px; font-weight: 200;" fill="rgb(50, 49, 63)" stroke="none" stroke-width="1px">55</text></g><line x1="0" y1="0" x2="909.328125" y2="0" fill="rgb(0, 0, 0)" stroke="rgb(204, 204, 204)" stroke-width="1px"></line></g></g></g></g></svg>