<svg viewBox="0 0 950.5 400" xmlns="http://www.w3.org/2000/svg"><g><g><g><g><g><line x1="41.171875" y1="331.67520758075636" x2="36.171875" y2="331.67520758075636" style="visibility: inherit;" fill="rgb(0, 0, 0)" stroke="rgb(204, 204, 204)" stroke-width="1px"></line><line x1="41.171875" y1="49.89648430691128" x2="36.171875" y2="49.89648430691128" style="visibility: inherit;" fill="rgb(0, 0, 0)" stroke="rgb(204, 204, 204)" stroke-width="1px"></line></g><g transform="translate(31.171875, 0)"><text x="0" y="331.67520758075636" dx="0em" dy="0.3em" style="text-anchor: end; visibility: inherit; font-family: Roboto, sans-serif; font-size: 12px; font-weight: 200;" fill="rgb(50, 49, 63)" stroke="none" stroke-width="1px">0.8</text><text x="0" y="49.89648430691128" dx="0em" dy="0.3em" style="text-anchor: end; visibility: inherit; font-family: Roboto, sans-serif; font-size: 12px; font-weight: 200;" fill="rgb(50, 49, 63)" stroke="none" stroke-width="1px">0.9</text></g><line x1="41.171875" y1="0" x2="41.171875" y2="378" fill="rgb(0, 0, 0)" stroke="rgb(204, 204, 204)" stroke-width="1px"></line></g></g><g transform="translate(41, 0)" clip-path="url(#clip_0)"><clipPath id="clip_0"><rect width="909" height="378"></rect></clipPath><g><g><g><line x1="0" y1="0" x2="0" y2="378" fill="rgb(0, 0, 0)" stroke="rgb(60, 60, 60)" stroke-width="1px" opacity="0.25"></line><line x1="75.77734375" y1="0" x2="75.77734375" y2="378" fill="rgb(0, 0, 0)" stroke="rgb(60, 60, 60)" stroke-width="1px" opacity="0.25"></line><line x1="151.5546875" y1="0" x2="151.5546875" y2="378" fill="rgb(0, 0, 0)" stroke="rgb(60, 60, 60)" stroke-width="1px" opacity="0.25"></line><line x1="227.33203125" y1="0" x2="227.33203125" y2="378" fill="rgb(0, 0, 0)" stroke="rgb(60, 60, 60)" stroke-width="1px" opacity="0.25"></line><line x1="303.109375" y1="0" x2="303.109375" y2="378" fill="rgb(0, 0, 0)" stroke="rgb(60, 60, 60)" stroke-width="1px" opacity="0.25"></line><line x1="378.88671875" y1="0" x2="378.88671875" y2="378" fill="rgb(0, 0, 0)" stroke="rgb(60, 60, 60)" stroke-width="1px" opacity="0.25"></line><line x1="454.6640625" y1="0" x2="454.6640625" y2="378" fill="rgb(0, 0, 0)" stroke="rgb(60, 60, 60)" stroke-width="1px" opacity="0.25"></line><line x1="530.44140625" y1="0" x2="530.44140625" y2="378" fill="rgb(0, 0, 0)" stroke="rgb(60, 60, 60)" stroke-width="1px" opacity="0.25"></line><line x1="606.21875" y1="0" x2="606.21875" y2="378" fill="rgb(0, 0, 0)" stroke="rgb(60, 60, 60)" stroke-width="1px" opacity="0.25"></line><line x1="681.99609375" y1="0" x2="681.99609375" y2="378" fill="rgb(0, 0, 0)" stroke="rgb(60, 60, 60)" stroke-width="1px" opacity="0.25"></line><line x1="757.7734375" y1="0" x2="757.7734375" y2="378" fill="rgb(0, 0, 0)" stroke="rgb(60, 60, 60)" stroke-width="1px" opacity="0.25"></line><line x1="833.55078125" y1="0" x2="833.55078125" y2="378" fill="rgb(0, 0, 0)" stroke="rgb(60, 60, 60)" stroke-width="1px" opacity="0.25"></line><line x1="909.328125" y1="0" x2="909.328125" y2="378" fill="rgb(0, 0, 0)" stroke="rgb(60, 60, 60)" stroke-width="1px" opacity="0.25"></line></g><g><line x1="0" y1="331.67520758075636" x2="909.328125" y2="331.67520758075636" fill="rgb(0, 0, 0)" stroke="rgb(60, 60, 60)" stroke-width="1px" opacity="0.25"></line><line x1="0" y1="49.89648430691128" x2="909.328125" y2="49.89648430691128" fill="rgb(0, 0, 0)" stroke="rgb(60, 60, 60)" stroke-width="1px" opacity="0.25"></line></g></g></g><g><g><line x1="75.77734375" y1="0" x2="75.77734375" y2="378" fill="rgb(0, 0, 0)" stroke="rgb(153, 153, 153)" stroke-width="1.5px"></line></g></g><g><g><g><g><g><path stroke="rgb(255, 112, 67)" stroke-width="2px" d="M75.77734375,302.6396337652785L90.93281250000001,243.38089662719423L106.08828125000001,203.70336759489618L121.24374999999999,180.49758316001626L136.39921875,167.54245914833194L151.5546875,159.65990157999144L166.71015624999998,136.166874252711L181.86562500000002,134.0426595396285L197.02109375,113.60399564666767L212.17656250000002,126.97498961561413L227.33203125,103.10055162060453L242.48749999999998,104.4982304146955L257.64296874999997,98.9119227861383L272.7984375,97.51734128394739L287.95390625,97.51734128394739L303.109375,89.16704222151783L318.26484374999995,98.2145304166425L333.42031249999997,94.73077619089104L348.57578125000003,93.3386291788998L363.73125000000005,82.92342966942448L378.88671875,85.00287745014185L394.0421875,82.92342966942448L409.19765625,87.77828909821382L424.35312500000003,76.0051222546195L439.50859375,88.47264539650531L454.6640625,80.15380171759419L469.81953125000007,89.16704222151783L484.97499999999997,80.15380171759419L500.13046875000003,73.24348744224832L515.2859374999999,71.17423150213789L530.44140625,73.9334773061374L545.596875,70.48487706299812L560.75234375,64.97734026080238L575.9078125,72.5535365771404L591.06328125,73.24348744224832L606.21875,66.35291659958116L621.3742187500001,64.28976888280884L636.5296874999999,72.5535365771404L651.68515625,70.48487706299812L666.8406249999999,62.91521867465128L681.99609375,67.04108127491764L697.1515625000001,67.04108127491764L712.30703125,64.97734026080238L727.4625000000001,64.97734026080238L742.6179687499999,57.42506080546343L757.7734375,61.5414577741538L772.92890625,69.79572120343421L788.084375,56.739656247582886L803.23984375,64.28976888280884L818.3953125,64.28976888280884" style="fill: none;" fill="none"></path></g><g><path stroke="rgb(187, 187, 187)" stroke-width="2px" d="M75.77734375,324L90.93281250000001,253.0320206000454L106.08828125000001,219.05541005969977L121.24374999999999,188.44921332597113L136.39921875,163.95634906193143L151.5546875,158.94457657031919L166.71015624999998,143.97227777580926L181.86562500000002,140.42129955188227L197.02109375,119.22475627072646L212.17656250000002,110.79864102787171L227.33203125,112.90230785986314L242.48749999999998,104.4982304146955L257.64296874999997,107.29636465100292L272.7984375,113.60399564666767L287.95390625,95.42715360656416L303.109375,101.00532050120016L318.26484374999995,96.12373378599916L333.42031249999997,96.82035526963132L348.57578125000003,96.82035526963132L363.73125000000005,88.47264539650531L378.88671875,85.00287745014185L394.0421875,85.69642856395672L409.19765625,78.078562686781L424.35312500000003,103.79936997222687L439.50859375,78.7701090320315L454.6640625,84.3095273407487L469.81953125000007,86.39018079877083L484.97499999999997,78.7701090320315L500.13046875000003,84.3095273407487L515.2859374999999,77.38721618575835L530.44140625,73.24348744224832L545.596875,73.24348744224832L560.75234375,86.39018079877083L575.9078125,91.25192644226044L591.06328125,81.53813461938888L606.21875,87.77828909821382L621.3742187500001,71.86378463532765L636.5296874999999,65.66510930615691L651.68515625,85.69642856395672L666.8406249999999,78.078562686781L681.99609375,71.17423150213789L697.1515625000001,69.79572120343421L712.30703125,73.24348744224832L727.4625000000001,85.69642856395672L742.6179687499999,72.5535365771404L757.7734375,78.7701090320315L772.92890625,82.92342966942448L788.084375,75.31437459386481L803.23984375,72.5535365771404L818.3953125,78.078562686781" style="fill: none;" fill="none"></path></g><g><path stroke="rgb(238, 51, 119)" stroke-width="2px" d="M75.77734375,319.4067593419926L90.93281250000001,250.05824201587433L106.08828125000001,205.16126196793505L121.24374999999999,193.5230759248822L136.39921875,177.6125607294908L151.5546875,153.22982878253984L166.71015624999998,135.45853835498312L181.86562500000002,120.63205305820878L197.02109375,143.97227777580926L212.17656250000002,126.97498961561413L227.33203125,118.5215812449727L242.48749999999998,98.2145304166425L257.64296874999997,111.49971198092449L272.7984375,105.89688844024788L287.95390625,105.19745721411834L303.109375,93.3386291788998L318.26484374999995,95.42715360656416L333.42031249999997,89.86180176676409L348.57578125000003,96.82035526963132L363.73125000000005,101.00532050120016L378.88671875,94.73077619089104L394.0421875,96.12373378599916L409.19765625,78.078562686781L424.35312500000003,80.8459482893462L439.50859375,86.39018079877083L454.6640625,88.47264539650531L469.81953125000007,84.3095273407487L484.97499999999997,81.53813461938888L500.13046875000003,71.86378463532765L515.2859374999999,86.39018079877083L530.44140625,76.0051222546195L545.596875,73.24348744224832L560.75234375,69.79572120343421L575.9078125,74.62382631606073L591.06328125,67.72944395894136L606.21875,78.078562686781L621.3742187500001,74.62382631606073L636.5296874999999,73.24348744224832L651.68515625,80.15380171759419L666.8406249999999,69.10676380907127L681.99609375,65.66510930615691L697.1515625000001,70.48487706299812L712.30703125,68.41800476563286L727.4625000000001,71.17423150213789L742.6179687499999,73.24348744224832L757.7734375,66.35291659958116L772.92890625,79.46185533707937L788.084375,77.38721618575835L803.23984375,58.79630027382776L818.3953125,59.48229439389262" style="fill: none;" fill="none"></path></g><g><path stroke="rgb(204, 51, 17)" stroke-width="2px" d="M75.77734375,309.48468263491367L90.93281250000001,241.8995315352721L106.08828125000001,225.6651107253405L121.24374999999999,186.2779187568931L136.39921875,171.853099107368L151.5546875,148.9527499863046L166.71015624999998,156.80004963957987L181.86562500000002,124.85891728341656L197.02109375,119.92830118458068L212.17656250000002,129.79955249929088L227.33203125,131.9201653165703L242.48749999999998,101.70352700418823L257.64296874999997,117.81844983778923L272.7984375,96.12373378599916L287.95390625,95.42715360656416L303.109375,91.25192644226044L318.26484374999995,80.8459482893462L333.42031249999997,87.08413427126305L348.57578125000003,81.53813461938888L363.73125000000005,88.47264539650531L378.88671875,79.46185533707937L394.0421875,81.53813461938888L409.19765625,85.00287745014185L424.35312500000003,76.0051222546195L439.50859375,85.69642856395672L454.6640625,76.0051222546195L469.81953125000007,75.31437459386481L484.97499999999997,73.9334773061374L500.13046875000003,76.0051222546195L515.2859374999999,78.078562686781L530.44140625,64.28976888280884L545.596875,63.60239505858854L560.75234375,65.66510930615691L575.9078125,65.66510930615691L591.06328125,73.9334773061374L606.21875,62.22823961760461L621.3742187500001,68.41800476563286L636.5296874999999,61.5414577741538L651.68515625,58.11066178662799L666.8406249999999,62.91521867465128L681.99609375,63.60239505858854L697.1515625000001,58.11066178662799L712.30703125,60.16848527534895L727.4625000000001,54.00000000000014L742.6179687499999,62.22823961760461L757.7734375,67.04108127491764L772.92890625,60.16848527534895L788.084375,61.5414577741538L803.23984375,58.79630027382776L818.3953125,66.35291659958116" style="fill: none;" fill="none"></path></g></g></g></g></g></g><g transform="translate(41, 378)" clip-path="url(#clip_1)"><clipPath id="clip_1"><rect width="909" height="22"></rect></clipPath><g><g><line x1="0" y1="0" x2="0" y2="5" style="visibility: inherit;" fill="rgb(0, 0, 0)" stroke="rgb(204, 204, 204)" stroke-width="1px"></line><line x1="75.77734375" y1="0" x2="75.77734375" y2="5" style="visibility: inherit;" fill="rgb(0, 0, 0)" stroke="rgb(204, 204, 204)" stroke-width="1px"></line><line x1="151.5546875" y1="0" x2="151.5546875" y2="5" style="visibility: inherit;" fill="rgb(0, 0, 0)" stroke="rgb(204, 204, 204)" stroke-width="1px"></line><line x1="227.33203125" y1="0" x2="227.33203125" y2="5" style="visibility: inherit;" fill="rgb(0, 0, 0)" stroke="rgb(204, 204, 204)" stroke-width="1px"></line><line x1="303.109375" y1="0" x2="303.109375" y2="5" style="visibility: inherit;" fill="rgb(0, 0, 0)" stroke="rgb(204, 204, 204)" stroke-width="1px"></line><line x1="378.88671875" y1="0" x2="378.88671875" y2="5" style="visibility: inherit;" fill="rgb(0, 0, 0)" stroke="rgb(204, 204, 204)" stroke-width="1px"></line><line x1="454.6640625" y1="0" x2="454.6640625" y2="5" style="visibility: inherit;" fill="rgb(0, 0, 0)" stroke="rgb(204, 204, 204)" stroke-width="1px"></line><line x1="530.44140625" y1="0" x2="530.44140625" y2="5" style="visibility: inherit;" fill="rgb(0, 0, 0)" stroke="rgb(204, 204, 204)" stroke-width="1px"></line><line x1="606.21875" y1="0" x2="606.21875" y2="5" style="visibility: inherit;" fill="rgb(0, 0, 0)" stroke="rgb(204, 204, 204)" stroke-width="1px"></line><line x1="681.99609375" y1="0" x2="681.99609375" y2="5" style="visibility: inherit;" fill="rgb(0, 0, 0)" stroke="rgb(204, 204, 204)" stroke-width="1px"></line><line x1="757.7734375" y1="0" x2="757.7734375" y2="5" style="visibility: inherit;" fill="rgb(0, 0, 0)" stroke="rgb(204, 204, 204)" stroke-width="1px"></line><line x1="833.55078125" y1="0" x2="833.55078125" y2="5" style="visibility: inherit;" fill="rgb(0, 0, 0)" stroke="rgb(204, 204, 204)" stroke-width="1px"></line><line x1="909.328125" y1="0" x2="909.328125" y2="5" style="visibility: inherit;" fill="rgb(0, 0, 0)" stroke="rgb(204, 204, 204)" stroke-width="1px"></line></g><g transform="translate(0, 8)"><text x="0" y="0" dx="0em" dy="0.95em" style="text-anchor: middle; visibility: hidden; font-family: Roboto, sans-serif; font-size: 12px; font-weight: 200;" fill="rgb(50, 49, 63)" stroke="none" stroke-width="1px">-5</text><text x="75.77734375" y="0" dx="0em" dy="0.95em" style="text-anchor: middle; visibility: inherit; font-family: Roboto, sans-serif; font-size: 12px; font-weight: 200;" fill="rgb(50, 49, 63)" stroke="none" stroke-width="1px">0</text><text x="151.5546875" y="0" dx="0em" dy="0.95em" style="text-anchor: middle; visibility: inherit; font-family: Roboto, sans-serif; font-size: 12px; font-weight: 200;" fill="rgb(50, 49, 63)" stroke="none" stroke-width="1px">5</text><text x="227.33203125" y="0" dx="0em" dy="0.95em" style="text-anchor: middle; visibility: inherit; font-family: Roboto, sans-serif; font-size: 12px; font-weight: 200;" fill="rgb(50, 49, 63)" stroke="none" stroke-width="1px">10</text><text x="303.109375" y="0" dx="0em" dy="0.95em" style="text-anchor: middle; visibility: inherit; font-family: Roboto, sans-serif; font-size: 12px; font-weight: 200;" fill="rgb(50, 49, 63)" stroke="none" stroke-width="1px">15</text><text x="378.88671875" y="0" dx="0em" dy="0.95em" style="text-anchor: middle; visibility: inherit; font-family: Roboto, sans-serif; font-size: 12px; font-weight: 200;" fill="rgb(50, 49, 63)" stroke="none" stroke-width="1px">20</text><text x="454.6640625" y="0" dx="0em" dy="0.95em" style="text-anchor: middle; visibility: inherit; font-family: Roboto, sans-serif; font-size: 12px; font-weight: 200;" fill="rgb(50, 49, 63)" stroke="none" stroke-width="1px">25</text><text x="530.44140625" y="0" dx="0em" dy="0.95em" style="text-anchor: middle; visibility: inherit; font-family: Roboto, sans-serif; font-size: 12px; font-weight: 200;" fill="rgb(50, 49, 63)" stroke="none" stroke-width="1px">30</text><text x="606.21875" y="0" dx="0em" dy="0.95em" style="text-anchor: middle; visibility: inherit; font-family: Roboto, sans-serif; font-size: 12px; font-weight: 200;" fill="rgb(50, 49, 63)" stroke="none" stroke-width="1px">35</text><text x="681.99609375" y="0" dx="0em" dy="0.95em" style="text-anchor: middle; visibility: inherit; font-family: Roboto, sans-serif; font-size: 12px; font-weight: 200;" fill="rgb(50, 49, 63)" stroke="none" stroke-width="1px">40</text><text x="757.7734375" y="0" dx="0em" dy="0.95em" style="text-anchor: middle; visibility: inherit; font-family: Roboto, sans-serif; font-size: 12px; font-weight: 200;" fill="rgb(50, 49, 63)" stroke="none" stroke-width="1px">45</text><text x="833.55078125" y="0" dx="0em" dy="0.95em" style="text-anchor: middle; visibility: inherit; font-family: Roboto, sans-serif; font-size: 12px; font-weight: 200;" fill="rgb(50, 49, 63)" stroke="none" stroke-width="1px">50</text><text x="909.328125" y="0" dx="0em" dy="0.95em" style="text-anchor: middle; visibility: hidden; font-family: Roboto, sans-serif; font-size: 12px; font-weight: 200;" fill="rgb(50, 49, 63)" stroke="none" stroke-width="1px">55</text></g><line x1="0" y1="0" x2="909.328125" y2="0" fill="rgb(0, 0, 0)" stroke="rgb(204, 204, 204)" stroke-width="1px"></line></g></g></g></g></svg>