<svg viewBox="0 0 950.5 400" xmlns="http://www.w3.org/2000/svg"><g><g><g><g><g><line x1="41.171875" y1="304.8661937240399" x2="36.171875" y2="304.8661937240399" style="visibility: inherit;" fill="rgb(0, 0, 0)" stroke="rgb(204, 204, 204)" stroke-width="1px"></line><line x1="41.171875" y1="189.92609863107143" x2="36.171875" y2="189.92609863107143" style="visibility: inherit;" fill="rgb(0, 0, 0)" stroke="rgb(204, 204, 204)" stroke-width="1px"></line><line x1="41.171875" y1="108.37480333360038" x2="36.171875" y2="108.37480333360038" style="visibility: inherit;" fill="rgb(0, 0, 0)" stroke="rgb(204, 204, 204)" stroke-width="1px"></line><line x1="41.171875" y1="45.11870436343722" x2="36.171875" y2="45.11870436343722" style="visibility: inherit;" fill="rgb(0, 0, 0)" stroke="rgb(204, 204, 204)" stroke-width="1px"></line></g><g transform="translate(31.171875, 0)"><text x="0" y="304.8661937240399" dx="0em" dy="0.3em" style="text-anchor: end; visibility: inherit; font-family: Roboto, sans-serif; font-size: 12px; font-weight: 200;" fill="rgb(50, 49, 63)" stroke="none" stroke-width="1px">0.2</text><text x="0" y="189.92609863107143" dx="0em" dy="0.3em" style="text-anchor: end; visibility: inherit; font-family: Roboto, sans-serif; font-size: 12px; font-weight: 200;" fill="rgb(50, 49, 63)" stroke="none" stroke-width="1px">0.3</text><text x="0" y="108.37480333360038" dx="0em" dy="0.3em" style="text-anchor: end; visibility: inherit; font-family: Roboto, sans-serif; font-size: 12px; font-weight: 200;" fill="rgb(50, 49, 63)" stroke="none" stroke-width="1px">0.4</text><text x="0" y="45.11870436343722" dx="0em" dy="0.3em" style="text-anchor: end; visibility: inherit; font-family: Roboto, sans-serif; font-size: 12px; font-weight: 200;" fill="rgb(50, 49, 63)" stroke="none" stroke-width="1px">0.5</text></g><line x1="41.171875" y1="0" x2="41.171875" y2="378" fill="rgb(0, 0, 0)" stroke="rgb(204, 204, 204)" stroke-width="1px"></line></g></g><g transform="translate(41, 0)" clip-path="url(#clip_0)"><clipPath id="clip_0"><rect width="909" height="378"></rect></clipPath><g><g><g><line x1="0" y1="0" x2="0" y2="378" fill="rgb(0, 0, 0)" stroke="rgb(60, 60, 60)" stroke-width="1px" opacity="0.25"></line><line x1="75.77734375" y1="0" x2="75.77734375" y2="378" fill="rgb(0, 0, 0)" stroke="rgb(60, 60, 60)" stroke-width="1px" opacity="0.25"></line><line x1="151.5546875" y1="0" x2="151.5546875" y2="378" fill="rgb(0, 0, 0)" stroke="rgb(60, 60, 60)" stroke-width="1px" opacity="0.25"></line><line x1="227.33203125" y1="0" x2="227.33203125" y2="378" fill="rgb(0, 0, 0)" stroke="rgb(60, 60, 60)" stroke-width="1px" opacity="0.25"></line><line x1="303.109375" y1="0" x2="303.109375" y2="378" fill="rgb(0, 0, 0)" stroke="rgb(60, 60, 60)" stroke-width="1px" opacity="0.25"></line><line x1="378.88671875" y1="0" x2="378.88671875" y2="378" fill="rgb(0, 0, 0)" stroke="rgb(60, 60, 60)" stroke-width="1px" opacity="0.25"></line><line x1="454.6640625" y1="0" x2="454.6640625" y2="378" fill="rgb(0, 0, 0)" stroke="rgb(60, 60, 60)" stroke-width="1px" opacity="0.25"></line><line x1="530.44140625" y1="0" x2="530.44140625" y2="378" fill="rgb(0, 0, 0)" stroke="rgb(60, 60, 60)" stroke-width="1px" opacity="0.25"></line><line x1="606.21875" y1="0" x2="606.21875" y2="378" fill="rgb(0, 0, 0)" stroke="rgb(60, 60, 60)" stroke-width="1px" opacity="0.25"></line><line x1="681.99609375" y1="0" x2="681.99609375" y2="378" fill="rgb(0, 0, 0)" stroke="rgb(60, 60, 60)" stroke-width="1px" opacity="0.25"></line><line x1="757.7734375" y1="0" x2="757.7734375" y2="378" fill="rgb(0, 0, 0)" stroke="rgb(60, 60, 60)" stroke-width="1px" opacity="0.25"></line><line x1="833.55078125" y1="0" x2="833.55078125" y2="378" fill="rgb(0, 0, 0)" stroke="rgb(60, 60, 60)" stroke-width="1px" opacity="0.25"></line><line x1="909.328125" y1="0" x2="909.328125" y2="378" fill="rgb(0, 0, 0)" stroke="rgb(60, 60, 60)" stroke-width="1px" opacity="0.25"></line></g><g><line x1="0" y1="304.8661937240399" x2="909.328125" y2="304.8661937240399" fill="rgb(0, 0, 0)" stroke="rgb(60, 60, 60)" stroke-width="1px" opacity="0.25"></line><line x1="0" y1="189.92609863107143" x2="909.328125" y2="189.92609863107143" fill="rgb(0, 0, 0)" stroke="rgb(60, 60, 60)" stroke-width="1px" opacity="0.25"></line><line x1="0" y1="108.37480333360038" x2="909.328125" y2="108.37480333360038" fill="rgb(0, 0, 0)" stroke="rgb(60, 60, 60)" stroke-width="1px" opacity="0.25"></line><line x1="0" y1="45.11870436343722" x2="909.328125" y2="45.11870436343722" fill="rgb(0, 0, 0)" stroke="rgb(60, 60, 60)" stroke-width="1px" opacity="0.25"></line></g></g></g><g><g><line x1="75.77734375" y1="0" x2="75.77734375" y2="378" fill="rgb(0, 0, 0)" stroke="rgb(153, 153, 153)" stroke-width="1.5px"></line></g></g><g><g><g><g><g><path stroke="rgb(255, 112, 67)" stroke-width="2px" d="M75.77734375,54.00000000000006L90.93281250000001,127.20906141034925L106.08828125000001,164.97444475503684L121.24374999999999,191.7199700584516L136.39921875,208.01281558188262L151.5546875,225.52799352192164L166.71015624999998,239.6307298427902L181.86562500000002,249.5313592331011L197.02109375,261.4057401147071L212.17656250000002,266.8425497503684L227.33203125,277.65442200030265L242.48749999999998,279.3329369790578L257.64296874999997,286.5015779524459L272.7984375,292.8819052265039L287.95390625,296.3565220858649L303.109375,299.1617193474091L318.26484374999995,301.12270424061035L333.42031249999997,301.7937451570453L348.57578125000003,308.13016634909366L363.73125000000005,306.525334837487L378.88671875,305.74854767098003L394.0421875,317.0902867080927L409.19765625,310.9480844116463L424.35312500000003,313.40018427127995L439.50859375,317.4251582483817L454.6640625,314.62563218285703L469.81953125000007,309.7313717915899L484.97499999999997,314.8026918572929L500.13046875000003,317.4223544265044L515.2859374999999,315.0956724344544L530.44140625,316.005342665935L545.596875,315.7011950026431L560.75234375,318.0487145615178L575.9078125,313.30001218474086L591.06328125,315.30337365865273L606.21875,316.3123459531309L621.3742187500001,314.8856507666613L636.5296874999999,311.963388473599L651.68515625,312.6464878887283L666.8406249999999,313.49298874252617L681.99609375,307.49504750194575L697.1515625000001,307.4127526977313L712.30703125,306.0147543414658L727.4625000000001,303.2395243029967L742.6179687499999,306.06605736648874L757.7734375,305.97153890709L772.92890625,296.83822043623155L788.084375,297.037194125526L803.23984375,296.94140725442327L818.3953125,297.5022500015124" style="fill: none;" fill="none"></path></g><g><path stroke="rgb(187, 187, 187)" stroke-width="2px" d="M75.77734375,55.763900088537774L90.93281250000001,130.93239905532735L106.08828125000001,157.93664777734259L121.24374999999999,182.74354912193942L136.39921875,206.2146151729894L151.5546875,216.47775443088918L166.71015624999998,229.38713279879508L181.86562500000002,238.18532067400415L197.02109375,250.24225912397512L212.17656250000002,257.33229016184623L227.33203125,263.436212701821L242.48749999999998,272.27421660677106L257.64296874999997,275.02938391055613L272.7984375,272.9006356038504L287.95390625,282.444128803L303.109375,284.88092472337354L318.26484374999995,288.53443518716966L333.42031249999997,296.7177293512512L348.57578125000003,295.1671113849357L363.73125000000005,293.97260957337323L378.88671875,301.56898366027224L394.0421875,298.40589718470943L409.19765625,299.21266644125484L424.35312500000003,298.8389222694594L439.50859375,302.59730009709773L454.6640625,298.64956932141035L469.81953125000007,304.9866241534344L484.97499999999997,308.9507114162927L500.13046875000003,307.74408095146583L515.2859374999999,301.3135292246875L530.44140625,300.8827915561817L545.596875,303.4587634385397L560.75234375,292.73665423800276L575.9078125,294.71016716199347L591.06328125,311.39719116308135L606.21875,299.57450715374375L621.3742187500001,304.5562438609623L636.5296874999999,304.16508982887143L651.68515625,295.12825287803435L666.8406249999999,300.0869410529552L681.99609375,307.9910697499844L697.1515625000001,298.1295360339846L712.30703125,296.49994904914877L727.4625000000001,295.3356687473183L742.6179687499999,294.9964511963089L757.7734375,284.602999952699L772.92890625,292.89526816923654L788.084375,291.9048190762607L803.23984375,297.897149798101L818.3953125,284.0983685174873" style="fill: none;" fill="none"></path></g><g><path stroke="rgb(238, 51, 119)" stroke-width="2px" d="M75.77734375,54.579165962044776L90.93281250000001,122.63827144850679L106.08828125000001,162.81173953535742L121.24374999999999,186.01966585988288L136.39921875,201.1257661994724L151.5546875,220.02690546785084L166.71015624999998,237.55087115844702L181.86562500000002,248.38072101162757L197.02109375,247.42260813196293L212.17656250000002,257.50587246752167L227.33203125,260.1251486827932L242.48749999999998,274.7508244105049L257.64296874999997,274.00492730165143L272.7984375,276.48719501132655L287.95390625,282.2743256340545L303.109375,291.411382693895L318.26484374999995,298.08927949627684L333.42031249999997,301.2367834569286L348.57578125000003,300.73461177205274L363.73125000000005,297.9305569942886L378.88671875,308.49478566423767L394.0421875,303.15062490191974L409.19765625,307.3472919978997L424.35312500000003,303.7687520951903L439.50859375,307.84700415160347L454.6640625,309.0372048585958L469.81953125000007,314.56095437091733L484.97499999999997,310.3908439774772L500.13046875000003,320.90825719975965L515.2859374999999,314.2404279935407L530.44140625,316.4940934311813L545.596875,312.29427093227287L560.75234375,313.765394953558L575.9078125,312.3217209686748L591.06328125,312.6454458874855L606.21875,305.6152944919487L621.3742187500001,309.8023714382128L636.5296874999999,311.3033200969501L651.68515625,309.90131494553293L666.8406249999999,308.0834229613212L681.99609375,308.055419075255L697.1515625000001,298.47306269968357L712.30703125,313.37408780682097L727.4625000000001,288.59220224402907L742.6179687499999,297.88058161902995L757.7734375,301.71367354143206L772.92890625,302.96827312864593L788.084375,301.96681303141406L803.23984375,298.6396514656175L818.3953125,306.27660514731207" style="fill: none;" fill="none"></path></g><g><path stroke="rgb(204, 51, 17)" stroke-width="2px" d="M75.77734375,56.33601440112907L90.93281250000001,119.82755292443021L106.08828125000001,159.6752284832745L121.24374999999999,188.875129139553L136.39921875,206.14104290458576L151.5546875,223.40797781954828L166.71015624999998,229.093942472288L181.86562500000002,254.45516836527335L197.02109375,253.5600937137395L212.17656250000002,266.99389222277836L227.33203125,264.4632385601468L242.48749999999998,278.68584131033526L257.64296874999997,274.34637461553046L272.7984375,286.08146616091153L287.95390625,295.19930022165227L303.109375,302.66896609935065L318.26484374999995,300.3806847054098L333.42031249999997,298.85420251686594L348.57578125000003,306.30925267606074L363.73125000000005,303.641914785511L378.88671875,309.52069092153806L394.0421875,307.91008255108613L409.19765625,312.1872498503361L424.35312500000003,313.9706185273025L439.50859375,315.8232495815828L454.6640625,317.4227076623795L469.81953125000007,318.23855335829364L484.97499999999997,315.73915995630676L500.13046875000003,319.9752798096573L515.2859374999999,319.2959124616045L530.44140625,323.9910523289414L545.596875,324L560.75234375,322.1360038260557L575.9078125,320.92669686871255L591.06328125,314.905737824148L606.21875,320.1206741782155L621.3742187500001,321.7892465794175L636.5296874999999,317.2083523397418L651.68515625,311.8543923663595L666.8406249999999,315.2805633336441L681.99609375,316.41374236414174L697.1515625000001,313.49237909021605L712.30703125,315.08244709521114L727.4625000000001,312.91332282583926L742.6179687499999,304.8154621330068L757.7734375,304.9744748543746L772.92890625,301.1805303280583L788.084375,308.8217917430218L803.23984375,304.3315800349491L818.3953125,298.8503358540926" style="fill: none;" fill="none"></path></g></g></g></g></g></g><g transform="translate(41, 378)" clip-path="url(#clip_1)"><clipPath id="clip_1"><rect width="909" height="22"></rect></clipPath><g><g><line x1="0" y1="0" x2="0" y2="5" style="visibility: inherit;" fill="rgb(0, 0, 0)" stroke="rgb(204, 204, 204)" stroke-width="1px"></line><line x1="75.77734375" y1="0" x2="75.77734375" y2="5" style="visibility: inherit;" fill="rgb(0, 0, 0)" stroke="rgb(204, 204, 204)" stroke-width="1px"></line><line x1="151.5546875" y1="0" x2="151.5546875" y2="5" style="visibility: inherit;" fill="rgb(0, 0, 0)" stroke="rgb(204, 204, 204)" stroke-width="1px"></line><line x1="227.33203125" y1="0" x2="227.33203125" y2="5" style="visibility: inherit;" fill="rgb(0, 0, 0)" stroke="rgb(204, 204, 204)" stroke-width="1px"></line><line x1="303.109375" y1="0" x2="303.109375" y2="5" style="visibility: inherit;" fill="rgb(0, 0, 0)" stroke="rgb(204, 204, 204)" stroke-width="1px"></line><line x1="378.88671875" y1="0" x2="378.88671875" y2="5" style="visibility: inherit;" fill="rgb(0, 0, 0)" stroke="rgb(204, 204, 204)" stroke-width="1px"></line><line x1="454.6640625" y1="0" x2="454.6640625" y2="5" style="visibility: inherit;" fill="rgb(0, 0, 0)" stroke="rgb(204, 204, 204)" stroke-width="1px"></line><line x1="530.44140625" y1="0" x2="530.44140625" y2="5" style="visibility: inherit;" fill="rgb(0, 0, 0)" stroke="rgb(204, 204, 204)" stroke-width="1px"></line><line x1="606.21875" y1="0" x2="606.21875" y2="5" style="visibility: inherit;" fill="rgb(0, 0, 0)" stroke="rgb(204, 204, 204)" stroke-width="1px"></line><line x1="681.99609375" y1="0" x2="681.99609375" y2="5" style="visibility: inherit;" fill="rgb(0, 0, 0)" stroke="rgb(204, 204, 204)" stroke-width="1px"></line><line x1="757.7734375" y1="0" x2="757.7734375" y2="5" style="visibility: inherit;" fill="rgb(0, 0, 0)" stroke="rgb(204, 204, 204)" stroke-width="1px"></line><line x1="833.55078125" y1="0" x2="833.55078125" y2="5" style="visibility: inherit;" fill="rgb(0, 0, 0)" stroke="rgb(204, 204, 204)" stroke-width="1px"></line><line x1="909.328125" y1="0" x2="909.328125" y2="5" style="visibility: inherit;" fill="rgb(0, 0, 0)" stroke="rgb(204, 204, 204)" stroke-width="1px"></line></g><g transform="translate(0, 8)"><text x="0" y="0" dx="0em" dy="0.95em" style="text-anchor: middle; visibility: hidden; font-family: Roboto, sans-serif; font-size: 12px; font-weight: 200;" fill="rgb(50, 49, 63)" stroke="none" stroke-width="1px">-5</text><text x="75.77734375" y="0" dx="0em" dy="0.95em" style="text-anchor: middle; visibility: inherit; font-family: Roboto, sans-serif; font-size: 12px; font-weight: 200;" fill="rgb(50, 49, 63)" stroke="none" stroke-width="1px">0</text><text x="151.5546875" y="0" dx="0em" dy="0.95em" style="text-anchor: middle; visibility: inherit; font-family: Roboto, sans-serif; font-size: 12px; font-weight: 200;" fill="rgb(50, 49, 63)" stroke="none" stroke-width="1px">5</text><text x="227.33203125" y="0" dx="0em" dy="0.95em" style="text-anchor: middle; visibility: inherit; font-family: Roboto, sans-serif; font-size: 12px; font-weight: 200;" fill="rgb(50, 49, 63)" stroke="none" stroke-width="1px">10</text><text x="303.109375" y="0" dx="0em" dy="0.95em" style="text-anchor: middle; visibility: inherit; font-family: Roboto, sans-serif; font-size: 12px; font-weight: 200;" fill="rgb(50, 49, 63)" stroke="none" stroke-width="1px">15</text><text x="378.88671875" y="0" dx="0em" dy="0.95em" style="text-anchor: middle; visibility: inherit; font-family: Roboto, sans-serif; font-size: 12px; font-weight: 200;" fill="rgb(50, 49, 63)" stroke="none" stroke-width="1px">20</text><text x="454.6640625" y="0" dx="0em" dy="0.95em" style="text-anchor: middle; visibility: inherit; font-family: Roboto, sans-serif; font-size: 12px; font-weight: 200;" fill="rgb(50, 49, 63)" stroke="none" stroke-width="1px">25</text><text x="530.44140625" y="0" dx="0em" dy="0.95em" style="text-anchor: middle; visibility: inherit; font-family: Roboto, sans-serif; font-size: 12px; font-weight: 200;" fill="rgb(50, 49, 63)" stroke="none" stroke-width="1px">30</text><text x="606.21875" y="0" dx="0em" dy="0.95em" style="text-anchor: middle; visibility: inherit; font-family: Roboto, sans-serif; font-size: 12px; font-weight: 200;" fill="rgb(50, 49, 63)" stroke="none" stroke-width="1px">35</text><text x="681.99609375" y="0" dx="0em" dy="0.95em" style="text-anchor: middle; visibility: inherit; font-family: Roboto, sans-serif; font-size: 12px; font-weight: 200;" fill="rgb(50, 49, 63)" stroke="none" stroke-width="1px">40</text><text x="757.7734375" y="0" dx="0em" dy="0.95em" style="text-anchor: middle; visibility: inherit; font-family: Roboto, sans-serif; font-size: 12px; font-weight: 200;" fill="rgb(50, 49, 63)" stroke="none" stroke-width="1px">45</text><text x="833.55078125" y="0" dx="0em" dy="0.95em" style="text-anchor: middle; visibility: inherit; font-family: Roboto, sans-serif; font-size: 12px; font-weight: 200;" fill="rgb(50, 49, 63)" stroke="none" stroke-width="1px">50</text><text x="909.328125" y="0" dx="0em" dy="0.95em" style="text-anchor: middle; visibility: hidden; font-family: Roboto, sans-serif; font-size: 12px; font-weight: 200;" fill="rgb(50, 49, 63)" stroke="none" stroke-width="1px">55</text></g><line x1="0" y1="0" x2="909.328125" y2="0" fill="rgb(0, 0, 0)" stroke="rgb(204, 204, 204)" stroke-width="1px"></line></g></g></g></g></svg>