<svg viewBox="0 0 950.5 400" xmlns="http://www.w3.org/2000/svg"><g><g><g><g><g><line x1="51.5625" y1="378" x2="46.5625" y2="378" style="visibility: inherit;" fill="rgb(0, 0, 0)" stroke="rgb(204, 204, 204)" stroke-width="1px"></line><line x1="51.5625" y1="350.99999999999994" x2="46.5625" y2="350.99999999999994" style="visibility: inherit;" fill="rgb(0, 0, 0)" stroke="rgb(204, 204, 204)" stroke-width="1px"></line><line x1="51.5625" y1="323.99999999999994" x2="46.5625" y2="323.99999999999994" style="visibility: inherit;" fill="rgb(0, 0, 0)" stroke="rgb(204, 204, 204)" stroke-width="1px"></line><line x1="51.5625" y1="296.99999999999994" x2="46.5625" y2="296.99999999999994" style="visibility: inherit;" fill="rgb(0, 0, 0)" stroke="rgb(204, 204, 204)" stroke-width="1px"></line><line x1="51.5625" y1="270.0000000000002" x2="46.5625" y2="270.0000000000002" style="visibility: inherit;" fill="rgb(0, 0, 0)" stroke="rgb(204, 204, 204)" stroke-width="1px"></line><line x1="51.5625" y1="243.0000000000002" x2="46.5625" y2="243.0000000000002" style="visibility: inherit;" fill="rgb(0, 0, 0)" stroke="rgb(204, 204, 204)" stroke-width="1px"></line><line x1="51.5625" y1="216.00000000000014" x2="46.5625" y2="216.00000000000014" style="visibility: inherit;" fill="rgb(0, 0, 0)" stroke="rgb(204, 204, 204)" stroke-width="1px"></line><line x1="51.5625" y1="189.00000000000017" x2="46.5625" y2="189.00000000000017" style="visibility: inherit;" fill="rgb(0, 0, 0)" stroke="rgb(204, 204, 204)" stroke-width="1px"></line><line x1="51.5625" y1="162.00000000000014" x2="46.5625" y2="162.00000000000014" style="visibility: inherit;" fill="rgb(0, 0, 0)" stroke="rgb(204, 204, 204)" stroke-width="1px"></line><line x1="51.5625" y1="135.0000000000001" x2="46.5625" y2="135.0000000000001" style="visibility: inherit;" fill="rgb(0, 0, 0)" stroke="rgb(204, 204, 204)" stroke-width="1px"></line><line x1="51.5625" y1="108.00000000000007" x2="46.5625" y2="108.00000000000007" style="visibility: inherit;" fill="rgb(0, 0, 0)" stroke="rgb(204, 204, 204)" stroke-width="1px"></line><line x1="51.5625" y1="81.00000000000004" x2="46.5625" y2="81.00000000000004" style="visibility: inherit;" fill="rgb(0, 0, 0)" stroke="rgb(204, 204, 204)" stroke-width="1px"></line><line x1="51.5625" y1="54.00000000000006" x2="46.5625" y2="54.00000000000006" style="visibility: inherit;" fill="rgb(0, 0, 0)" stroke="rgb(204, 204, 204)" stroke-width="1px"></line><line x1="51.5625" y1="27.00000000000003" x2="46.5625" y2="27.00000000000003" style="visibility: inherit;" fill="rgb(0, 0, 0)" stroke="rgb(204, 204, 204)" stroke-width="1px"></line><line x1="51.5625" y1="0" x2="46.5625" y2="0" style="visibility: inherit;" fill="rgb(0, 0, 0)" stroke="rgb(204, 204, 204)" stroke-width="1px"></line></g><g transform="translate(41.5625, 0)"><text x="0" y="378" dx="0em" dy="0.3em" style="text-anchor: end; visibility: hidden; font-family: Roboto, sans-serif; font-size: 12px; font-weight: 200;" fill="rgb(50, 49, 63)" stroke="none" stroke-width="1px">0.78</text><text x="0" y="350.99999999999994" dx="0em" dy="0.3em" style="text-anchor: end; visibility: inherit; font-family: Roboto, sans-serif; font-size: 12px; font-weight: 200;" fill="rgb(50, 49, 63)" stroke="none" stroke-width="1px">0.79</text><text x="0" y="323.99999999999994" dx="0em" dy="0.3em" style="text-anchor: end; visibility: inherit; font-family: Roboto, sans-serif; font-size: 12px; font-weight: 200;" fill="rgb(50, 49, 63)" stroke="none" stroke-width="1px">0.8</text><text x="0" y="296.99999999999994" dx="0em" dy="0.3em" style="text-anchor: end; visibility: inherit; font-family: Roboto, sans-serif; font-size: 12px; font-weight: 200;" fill="rgb(50, 49, 63)" stroke="none" stroke-width="1px">0.81</text><text x="0" y="270.0000000000002" dx="0em" dy="0.3em" style="text-anchor: end; visibility: inherit; font-family: Roboto, sans-serif; font-size: 12px; font-weight: 200;" fill="rgb(50, 49, 63)" stroke="none" stroke-width="1px">0.82</text><text x="0" y="243.0000000000002" dx="0em" dy="0.3em" style="text-anchor: end; visibility: inherit; font-family: Roboto, sans-serif; font-size: 12px; font-weight: 200;" fill="rgb(50, 49, 63)" stroke="none" stroke-width="1px">0.83</text><text x="0" y="216.00000000000014" dx="0em" dy="0.3em" style="text-anchor: end; visibility: inherit; font-family: Roboto, sans-serif; font-size: 12px; font-weight: 200;" fill="rgb(50, 49, 63)" stroke="none" stroke-width="1px">0.84</text><text x="0" y="189.00000000000017" dx="0em" dy="0.3em" style="text-anchor: end; visibility: inherit; font-family: Roboto, sans-serif; font-size: 12px; font-weight: 200;" fill="rgb(50, 49, 63)" stroke="none" stroke-width="1px">0.85</text><text x="0" y="162.00000000000014" dx="0em" dy="0.3em" style="text-anchor: end; visibility: inherit; font-family: Roboto, sans-serif; font-size: 12px; font-weight: 200;" fill="rgb(50, 49, 63)" stroke="none" stroke-width="1px">0.86</text><text x="0" y="135.0000000000001" dx="0em" dy="0.3em" style="text-anchor: end; visibility: inherit; font-family: Roboto, sans-serif; font-size: 12px; font-weight: 200;" fill="rgb(50, 49, 63)" stroke="none" stroke-width="1px">0.87</text><text x="0" y="108.00000000000007" dx="0em" dy="0.3em" style="text-anchor: end; visibility: inherit; font-family: Roboto, sans-serif; font-size: 12px; font-weight: 200;" fill="rgb(50, 49, 63)" stroke="none" stroke-width="1px">0.88</text><text x="0" y="81.00000000000004" dx="0em" dy="0.3em" style="text-anchor: end; visibility: inherit; font-family: Roboto, sans-serif; font-size: 12px; font-weight: 200;" fill="rgb(50, 49, 63)" stroke="none" stroke-width="1px">0.89</text><text x="0" y="54.00000000000006" dx="0em" dy="0.3em" style="text-anchor: end; visibility: inherit; font-family: Roboto, sans-serif; font-size: 12px; font-weight: 200;" fill="rgb(50, 49, 63)" stroke="none" stroke-width="1px">0.9</text><text x="0" y="27.00000000000003" dx="0em" dy="0.3em" style="text-anchor: end; visibility: inherit; font-family: Roboto, sans-serif; font-size: 12px; font-weight: 200;" fill="rgb(50, 49, 63)" stroke="none" stroke-width="1px">0.91</text><text x="0" y="0" dx="0em" dy="0.3em" style="text-anchor: end; visibility: hidden; font-family: Roboto, sans-serif; font-size: 12px; font-weight: 200;" fill="rgb(50, 49, 63)" stroke="none" stroke-width="1px">0.92</text></g><line x1="51.5625" y1="0" x2="51.5625" y2="378" fill="rgb(0, 0, 0)" stroke="rgb(204, 204, 204)" stroke-width="1px"></line></g></g><g transform="translate(51, 0)" clip-path="url(#clip_0)"><clipPath id="clip_0"><rect width="898" height="378"></rect></clipPath><g><g><g><line x1="0" y1="0" x2="0" y2="378" fill="rgb(0, 0, 0)" stroke="rgb(60, 60, 60)" stroke-width="1px" opacity="0.25"></line><line x1="74.91145833333333" y1="0" x2="74.91145833333333" y2="378" fill="rgb(0, 0, 0)" stroke="rgb(60, 60, 60)" stroke-width="1px" opacity="0.25"></line><line x1="149.82291666666666" y1="0" x2="149.82291666666666" y2="378" fill="rgb(0, 0, 0)" stroke="rgb(60, 60, 60)" stroke-width="1px" opacity="0.25"></line><line x1="224.734375" y1="0" x2="224.734375" y2="378" fill="rgb(0, 0, 0)" stroke="rgb(60, 60, 60)" stroke-width="1px" opacity="0.25"></line><line x1="299.6458333333333" y1="0" x2="299.6458333333333" y2="378" fill="rgb(0, 0, 0)" stroke="rgb(60, 60, 60)" stroke-width="1px" opacity="0.25"></line><line x1="374.5572916666667" y1="0" x2="374.5572916666667" y2="378" fill="rgb(0, 0, 0)" stroke="rgb(60, 60, 60)" stroke-width="1px" opacity="0.25"></line><line x1="449.46875" y1="0" x2="449.46875" y2="378" fill="rgb(0, 0, 0)" stroke="rgb(60, 60, 60)" stroke-width="1px" opacity="0.25"></line><line x1="524.3802083333334" y1="0" x2="524.3802083333334" y2="378" fill="rgb(0, 0, 0)" stroke="rgb(60, 60, 60)" stroke-width="1px" opacity="0.25"></line><line x1="599.2916666666666" y1="0" x2="599.2916666666666" y2="378" fill="rgb(0, 0, 0)" stroke="rgb(60, 60, 60)" stroke-width="1px" opacity="0.25"></line><line x1="674.203125" y1="0" x2="674.203125" y2="378" fill="rgb(0, 0, 0)" stroke="rgb(60, 60, 60)" stroke-width="1px" opacity="0.25"></line><line x1="749.1145833333334" y1="0" x2="749.1145833333334" y2="378" fill="rgb(0, 0, 0)" stroke="rgb(60, 60, 60)" stroke-width="1px" opacity="0.25"></line><line x1="824.0260416666666" y1="0" x2="824.0260416666666" y2="378" fill="rgb(0, 0, 0)" stroke="rgb(60, 60, 60)" stroke-width="1px" opacity="0.25"></line><line x1="898.9375" y1="0" x2="898.9375" y2="378" fill="rgb(0, 0, 0)" stroke="rgb(60, 60, 60)" stroke-width="1px" opacity="0.25"></line></g><g><line x1="0" y1="378" x2="898.9375" y2="378" fill="rgb(0, 0, 0)" stroke="rgb(60, 60, 60)" stroke-width="1px" opacity="0.25"></line><line x1="0" y1="350.99999999999994" x2="898.9375" y2="350.99999999999994" fill="rgb(0, 0, 0)" stroke="rgb(60, 60, 60)" stroke-width="1px" opacity="0.25"></line><line x1="0" y1="323.99999999999994" x2="898.9375" y2="323.99999999999994" fill="rgb(0, 0, 0)" stroke="rgb(60, 60, 60)" stroke-width="1px" opacity="0.25"></line><line x1="0" y1="296.99999999999994" x2="898.9375" y2="296.99999999999994" fill="rgb(0, 0, 0)" stroke="rgb(60, 60, 60)" stroke-width="1px" opacity="0.25"></line><line x1="0" y1="270.0000000000002" x2="898.9375" y2="270.0000000000002" fill="rgb(0, 0, 0)" stroke="rgb(60, 60, 60)" stroke-width="1px" opacity="0.25"></line><line x1="0" y1="243.0000000000002" x2="898.9375" y2="243.0000000000002" fill="rgb(0, 0, 0)" stroke="rgb(60, 60, 60)" stroke-width="1px" opacity="0.25"></line><line x1="0" y1="216.00000000000014" x2="898.9375" y2="216.00000000000014" fill="rgb(0, 0, 0)" stroke="rgb(60, 60, 60)" stroke-width="1px" opacity="0.25"></line><line x1="0" y1="189.00000000000017" x2="898.9375" y2="189.00000000000017" fill="rgb(0, 0, 0)" stroke="rgb(60, 60, 60)" stroke-width="1px" opacity="0.25"></line><line x1="0" y1="162.00000000000014" x2="898.9375" y2="162.00000000000014" fill="rgb(0, 0, 0)" stroke="rgb(60, 60, 60)" stroke-width="1px" opacity="0.25"></line><line x1="0" y1="135.0000000000001" x2="898.9375" y2="135.0000000000001" fill="rgb(0, 0, 0)" stroke="rgb(60, 60, 60)" stroke-width="1px" opacity="0.25"></line><line x1="0" y1="108.00000000000007" x2="898.9375" y2="108.00000000000007" fill="rgb(0, 0, 0)" stroke="rgb(60, 60, 60)" stroke-width="1px" opacity="0.25"></line><line x1="0" y1="81.00000000000004" x2="898.9375" y2="81.00000000000004" fill="rgb(0, 0, 0)" stroke="rgb(60, 60, 60)" stroke-width="1px" opacity="0.25"></line><line x1="0" y1="54.00000000000006" x2="898.9375" y2="54.00000000000006" fill="rgb(0, 0, 0)" stroke="rgb(60, 60, 60)" stroke-width="1px" opacity="0.25"></line><line x1="0" y1="27.00000000000003" x2="898.9375" y2="27.00000000000003" fill="rgb(0, 0, 0)" stroke="rgb(60, 60, 60)" stroke-width="1px" opacity="0.25"></line><line x1="0" y1="0" x2="898.9375" y2="0" fill="rgb(0, 0, 0)" stroke="rgb(60, 60, 60)" stroke-width="1px" opacity="0.25"></line></g></g></g><g><g><line x1="0" y1="2484" x2="898.9375" y2="2484" fill="rgb(0, 0, 0)" stroke="rgb(153, 153, 153)" stroke-width="1.5px"></line></g></g><g><g><line x1="74.91145833333333" y1="0" x2="74.91145833333333" y2="378" fill="rgb(0, 0, 0)" stroke="rgb(153, 153, 153)" stroke-width="1.5px"></line></g></g><g><g><g><g><g><path stroke="rgb(255, 112, 67)" stroke-width="2px" d="M74.91145833333333,297.6247336864472L89.89375000000001,242.79179835319528L104.87604166666667,205.31109237670907L119.85833333333333,183.10030961036693L134.840625,170.60663366317758L149.82291666666666,162.97167205810555L164.80520833333333,140.0667872428895L179.78750000000002,137.98464202880868L194.76979166666666,117.85600447654735L209.75208333333333,131.04362154006967L224.734375,107.4447956085206L239.71666666666667,108.83283877372752L254.69895833333334,103.2801833152772L269.68125,101.89197921752941L284.6635416666667,101.89197921752941L299.6458333333333,93.56291556358349L314.62812499999995,102.58608126640328L329.61041666666665,99.11573195457468L344.59270833333335,97.72752785682688L359.57500000000005,87.31615805625925L374.5572916666667,89.39846420288097L389.5395833333333,87.31615805625925L404.521875,92.17487239837656L419.50416666666666,80.37529850006115L434.48645833333336,92.86897444725048L449.46875,84.53991079330453L464.4510416666667,93.56291556358349L479.43333333333334,84.53991079330453L494.41562500000003,77.59905123710642L509.3979166666667,75.5167450904847L524.3802083333334,78.29299235343943L539.3625,74.82264304161083L554.3447916666667,69.26998758316051L569.3270833333333,76.90494918823254L584.309375,77.59905123710642L599.2916666666666,70.6580307483674L614.2739583333333,68.57588553428658L629.2562499999999,76.90494918823254L644.2385416666667,74.82264304161083L659.2208333333333,67.1876814365388L674.203125,71.35213279724131L689.1854166666667,71.35213279724131L704.1677083333333,69.26998758316051L719.1500000000001,69.26998758316051L734.1322916666667,61.63502597808848L749.1145833333334,65.799477338791L764.096875,74.1285409927369L779.0791666666667,60.9409239292146L794.0614583333333,68.57588553428658L809.04375,68.57588553428658" style="fill: none;" fill="none"></path></g><g><path stroke="rgb(0, 153, 136)" stroke-width="2px" d="M74.91145833333333,294.1542234420777L89.89375000000001,245.56804561615L104.87604166666667,217.1105053424836L119.85833333333333,206.00519442558297L134.840625,184.48835277557382L149.82291666666666,169.91253161430367L164.80520833333333,142.1490933895112L179.78750000000002,135.2082338333131L194.76979166666666,134.51413178443917L209.75208333333333,121.32651472091686L224.734375,109.52694082260139L239.71666666666667,109.52694082260139L254.69895833333334,105.36248946189892L269.68125,101.89197921752941L284.6635416666667,103.97428536415107L299.6458333333333,108.83283877372752L314.62812499999995,107.4447956085206L329.61041666666665,89.39846420288097L344.59270833333335,90.09256625175485L359.57500000000005,88.70436215400706L374.5572916666667,88.70436215400706L389.5395833333333,94.95111966133129L404.521875,89.39846420288097L419.50416666666666,83.84580874443066L434.48645833333336,94.25701761245737L449.46875,91.48077034950265L464.4510416666667,75.5167450904847L479.43333333333334,74.1285409927369L494.41562500000003,81.06940054893502L509.3979166666667,76.90494918823254L524.3802083333334,75.5167450904847L539.3625,81.76350259780894L554.3447916666667,76.21084713935862L569.3270833333333,66.49357938766491L584.309375,78.98709440231335L599.2916666666666,76.90494918823254L614.2739583333333,66.49357938766491L629.2562499999999,69.96408963203439L644.2385416666667,72.04623484611523L659.2208333333333,71.35213279724131L674.203125,65.10537528991708L689.1854166666667,65.799477338791L704.1677083333333,69.26998758316051L719.1500000000001,67.1876814365388L734.1322916666667,70.6580307483674L749.1145833333334,65.799477338791L764.096875,63.71717119216928L779.0791666666667,68.57588553428658L794.0614583333333,60.9409239292146L809.04375,67.88178348541271" style="fill: none;" fill="none"></path></g><g><path stroke="rgb(51, 187, 238)" stroke-width="2px" d="M74.91145833333333,301.7891850471497L89.89375000000001,256.67351746559154L104.87604166666667,224.05136489868173L119.85833333333333,179.6297993659974L134.840625,169.91253161430367L149.82291666666666,145.61960363388073L164.80520833333333,140.0667872428895L179.78750000000002,137.98464202880868L194.76979166666666,126.18506813049326L209.75208333333333,114.3856551647187L224.734375,115.77385926246654L239.71666666666667,112.99745106697091L254.69895833333334,105.36248946189892L269.68125,103.97428536415107L284.6635416666667,105.36248946189892L299.6458333333333,90.09256625175485L314.62812499999995,99.11573195457468L329.61041666666665,94.95111966133129L344.59270833333335,95.64522171020516L359.57500000000005,86.62205600738534L374.5572916666667,84.53991079330453L389.5395833333333,83.84580874443066L404.521875,87.31615805625925L419.50416666666666,81.76350259780894L434.48645833333336,88.70436215400706L449.46875,84.53991079330453L464.4510416666667,81.06940054893502L479.43333333333334,78.98709440231335L494.41562500000003,80.37529850006115L509.3979166666667,76.21084713935862L524.3802083333334,71.35213279724131L539.3625,70.6580307483674L554.3447916666667,71.35213279724131L569.3270833333333,74.1285409927369L584.309375,72.04623484611523L599.2916666666666,76.90494918823254L614.2739583333333,69.26998758316051L629.2562499999999,67.88178348541271L644.2385416666667,61.63502597808848L659.2208333333333,72.04623484611523L674.203125,72.04623484611523L689.1854166666667,69.26998758316051L704.1677083333333,64.4112732410432L719.1500000000001,62.329128026962394L734.1322916666667,63.71717119216928L749.1145833333334,58.85861778259288L764.096875,54.69416642189036L779.0791666666667,60.246821880340676L794.0614583333333,64.4112732410432L809.04375,63.0230691432954" style="fill: none;" fill="none"></path></g><g><path stroke="rgb(0, 119, 187)" stroke-width="2px" d="M74.91145833333333,303.1773891448975L89.89375000000001,247.65035176277166L104.87604166666667,211.5578498840333L119.85833333333333,192.12331438064584L134.840625,171.99483776092538L149.82291666666666,157.41901659965524L164.80520833333333,153.25456523895275L179.78750000000002,143.537297487259L194.76979166666666,131.73772358894357L209.75208333333333,126.18506813049326L224.734375,121.32651472091686L239.71666666666667,103.2801833152772L254.69895833333334,103.97428536415107L269.68125,102.58608126640328L284.6635416666667,99.11573195457468L299.6458333333333,95.64522171020516L314.62812499999995,94.25701761245737L329.61041666666665,92.17487239837656L344.59270833333335,101.89197921752941L359.57500000000005,99.8098340034486L374.5572916666667,93.56291556358349L389.5395833333333,88.01026010513317L404.521875,92.17487239837656L419.50416666666666,94.25701761245737L434.48645833333336,98.42162990570075L449.46875,85.92795395851147L464.4510416666667,78.98709440231335L479.43333333333334,76.21084713935862L494.41562500000003,84.53991079330453L509.3979166666667,79.68119645118722L524.3802083333334,83.84580874443066L539.3625,77.59905123710642L554.3447916666667,83.15170669555674L569.3270833333333,77.59905123710642L584.309375,78.98709440231335L599.2916666666666,73.43443894386303L614.2739583333333,81.06940054893502L629.2562499999999,70.6580307483674L644.2385416666667,69.96408963203439L659.2208333333333,77.59905123710642L674.203125,69.96408963203439L689.1854166666667,63.71717119216928L704.1677083333333,65.10537528991708L719.1500000000001,62.329128026962394L734.1322916666667,63.71717119216928L749.1145833333334,63.71717119216928L764.096875,65.799477338791L779.0791666666667,64.4112732410432L794.0614583333333,67.1876814365388L809.04375,63.71717119216928" style="fill: none;" fill="none"></path></g></g></g></g></g></g><g transform="translate(51, 378)" clip-path="url(#clip_1)"><clipPath id="clip_1"><rect width="898" height="22"></rect></clipPath><g><g><line x1="0" y1="0" x2="0" y2="5" style="visibility: inherit;" fill="rgb(0, 0, 0)" stroke="rgb(204, 204, 204)" stroke-width="1px"></line><line x1="74.91145833333333" y1="0" x2="74.91145833333333" y2="5" style="visibility: inherit;" fill="rgb(0, 0, 0)" stroke="rgb(204, 204, 204)" stroke-width="1px"></line><line x1="149.82291666666666" y1="0" x2="149.82291666666666" y2="5" style="visibility: inherit;" fill="rgb(0, 0, 0)" stroke="rgb(204, 204, 204)" stroke-width="1px"></line><line x1="224.734375" y1="0" x2="224.734375" y2="5" style="visibility: inherit;" fill="rgb(0, 0, 0)" stroke="rgb(204, 204, 204)" stroke-width="1px"></line><line x1="299.6458333333333" y1="0" x2="299.6458333333333" y2="5" style="visibility: inherit;" fill="rgb(0, 0, 0)" stroke="rgb(204, 204, 204)" stroke-width="1px"></line><line x1="374.5572916666667" y1="0" x2="374.5572916666667" y2="5" style="visibility: inherit;" fill="rgb(0, 0, 0)" stroke="rgb(204, 204, 204)" stroke-width="1px"></line><line x1="449.46875" y1="0" x2="449.46875" y2="5" style="visibility: inherit;" fill="rgb(0, 0, 0)" stroke="rgb(204, 204, 204)" stroke-width="1px"></line><line x1="524.3802083333334" y1="0" x2="524.3802083333334" y2="5" style="visibility: inherit;" fill="rgb(0, 0, 0)" stroke="rgb(204, 204, 204)" stroke-width="1px"></line><line x1="599.2916666666666" y1="0" x2="599.2916666666666" y2="5" style="visibility: inherit;" fill="rgb(0, 0, 0)" stroke="rgb(204, 204, 204)" stroke-width="1px"></line><line x1="674.203125" y1="0" x2="674.203125" y2="5" style="visibility: inherit;" fill="rgb(0, 0, 0)" stroke="rgb(204, 204, 204)" stroke-width="1px"></line><line x1="749.1145833333334" y1="0" x2="749.1145833333334" y2="5" style="visibility: inherit;" fill="rgb(0, 0, 0)" stroke="rgb(204, 204, 204)" stroke-width="1px"></line><line x1="824.0260416666666" y1="0" x2="824.0260416666666" y2="5" style="visibility: inherit;" fill="rgb(0, 0, 0)" stroke="rgb(204, 204, 204)" stroke-width="1px"></line><line x1="898.9375" y1="0" x2="898.9375" y2="5" style="visibility: inherit;" fill="rgb(0, 0, 0)" stroke="rgb(204, 204, 204)" stroke-width="1px"></line></g><g transform="translate(0, 8)"><text x="0" y="0" dx="0em" dy="0.95em" style="text-anchor: middle; visibility: hidden; font-family: Roboto, sans-serif; font-size: 12px; font-weight: 200;" fill="rgb(50, 49, 63)" stroke="none" stroke-width="1px">-5</text><text x="74.91145833333333" y="0" dx="0em" dy="0.95em" style="text-anchor: middle; visibility: inherit; font-family: Roboto, sans-serif; font-size: 12px; font-weight: 200;" fill="rgb(50, 49, 63)" stroke="none" stroke-width="1px">0</text><text x="149.82291666666666" y="0" dx="0em" dy="0.95em" style="text-anchor: middle; visibility: inherit; font-family: Roboto, sans-serif; font-size: 12px; font-weight: 200;" fill="rgb(50, 49, 63)" stroke="none" stroke-width="1px">5</text><text x="224.734375" y="0" dx="0em" dy="0.95em" style="text-anchor: middle; visibility: inherit; font-family: Roboto, sans-serif; font-size: 12px; font-weight: 200;" fill="rgb(50, 49, 63)" stroke="none" stroke-width="1px">10</text><text x="299.6458333333333" y="0" dx="0em" dy="0.95em" style="text-anchor: middle; visibility: inherit; font-family: Roboto, sans-serif; font-size: 12px; font-weight: 200;" fill="rgb(50, 49, 63)" stroke="none" stroke-width="1px">15</text><text x="374.5572916666667" y="0" dx="0em" dy="0.95em" style="text-anchor: middle; visibility: inherit; font-family: Roboto, sans-serif; font-size: 12px; font-weight: 200;" fill="rgb(50, 49, 63)" stroke="none" stroke-width="1px">20</text><text x="449.46875" y="0" dx="0em" dy="0.95em" style="text-anchor: middle; visibility: inherit; font-family: Roboto, sans-serif; font-size: 12px; font-weight: 200;" fill="rgb(50, 49, 63)" stroke="none" stroke-width="1px">25</text><text x="524.3802083333334" y="0" dx="0em" dy="0.95em" style="text-anchor: middle; visibility: inherit; font-family: Roboto, sans-serif; font-size: 12px; font-weight: 200;" fill="rgb(50, 49, 63)" stroke="none" stroke-width="1px">30</text><text x="599.2916666666666" y="0" dx="0em" dy="0.95em" style="text-anchor: middle; visibility: inherit; font-family: Roboto, sans-serif; font-size: 12px; font-weight: 200;" fill="rgb(50, 49, 63)" stroke="none" stroke-width="1px">35</text><text x="674.203125" y="0" dx="0em" dy="0.95em" style="text-anchor: middle; visibility: inherit; font-family: Roboto, sans-serif; font-size: 12px; font-weight: 200;" fill="rgb(50, 49, 63)" stroke="none" stroke-width="1px">40</text><text x="749.1145833333334" y="0" dx="0em" dy="0.95em" style="text-anchor: middle; visibility: inherit; font-family: Roboto, sans-serif; font-size: 12px; font-weight: 200;" fill="rgb(50, 49, 63)" stroke="none" stroke-width="1px">45</text><text x="824.0260416666666" y="0" dx="0em" dy="0.95em" style="text-anchor: middle; visibility: inherit; font-family: Roboto, sans-serif; font-size: 12px; font-weight: 200;" fill="rgb(50, 49, 63)" stroke="none" stroke-width="1px">50</text><text x="898.9375" y="0" dx="0em" dy="0.95em" style="text-anchor: middle; visibility: hidden; font-family: Roboto, sans-serif; font-size: 12px; font-weight: 200;" fill="rgb(50, 49, 63)" stroke="none" stroke-width="1px">55</text></g><line x1="0" y1="0" x2="898.9375" y2="0" fill="rgb(0, 0, 0)" stroke="rgb(204, 204, 204)" stroke-width="1px"></line></g></g></g></g></svg>