<svg viewBox="0 0 950.5 400" xmlns="http://www.w3.org/2000/svg"><g><g><g><g><g><line x1="41.171875" y1="306.4228409174027" x2="36.171875" y2="306.4228409174027" style="visibility: inherit;" fill="rgb(0, 0, 0)" stroke="rgb(204, 204, 204)" stroke-width="1px"></line><line x1="41.171875" y1="190.7695322432208" x2="36.171875" y2="190.7695322432208" style="visibility: inherit;" fill="rgb(0, 0, 0)" stroke="rgb(204, 204, 204)" stroke-width="1px"></line><line x1="41.171875" y1="108.7122038567335" x2="36.171875" y2="108.7122038567335" style="visibility: inherit;" fill="rgb(0, 0, 0)" stroke="rgb(204, 204, 204)" stroke-width="1px"></line><line x1="41.171875" y1="45.06359512882549" x2="36.171875" y2="45.06359512882549" style="visibility: inherit;" fill="rgb(0, 0, 0)" stroke="rgb(204, 204, 204)" stroke-width="1px"></line></g><g transform="translate(31.171875, 0)"><text x="0" y="306.4228409174027" dx="0em" dy="0.3em" style="text-anchor: end; visibility: inherit; font-family: Roboto, sans-serif; font-size: 12px; font-weight: 200;" fill="rgb(50, 49, 63)" stroke="none" stroke-width="1px">0.2</text><text x="0" y="190.7695322432208" dx="0em" dy="0.3em" style="text-anchor: end; visibility: inherit; font-family: Roboto, sans-serif; font-size: 12px; font-weight: 200;" fill="rgb(50, 49, 63)" stroke="none" stroke-width="1px">0.3</text><text x="0" y="108.7122038567335" dx="0em" dy="0.3em" style="text-anchor: end; visibility: inherit; font-family: Roboto, sans-serif; font-size: 12px; font-weight: 200;" fill="rgb(50, 49, 63)" stroke="none" stroke-width="1px">0.4</text><text x="0" y="45.06359512882549" dx="0em" dy="0.3em" style="text-anchor: end; visibility: inherit; font-family: Roboto, sans-serif; font-size: 12px; font-weight: 200;" fill="rgb(50, 49, 63)" stroke="none" stroke-width="1px">0.5</text></g><line x1="41.171875" y1="0" x2="41.171875" y2="378" fill="rgb(0, 0, 0)" stroke="rgb(204, 204, 204)" stroke-width="1px"></line></g></g><g transform="translate(41, 0)" clip-path="url(#clip_0)"><clipPath id="clip_0"><rect width="909" height="378"></rect></clipPath><g><g><g><line x1="0" y1="0" x2="0" y2="378" fill="rgb(0, 0, 0)" stroke="rgb(60, 60, 60)" stroke-width="1px" opacity="0.25"></line><line x1="75.77734375" y1="0" x2="75.77734375" y2="378" fill="rgb(0, 0, 0)" stroke="rgb(60, 60, 60)" stroke-width="1px" opacity="0.25"></line><line x1="151.5546875" y1="0" x2="151.5546875" y2="378" fill="rgb(0, 0, 0)" stroke="rgb(60, 60, 60)" stroke-width="1px" opacity="0.25"></line><line x1="227.33203125" y1="0" x2="227.33203125" y2="378" fill="rgb(0, 0, 0)" stroke="rgb(60, 60, 60)" stroke-width="1px" opacity="0.25"></line><line x1="303.109375" y1="0" x2="303.109375" y2="378" fill="rgb(0, 0, 0)" stroke="rgb(60, 60, 60)" stroke-width="1px" opacity="0.25"></line><line x1="378.88671875" y1="0" x2="378.88671875" y2="378" fill="rgb(0, 0, 0)" stroke="rgb(60, 60, 60)" stroke-width="1px" opacity="0.25"></line><line x1="454.6640625" y1="0" x2="454.6640625" y2="378" fill="rgb(0, 0, 0)" stroke="rgb(60, 60, 60)" stroke-width="1px" opacity="0.25"></line><line x1="530.44140625" y1="0" x2="530.44140625" y2="378" fill="rgb(0, 0, 0)" stroke="rgb(60, 60, 60)" stroke-width="1px" opacity="0.25"></line><line x1="606.21875" y1="0" x2="606.21875" y2="378" fill="rgb(0, 0, 0)" stroke="rgb(60, 60, 60)" stroke-width="1px" opacity="0.25"></line><line x1="681.99609375" y1="0" x2="681.99609375" y2="378" fill="rgb(0, 0, 0)" stroke="rgb(60, 60, 60)" stroke-width="1px" opacity="0.25"></line><line x1="757.7734375" y1="0" x2="757.7734375" y2="378" fill="rgb(0, 0, 0)" stroke="rgb(60, 60, 60)" stroke-width="1px" opacity="0.25"></line><line x1="833.55078125" y1="0" x2="833.55078125" y2="378" fill="rgb(0, 0, 0)" stroke="rgb(60, 60, 60)" stroke-width="1px" opacity="0.25"></line><line x1="909.328125" y1="0" x2="909.328125" y2="378" fill="rgb(0, 0, 0)" stroke="rgb(60, 60, 60)" stroke-width="1px" opacity="0.25"></line></g><g><line x1="0" y1="306.4228409174027" x2="909.328125" y2="306.4228409174027" fill="rgb(0, 0, 0)" stroke="rgb(60, 60, 60)" stroke-width="1px" opacity="0.25"></line><line x1="0" y1="190.7695322432208" x2="909.328125" y2="190.7695322432208" fill="rgb(0, 0, 0)" stroke="rgb(60, 60, 60)" stroke-width="1px" opacity="0.25"></line><line x1="0" y1="108.7122038567335" x2="909.328125" y2="108.7122038567335" fill="rgb(0, 0, 0)" stroke="rgb(60, 60, 60)" stroke-width="1px" opacity="0.25"></line><line x1="0" y1="45.06359512882549" x2="909.328125" y2="45.06359512882549" fill="rgb(0, 0, 0)" stroke="rgb(60, 60, 60)" stroke-width="1px" opacity="0.25"></line></g></g></g><g><g><line x1="75.77734375" y1="0" x2="75.77734375" y2="378" fill="rgb(0, 0, 0)" stroke="rgb(153, 153, 153)" stroke-width="1.5px"></line></g></g><g><g><g><g><g><path stroke="rgb(255, 112, 67)" stroke-width="2px" d="M75.77734375,54.00000000000002L90.93281250000001,127.66333019117394L106.08828125000001,165.663051120839L121.24374999999999,192.5745348034221L136.39921875,208.96847889210602L151.5546875,226.59234007948444L166.71015624999998,240.7825851419126L181.86562500000002,250.74464882404322L197.02109375,262.69271130219227L212.17656250000002,268.1632568284276L227.33203125,279.04221771371374L242.48749999999998,280.73114802819794L257.64296874999997,287.94427106067013L272.7984375,294.3641888367262L287.95390625,297.8603660047995L303.109375,300.6829697665149L318.26484374999995,302.6561227465552L333.42031249999997,303.3313275319583L348.57578125000003,309.7070667848348L363.73125000000005,308.09227715001003L378.88671875,307.31066994958525L394.0421875,318.72278549290587L409.19765625,312.54247028126787L424.35312500000003,315.0097856400793L439.50859375,319.0597349410851L454.6640625,316.24283756566825L469.81953125000007,311.3182078504657L484.97499999999997,316.420995911237L500.13046875000003,319.056913721242L515.2859374999999,316.7157944591118L530.44140625,317.63110927582613L545.596875,317.3250743490516L560.75234375,319.68716047697427L575.9078125,314.90899197677436L591.06328125,316.92478448800284L606.21875,317.9400175459066L621.3742187500001,316.50446958806583L636.5296874999999,313.5640743958303L651.68515625,314.2514125039918L666.8406249999999,315.1031659713789L681.99609375,309.06800696837496L697.1515625000001,308.9852015175322L712.30703125,307.5785284562962L727.4625000000001,304.7860778669582L742.6179687499999,307.63014982118284L757.7734375,307.5350448662808L772.92890625,298.345053336559L788.084375,298.54526167541064L803.23984375,298.4488804381964L818.3953125,299.0132032647462" style="fill: none;" fill="none"></path></g><g><path stroke="rgb(0, 153, 136)" stroke-width="2px" d="M75.77734375,57.489370184546985L90.93281250000001,120.43464175560149L106.08828125000001,160.21927363873255L121.24374999999999,185.7505525099019L136.39921875,207.5800722983204L151.5546875,217.7494787705994L166.71015624999998,239.43841823982316L181.86562500000002,252.56567488244232L197.02109375,254.56604473466382L212.17656250000002,264.6910565313303L227.33203125,281.2035529481864L242.48749999999998,282.18050270205396L257.64296874999997,284.175456585102L272.7984375,289.3186763954633L287.95390625,294.97692433158653L303.109375,297.85634449436577L318.26484374999995,293.99133915413705L333.42031249999997,304.05700598512584L348.57578125000003,307.6064613049355L363.73125000000005,308.4894081501916L378.88671875,307.90251699131886L394.0421875,304.7199904127069L409.19765625,312.15783005819975L424.35312500000003,313.90558381829015L439.50859375,314.20866875681446L454.6640625,314.1544019451236L469.81953125000007,313.3937668904612L484.97499999999997,317.29716690726144L500.13046875000003,309.8455035817562L515.2859374999999,317.6080563039743L530.44140625,313.78090718743294L545.596875,316.4234830384867L560.75234375,310.781810613602L575.9078125,313.15094201418964L591.06328125,310.4659609151853L606.21875,311.21730526330794L621.3742187500001,311.2101733976958L636.5296874999999,308.1217782415089L651.68515625,309.9119074142932L666.8406249999999,307.30943350819905L681.99609375,307.3641405079382L697.1515625000001,308.82019847493723L712.30703125,307.42301661980486L727.4625000000001,305.0580891724683L742.6179687499999,301.5975293050025L757.7734375,304.22775330767956L772.92890625,297.08917092512735L788.084375,299.07491619669645L803.23984375,292.3645080319518L818.3953125,295.4931362666492" style="fill: none;" fill="none"></path></g><g><path stroke="rgb(51, 187, 238)" stroke-width="2px" d="M75.77734375,59.280357732955295L90.93281250000001,123.30226566390668L106.08828125000001,159.82960515229618L121.24374999999999,194.19479025352632L136.39921875,211.70553163021484L151.5546875,229.683402021921L166.71015624999998,240.17153158661176L181.86562500000002,254.3162634029364L197.02109375,260.2384777590501L212.17656250000002,271.41753926248845L227.33203125,273.26657978704475L242.48749999999998,282.3402224866395L257.64296874999997,290.91485484333276L272.7984375,294.44515880109174L287.95390625,299.11062467504087L303.109375,306.7113262431037L318.26484374999995,302.32102507468386L333.42031249999997,304.3795700163947L348.57578125000003,310.3056358091744L363.73125000000005,311.44434304199166L378.88671875,316.32392685058466L394.0421875,321.0724724671923L409.19765625,319.42032540593874L424.35312500000003,322.59582081568715L439.50859375,323.03922626053566L454.6640625,323.99999999999994L469.81953125000007,321.4971133327839L484.97499999999997,317.95889284749364L500.13046875000003,317.3763923098157L515.2859374999999,318.95412483580617L530.44140625,320.22642090168773L545.596875,320.84656255965166L560.75234375,322.9728707995025L575.9078125,319.37364213450655L591.06328125,318.03586744278977L606.21875,316.8642890287137L621.3742187500001,316.89158094554114L636.5296874999999,318.4011268987786L651.68515625,316.67360507529867L666.8406249999999,311.22899758638016L681.99609375,311.35710421817134L697.1515625000001,311.4142151667935L712.30703125,311.9996504178432L727.4625000000001,307.6478214550204L742.6179687499999,308.987860526466L757.7734375,308.201617510188L772.92890625,307.20936348266497L788.084375,306.6324346537015L803.23984375,304.02988219224375L818.3953125,302.4929579094459" style="fill: none;" fill="none"></path></g><g><path stroke="rgb(0, 119, 187)" stroke-width="2px" d="M75.77734375,58.70558640473609L90.93281250000001,125.83247960707745L106.08828125000001,166.89166684689738L121.24374999999999,191.1894527388011L136.39921875,210.79060387372783L151.5546875,225.5304182476229L166.71015624999998,239.0321247424467L181.86562500000002,246.1953720706966L197.02109375,257.6518334346989L212.17656250000002,263.46875052957586L227.33203125,270.35015827916874L242.48749999999998,277.4439673488619L257.64296874999997,286.46182132111426L272.7984375,286.3101352739113L287.95390625,286.03096416361103L303.109375,294.427899309479L318.26484374999995,301.97161159190796L333.42031249999997,305.3921211864695L348.57578125000003,308.04568019272097L363.73125000000005,308.1829279008687L378.88671875,311.6123215517897L394.0421875,316.7742750781725L409.19765625,307.72236169750687L424.35312500000003,311.04530412729474L439.50859375,310.5591374069554L454.6640625,314.9843156183908L469.81953125000007,319.07437463228837L484.97499999999997,319.1448289354359L500.13046875000003,316.4169241125549L515.2859374999999,315.93158614466773L530.44140625,314.22439386690235L545.596875,314.48042011673743L560.75234375,310.4125307508387L575.9078125,315.8984540707028L591.06328125,308.8093545346264L606.21875,308.3972047998664L621.3742187500001,312.02372829595754L636.5296874999999,311.4482363233695L651.68515625,311.53838064520716L666.8406249999999,310.07190367775377L681.99609375,308.2213348785647L697.1515625000001,305.20514288179646L712.30703125,309.7789646816523L727.4625000000001,302.5212566069832L742.6179687499999,301.64828840717075L757.7734375,297.6013933900278L772.92890625,297.798853406279L788.084375,296.8398361793296L803.23984375,297.1624832430536L818.3953125,296.2611708403736" style="fill: none;" fill="none"></path></g></g></g></g></g></g><g transform="translate(41, 378)" clip-path="url(#clip_1)"><clipPath id="clip_1"><rect width="909" height="22"></rect></clipPath><g><g><line x1="0" y1="0" x2="0" y2="5" style="visibility: inherit;" fill="rgb(0, 0, 0)" stroke="rgb(204, 204, 204)" stroke-width="1px"></line><line x1="75.77734375" y1="0" x2="75.77734375" y2="5" style="visibility: inherit;" fill="rgb(0, 0, 0)" stroke="rgb(204, 204, 204)" stroke-width="1px"></line><line x1="151.5546875" y1="0" x2="151.5546875" y2="5" style="visibility: inherit;" fill="rgb(0, 0, 0)" stroke="rgb(204, 204, 204)" stroke-width="1px"></line><line x1="227.33203125" y1="0" x2="227.33203125" y2="5" style="visibility: inherit;" fill="rgb(0, 0, 0)" stroke="rgb(204, 204, 204)" stroke-width="1px"></line><line x1="303.109375" y1="0" x2="303.109375" y2="5" style="visibility: inherit;" fill="rgb(0, 0, 0)" stroke="rgb(204, 204, 204)" stroke-width="1px"></line><line x1="378.88671875" y1="0" x2="378.88671875" y2="5" style="visibility: inherit;" fill="rgb(0, 0, 0)" stroke="rgb(204, 204, 204)" stroke-width="1px"></line><line x1="454.6640625" y1="0" x2="454.6640625" y2="5" style="visibility: inherit;" fill="rgb(0, 0, 0)" stroke="rgb(204, 204, 204)" stroke-width="1px"></line><line x1="530.44140625" y1="0" x2="530.44140625" y2="5" style="visibility: inherit;" fill="rgb(0, 0, 0)" stroke="rgb(204, 204, 204)" stroke-width="1px"></line><line x1="606.21875" y1="0" x2="606.21875" y2="5" style="visibility: inherit;" fill="rgb(0, 0, 0)" stroke="rgb(204, 204, 204)" stroke-width="1px"></line><line x1="681.99609375" y1="0" x2="681.99609375" y2="5" style="visibility: inherit;" fill="rgb(0, 0, 0)" stroke="rgb(204, 204, 204)" stroke-width="1px"></line><line x1="757.7734375" y1="0" x2="757.7734375" y2="5" style="visibility: inherit;" fill="rgb(0, 0, 0)" stroke="rgb(204, 204, 204)" stroke-width="1px"></line><line x1="833.55078125" y1="0" x2="833.55078125" y2="5" style="visibility: inherit;" fill="rgb(0, 0, 0)" stroke="rgb(204, 204, 204)" stroke-width="1px"></line><line x1="909.328125" y1="0" x2="909.328125" y2="5" style="visibility: inherit;" fill="rgb(0, 0, 0)" stroke="rgb(204, 204, 204)" stroke-width="1px"></line></g><g transform="translate(0, 8)"><text x="0" y="0" dx="0em" dy="0.95em" style="text-anchor: middle; visibility: hidden; font-family: Roboto, sans-serif; font-size: 12px; font-weight: 200;" fill="rgb(50, 49, 63)" stroke="none" stroke-width="1px">-5</text><text x="75.77734375" y="0" dx="0em" dy="0.95em" style="text-anchor: middle; visibility: inherit; font-family: Roboto, sans-serif; font-size: 12px; font-weight: 200;" fill="rgb(50, 49, 63)" stroke="none" stroke-width="1px">0</text><text x="151.5546875" y="0" dx="0em" dy="0.95em" style="text-anchor: middle; visibility: inherit; font-family: Roboto, sans-serif; font-size: 12px; font-weight: 200;" fill="rgb(50, 49, 63)" stroke="none" stroke-width="1px">5</text><text x="227.33203125" y="0" dx="0em" dy="0.95em" style="text-anchor: middle; visibility: inherit; font-family: Roboto, sans-serif; font-size: 12px; font-weight: 200;" fill="rgb(50, 49, 63)" stroke="none" stroke-width="1px">10</text><text x="303.109375" y="0" dx="0em" dy="0.95em" style="text-anchor: middle; visibility: inherit; font-family: Roboto, sans-serif; font-size: 12px; font-weight: 200;" fill="rgb(50, 49, 63)" stroke="none" stroke-width="1px">15</text><text x="378.88671875" y="0" dx="0em" dy="0.95em" style="text-anchor: middle; visibility: inherit; font-family: Roboto, sans-serif; font-size: 12px; font-weight: 200;" fill="rgb(50, 49, 63)" stroke="none" stroke-width="1px">20</text><text x="454.6640625" y="0" dx="0em" dy="0.95em" style="text-anchor: middle; visibility: inherit; font-family: Roboto, sans-serif; font-size: 12px; font-weight: 200;" fill="rgb(50, 49, 63)" stroke="none" stroke-width="1px">25</text><text x="530.44140625" y="0" dx="0em" dy="0.95em" style="text-anchor: middle; visibility: inherit; font-family: Roboto, sans-serif; font-size: 12px; font-weight: 200;" fill="rgb(50, 49, 63)" stroke="none" stroke-width="1px">30</text><text x="606.21875" y="0" dx="0em" dy="0.95em" style="text-anchor: middle; visibility: inherit; font-family: Roboto, sans-serif; font-size: 12px; font-weight: 200;" fill="rgb(50, 49, 63)" stroke="none" stroke-width="1px">35</text><text x="681.99609375" y="0" dx="0em" dy="0.95em" style="text-anchor: middle; visibility: inherit; font-family: Roboto, sans-serif; font-size: 12px; font-weight: 200;" fill="rgb(50, 49, 63)" stroke="none" stroke-width="1px">40</text><text x="757.7734375" y="0" dx="0em" dy="0.95em" style="text-anchor: middle; visibility: inherit; font-family: Roboto, sans-serif; font-size: 12px; font-weight: 200;" fill="rgb(50, 49, 63)" stroke="none" stroke-width="1px">45</text><text x="833.55078125" y="0" dx="0em" dy="0.95em" style="text-anchor: middle; visibility: inherit; font-family: Roboto, sans-serif; font-size: 12px; font-weight: 200;" fill="rgb(50, 49, 63)" stroke="none" stroke-width="1px">50</text><text x="909.328125" y="0" dx="0em" dy="0.95em" style="text-anchor: middle; visibility: hidden; font-family: Roboto, sans-serif; font-size: 12px; font-weight: 200;" fill="rgb(50, 49, 63)" stroke="none" stroke-width="1px">55</text></g><line x1="0" y1="0" x2="909.328125" y2="0" fill="rgb(0, 0, 0)" stroke="rgb(204, 204, 204)" stroke-width="1px"></line></g></g></g></g></svg>